STARTFONT 2.1
COMMENT
COMMENT Converted from OpenType font "Catrinity-Regular.otf" by "otf2bdf 3.0".
COMMENT
FONT -FreeType-Catrinity-Medium-R-Normal--25-180-100-100-P-125-ISO10646-1
SIZE 18 100 100
FONTBOUNDINGBOX 57 33 -15 -10
STARTPROPERTIES 19
FOUNDRY "FreeType"
FAMILY_NAME "Catrinity"
WEIGHT_NAME "Medium"
SLANT "R"
SETWIDTH_NAME "Normal"
ADD_STYLE_NAME ""
PIXEL_SIZE 25
POINT_SIZE 180
RESOLUTION_X 100
RESOLUTION_Y 100
SPACING "P"
AVERAGE_WIDTH 125
CHARSET_REGISTRY "ISO10646"
CHARSET_ENCODING "1"
FONT_ASCENT 20
FONT_DESCENT 9
COPYRIGHT "Typeface © Alexander Lange. 2023. All Rights Reserved"
_OTF_FONTFILE "Catrinity-Regular.otf"
_OTF_PSNAME "Catrinity"
ENDPROPERTIES
CHARS 9984
STARTCHAR 0000
ENCODING 0
SWIDTH 0 0
DWIDTH 0 0
BBX 0 0 0 0
BITMAP
ENDCHAR
STARTCHAR 0008
ENCODING 8
SWIDTH 0 0
DWIDTH 0 0
BBX 0 0 0 0
BITMAP
ENDCHAR
STARTCHAR 0009
ENCODING 9
SWIDTH 240 0
DWIDTH 6 0
BBX 0 0 0 0
BITMAP
ENDCHAR
STARTCHAR 000D
ENCODING 13
SWIDTH 240 0
DWIDTH 6 0
BBX 0 0 0 0
BITMAP
ENDCHAR
STARTCHAR 001D
ENCODING 29
SWIDTH 0 0
DWIDTH 0 0
BBX 0 0 0 0
BITMAP
ENDCHAR
STARTCHAR 0020
ENCODING 32
SWIDTH 240 0
DWIDTH 6 0
BBX 0 0 0 0
BITMAP
ENDCHAR
STARTCHAR 0021
ENCODING 33
SWIDTH 160 0
DWIDTH 4 0
BBX 2 16 1 0
BITMAP
C0
C0
C0
C0
C0
C0
C0
C0
C0
C0
C0
00
00
00
C0
C0
ENDCHAR
STARTCHAR 0022
ENCODING 34
SWIDTH 280 0
DWIDTH 7 0
BBX 5 5 1 11
BITMAP
D8
D8
D8
D8
D8
ENDCHAR
STARTCHAR 0023
ENCODING 35
SWIDTH 680 0
DWIDTH 17 0
BBX 16 16 1 0
BITMAP
0618
0618
0618
0618
7FFF
7FFE
0C30
0C30
0C30
0C30
FFFE
FFFC
1860
1860
1860
1060
ENDCHAR
STARTCHAR 0024
ENCODING 36
SWIDTH 480 0
DWIDTH 12 0
BBX 10 21 1 -2
BITMAP
0C00
0C00
0C00
3F00
3F80
6D80
6C80
6C00
6C00
3C00
1E00
0F80
0D80
0CC0
CCC0
CCC0
6DC0
7F80
3F00
0C00
0C00
ENDCHAR
STARTCHAR 0025
ENCODING 37
SWIDTH 600 0
DWIDTH 15 0
BBX 14 16 1 0
BITMAP
7C18
7E38
C630
C660
6EE0
7CC0
0180
0300
0700
0660
0CF8
1DDC
198C
318C
71F8
60F0
ENDCHAR
STARTCHAR 0026
ENCODING 38
SWIDTH 560 0
DWIDTH 14 0
BBX 12 16 1 0
BITMAP
1F00
3F80
6180
6000
60C0
60C0
3FF0
3FF0
70C0
60C0
C0C0
C0C0
C0C0
61C0
7FF0
3FF0
ENDCHAR
STARTCHAR 0027
ENCODING 39
SWIDTH 160 0
DWIDTH 4 0
BBX 2 5 1 11
BITMAP
C0
C0
C0
C0
C0
ENDCHAR
STARTCHAR 0028
ENCODING 40
SWIDTH 280 0
DWIDTH 7 0
BBX 5 21 1 -5
BITMAP
18
30
30
60
60
60
40
C0
C0
C0
C0
C0
C0
C0
40
60
60
60
30
30
18
ENDCHAR
STARTCHAR 0029
ENCODING 41
SWIDTH 280 0
DWIDTH 7 0
BBX 5 21 1 -5
BITMAP
E0
60
30
30
30
18
18
18
18
18
18
18
18
18
18
18
30
30
30
60
C0
ENDCHAR
STARTCHAR 002A
ENCODING 42
SWIDTH 400 0
DWIDTH 10 0
BBX 9 8 1 8
BITMAP
0800
4900
EB80
3E00
1E00
EB80
4900
0800
ENDCHAR
STARTCHAR 002B
ENCODING 43
SWIDTH 520 0
DWIDTH 13 0
BBX 11 11 1 3
BITMAP
0600
0600
0600
0600
0600
FFE0
FFE0
0600
0600
0600
0600
ENDCHAR
STARTCHAR 002C
ENCODING 44
SWIDTH 200 0
DWIDTH 5 0
BBX 3 6 1 -4
BITMAP
E0
E0
20
20
20
C0
ENDCHAR
STARTCHAR 002D
ENCODING 45
SWIDTH 320 0
DWIDTH 8 0
BBX 6 2 1 5
BITMAP
FC
FC
ENDCHAR
STARTCHAR 002E
ENCODING 46
SWIDTH 200 0
DWIDTH 5 0
BBX 3 2 1 0
BITMAP
E0
E0
ENDCHAR
STARTCHAR 002F
ENCODING 47
SWIDTH 400 0
DWIDTH 10 0
BBX 8 16 1 0
BITMAP
03
06
06
06
0C
0C
0C
18
18
18
30
30
60
60
60
C0
ENDCHAR
STARTCHAR 0030
ENCODING 48
SWIDTH 480 0
DWIDTH 12 0
BBX 10 16 1 0
BITMAP
1E00
3F00
6180
6180
40C0
C0C0
C0C0
C0C0
C0C0
C0C0
C0C0
60C0
6180
7180
3F00
1E00
ENDCHAR
STARTCHAR 0031
ENCODING 49
SWIDTH 400 0
DWIDTH 10 0
BBX 8 16 1 0
BITMAP
18
18
F8
F8
18
18
18
18
18
18
18
18
18
18
FF
FF
ENDCHAR
STARTCHAR 0032
ENCODING 50
SWIDTH 400 0
DWIDTH 10 0
BBX 9 16 1 0
BITMAP
3E00
7700
E180
C180
0180
0380
0300
0600
0C00
3800
3000
6000
C000
C000
FF80
FF80
ENDCHAR
STARTCHAR 0033
ENCODING 51
SWIDTH 440 0
DWIDTH 11 0
BBX 9 16 1 0
BITMAP
3E00
7700
E380
C180
0180
0380
0700
0700
0700
0180
0180
0080
4180
E180
7F00
3E00
ENDCHAR
STARTCHAR 0034
ENCODING 52
SWIDTH 520 0
DWIDTH 13 0
BBX 12 16 1 0
BITMAP
0380
0380
0780
0F80
0D80
1980
3180
7180
6180
FFF0
FFF0
0180
0180
0180
0180
0180
ENDCHAR
STARTCHAR 0035
ENCODING 53
SWIDTH 440 0
DWIDTH 11 0
BBX 9 16 1 0
BITMAP
7F00
7F00
6000
6000
6000
7E00
F700
C180
0180
0180
0080
0180
4180
E380
7F00
3E00
ENDCHAR
STARTCHAR 0036
ENCODING 54
SWIDTH 480 0
DWIDTH 12 0
BBX 10 16 1 0
BITMAP
1F00
3F80
3080
6000
6000
C000
C400
FF00
F380
E1C0
C0C0
40C0
60C0
61C0
3F80
1F00
ENDCHAR
STARTCHAR 0037
ENCODING 55
SWIDTH 480 0
DWIDTH 12 0
BBX 10 16 1 0
BITMAP
FFC0
FFC0
0180
0300
0300
0600
0600
0600
0C00
0C00
0C00
1800
1800
1800
1800
1800
ENDCHAR
STARTCHAR 0038
ENCODING 56
SWIDTH 480 0
DWIDTH 12 0
BBX 10 16 1 0
BITMAP
1F00
3F80
6180
6080
6180
6180
3F80
3F00
7380
61C0
C0C0
C0C0
C0C0
61C0
7F80
3F00
ENDCHAR
STARTCHAR 0039
ENCODING 57
SWIDTH 480 0
DWIDTH 12 0
BBX 10 16 1 0
BITMAP
3F00
7F80
61C0
C0C0
C0C0
C0C0
61C0
7B80
3F80
0180
0300
0300
0600
0600
0600
0C00
ENDCHAR
STARTCHAR 003A
ENCODING 58
SWIDTH 200 0
DWIDTH 5 0
BBX 3 11 1 0
BITMAP
E0
E0
00
00
00
00
00
00
00
E0
E0
ENDCHAR
STARTCHAR 003B
ENCODING 59
SWIDTH 200 0
DWIDTH 5 0
BBX 3 15 1 -4
BITMAP
E0
E0
00
00
00
00
00
00
00
E0
E0
20
20
20
C0
ENDCHAR
STARTCHAR 003C
ENCODING 60
SWIDTH 520 0
DWIDTH 13 0
BBX 11 10 1 3
BITMAP
0020
01E0
0FC0
7E00
F000
F000
3E00
0FC0
01E0
0020
ENDCHAR
STARTCHAR 003D
ENCODING 61
SWIDTH 520 0
DWIDTH 13 0
BBX 11 6 1 5
BITMAP
FFE0
FFE0
0000
0000
FFE0
FFE0
ENDCHAR
STARTCHAR 003E
ENCODING 62
SWIDTH 520 0
DWIDTH 13 0
BBX 11 10 1 3
BITMAP
C000
F000
3E00
07C0
01E0
01E0
0FC0
7E00
F000
8000
ENDCHAR
STARTCHAR 003F
ENCODING 63
SWIDTH 400 0
DWIDTH 10 0
BBX 9 16 1 0
BITMAP
3E00
7700
E180
C180
0180
0180
0300
0700
0E00
0C00
0C00
0800
0000
0000
1C00
1C00
ENDCHAR
STARTCHAR 0040
ENCODING 64
SWIDTH 920 0
DWIDTH 23 0
BBX 20 21 2 -5
BITMAP
00FF00
03FF80
0701C0
0C00E0
180060
30FF30
31DF30
630630
630630
C60630
C60630
C60420
C60C60
C61C60
C7FCC0
C3EDC0
E00F80
700600
380000
1FE000
0FF000
ENDCHAR
STARTCHAR 0041
ENCODING 65
SWIDTH 640 0
DWIDTH 16 0
BBX 14 16 1 0
BITMAP
0300
0780
0780
0780
0CC0
0CC0
0CC0
1860
1FE0
1FF0
3030
3030
6018
6018
6018
C00C
ENDCHAR
STARTCHAR 0042
ENCODING 66
SWIDTH 480 0
DWIDTH 12 0
BBX 10 16 1 0
BITMAP
FF00
FF80
C1C0
C0C0
C0C0
C0C0
FF80
FF80
C1C0
C0C0
C040
C040
C0C0
C0C0
FF80
FF00
ENDCHAR
STARTCHAR 0043
ENCODING 67
SWIDTH 560 0
DWIDTH 14 0
BBX 13 16 1 0
BITMAP
0FC0
1FE0
3030
6030
6000
C000
C000
C000
C000
C000
4000
6000
6038
3070
1FE0
0FC0
ENDCHAR
STARTCHAR 0044
ENCODING 68
SWIDTH 600 0
DWIDTH 15 0
BBX 14 16 1 0
BITMAP
FFC0
FFE0
3070
3038
3018
3018
300C
300C
300C
300C
3018
3018
3038
3070
FFE0
FF80
ENDCHAR
STARTCHAR 0045
ENCODING 69
SWIDTH 480 0
DWIDTH 12 0
BBX 10 16 1 0
BITMAP
FFC0
FFC0
C000
C000
C000
C000
C000
FF80
FF80
C000
C000
C000
C000
C000
FFC0
FFC0
ENDCHAR
STARTCHAR 0046
ENCODING 70
SWIDTH 480 0
DWIDTH 12 0
BBX 10 16 1 0
BITMAP
FFC0
FFC0
C000
C000
C000
C000
C000
FF80
FF80
C000
C000
C000
C000
C000
C000
C000
ENDCHAR
STARTCHAR 0047
ENCODING 71
SWIDTH 560 0
DWIDTH 14 0
BBX 13 16 1 0
BITMAP
0FC0
1FE0
3030
6030
6000
C000
C000
C3F8
C3F8
C018
4018
6018
6038
3070
1FE0
0FC0
ENDCHAR
STARTCHAR 0048
ENCODING 72
SWIDTH 480 0
DWIDTH 12 0
BBX 10 16 1 0
BITMAP
C040
C040
C040
C040
C040
C040
C040
FFC0
FFC0
C040
C040
C040
C040
C040
C040
C040
ENDCHAR
STARTCHAR 0049
ENCODING 73
SWIDTH 280 0
DWIDTH 7 0
BBX 6 16 1 0
BITMAP
FC
FC
30
30
30
30
30
30
30
30
30
30
30
30
FC
FC
ENDCHAR
STARTCHAR 004A
ENCODING 74
SWIDTH 360 0
DWIDTH 9 0
BBX 7 16 1 0
BITMAP
06
06
06
06
06
06
06
06
06
06
06
06
06
C6
7E
7C
ENDCHAR
STARTCHAR 004B
ENCODING 75
SWIDTH 520 0
DWIDTH 13 0
BBX 11 16 1 0
BITMAP
C1C0
C180
C300
C700
C600
CC00
D800
F800
FC00
E600
E600
C300
C180
C1C0
C0C0
C060
ENDCHAR
STARTCHAR 004C
ENCODING 76
SWIDTH 480 0
DWIDTH 12 0
BBX 10 16 1 0
BITMAP
C000
C000
C000
C000
C000
C000
C000
C000
C000
C000
C000
C000
C000
C000
FFC0
FFC0
ENDCHAR
STARTCHAR 004D
ENCODING 77
SWIDTH 640 0
DWIDTH 16 0
BBX 14 16 1 0
BITMAP
C00C
E01C
E01C
E01C
F03C
F03C
D83C
D86C
D86C
CCCC
CCCC
CCCC
C78C
C78C
C38C
C30C
ENDCHAR
STARTCHAR 004E
ENCODING 78
SWIDTH 600 0
DWIDTH 15 0
BBX 13 16 1 0
BITMAP
C018
E018
F018
F818
D818
CC18
CE18
C618
C318
C198
C1D8
C0D8
C078
C078
C038
C018
ENDCHAR
STARTCHAR 004F
ENCODING 79
SWIDTH 600 0
DWIDTH 15 0
BBX 14 16 1 0
BITMAP
0FC0
1FE0
3030
6038
6018
C018
C00C
C00C
C00C
C00C
4018
6018
6038
3070
1FE0
0FC0
ENDCHAR
STARTCHAR 0050
ENCODING 80
SWIDTH 480 0
DWIDTH 12 0
BBX 10 16 1 0
BITMAP
FE00
FF80
C180
C0C0
C0C0
C0C0
C180
FF80
FE00
C000
C000
C000
C000
C000
C000
C000
ENDCHAR
STARTCHAR 0051
ENCODING 81
SWIDTH 600 0
DWIDTH 15 0
BBX 16 18 1 -2
BITMAP
0FC0
1FE0
3030
6038
6018
C018
C00C
C00C
C00C
C00C
4318
6FD8
64F8
3070
1FE0
0FF2
003F
000C
ENDCHAR
STARTCHAR 0052
ENCODING 82
SWIDTH 520 0
DWIDTH 13 0
BBX 11 16 1 0
BITMAP
FE00
FF80
C180
C0C0
C0C0
C0C0
C180
FF80
FE00
C600
C300
C180
C180
C0C0
C0C0
C060
ENDCHAR
STARTCHAR 0053
ENCODING 83
SWIDTH 480 0
DWIDTH 12 0
BBX 10 16 1 0
BITMAP
3F00
3F80
6180
6080
6000
6000
3800
1E00
0780
0180
00C0
C0C0
C0C0
61C0
7F80
3F00
ENDCHAR
STARTCHAR 0054
ENCODING 84
SWIDTH 480 0
DWIDTH 12 0
BBX 10 16 1 0
BITMAP
FFC0
FFC0
0C00
0C00
0C00
0C00
0C00
0C00
0C00
0C00
0C00
0C00
0C00
0C00
0C00
0C00
ENDCHAR
STARTCHAR 0055
ENCODING 85
SWIDTH 560 0
DWIDTH 14 0
BBX 12 16 1 0
BITMAP
C010
C010
C010
C010
C010
C010
C010
C010
C010
C010
C010
C030
6030
7060
3FE0
1F80
ENDCHAR
STARTCHAR 0056
ENCODING 86
SWIDTH 640 0
DWIDTH 16 0
BBX 14 16 1 0
BITMAP
C00C
6018
6018
2018
3030
3030
1830
1860
1860
0CC0
0CC0
0CC0
0780
0780
0380
0300
ENDCHAR
STARTCHAR 0057
ENCODING 87
SWIDTH 840 0
DWIDTH 21 0
BBX 19 16 1 0
BITMAP
C06060
60E060
60E060
60F040
60F0C0
31B0C0
3198C0
319980
111980
1B1980
1B0D80
1B0F00
0E0F00
0E0700
0E0700
0E0600
ENDCHAR
STARTCHAR 0058
ENCODING 88
SWIDTH 600 0
DWIDTH 15 0
BBX 12 16 2 0
BITMAP
C030
E070
6060
30C0
39C0
1980
0F00
0600
0F00
0F00
1980
39C0
30C0
6060
E070
C030
ENDCHAR
STARTCHAR 0059
ENCODING 89
SWIDTH 600 0
DWIDTH 15 0
BBX 12 16 2 0
BITMAP
C030
E070
6060
30C0
39C0
1980
0F00
0600
0600
0600
0600
0600
0600
0600
0600
0600
ENDCHAR
STARTCHAR 005A
ENCODING 90
SWIDTH 520 0
DWIDTH 13 0
BBX 11 16 1 0
BITMAP
FFE0
FFE0
00E0
00C0
0180
0380
0300
0600
0C00
1C00
1800
3000
7000
6000
FFE0
FFE0
ENDCHAR
STARTCHAR 005B
ENCODING 91
SWIDTH 280 0
DWIDTH 7 0
BBX 5 21 1 -5
BITMAP
F8
F8
C0
C0
C0
C0
C0
C0
C0
C0
C0
C0
C0
C0
C0
C0
C0
C0
C0
F8
F8
ENDCHAR
STARTCHAR 005C
ENCODING 92
SWIDTH 400 0
DWIDTH 10 0
BBX 8 16 1 0
BITMAP
C0
60
60
20
30
30
18
18
18
0C
0C
0C
06
06
03
03
ENDCHAR
STARTCHAR 005D
ENCODING 93
SWIDTH 280 0
DWIDTH 7 0
BBX 5 21 1 -5
BITMAP
F8
F8
18
18
18
18
18
18
18
18
18
18
18
18
18
18
18
18
18
F8
F8
ENDCHAR
STARTCHAR 005E
ENCODING 94
SWIDTH 280 0
DWIDTH 7 0
BBX 6 5 1 11
BITMAP
30
78
78
78
CC
ENDCHAR
STARTCHAR 005F
ENCODING 95
SWIDTH 480 0
DWIDTH 12 0
BBX 10 2 1 -2
BITMAP
FFC0
FFC0
ENDCHAR
STARTCHAR 0060
ENCODING 96
SWIDTH 240 0
DWIDTH 6 0
BBX 3 3 2 12
BITMAP
C0
40
20
ENDCHAR
STARTCHAR 0061
ENCODING 97
SWIDTH 400 0
DWIDTH 10 0
BBX 8 11 1 0
BITMAP
3E
3F
03
03
3F
7F
E3
C3
C3
7F
3F
ENDCHAR
STARTCHAR 0062
ENCODING 98
SWIDTH 480 0
DWIDTH 12 0
BBX 10 16 1 0
BITMAP
C000
C000
C000
C000
C000
FF00
FB80
E180
C0C0
C0C0
C0C0
C0C0
C0C0
E180
FF80
DE00
ENDCHAR
STARTCHAR 0063
ENCODING 99
SWIDTH 440 0
DWIDTH 11 0
BBX 9 11 1 0
BITMAP
3F00
7B80
6180
C000
C000
C000
C000
4000
6180
3F80
1E00
ENDCHAR
STARTCHAR 0064
ENCODING 100
SWIDTH 480 0
DWIDTH 12 0
BBX 10 16 1 0
BITMAP
00C0
00C0
00C0
00C0
00C0
3FC0
7BC0
61C0
C0C0
C0C0
C0C0
C0C0
40C0
61C0
3FC0
1FC0
ENDCHAR
STARTCHAR 0065
ENCODING 101
SWIDTH 480 0
DWIDTH 12 0
BBX 10 11 1 0
BITMAP
3F00
7B80
6180
C0C0
FFC0
FFC0
C000
6000
6180
3F80
1E00
ENDCHAR
STARTCHAR 0066
ENCODING 102
SWIDTH 320 0
DWIDTH 8 0
BBX 8 16 1 0
BITMAP
0F
1E
30
30
30
30
FC
FC
30
30
30
30
30
30
30
30
ENDCHAR
STARTCHAR 0067
ENCODING 103
SWIDTH 480 0
DWIDTH 12 0
BBX 12 16 1 -5
BITMAP
3F70
73E0
E0C0
C0C0
C0C0
61C0
7F80
7F00
6000
7C00
1F80
01C0
C0C0
E0C0
7F80
3F00
ENDCHAR
STARTCHAR 0068
ENCODING 104
SWIDTH 480 0
DWIDTH 12 0
BBX 10 16 1 0
BITMAP
C000
C000
C000
C000
C000
DF00
FB80
E180
E0C0
C0C0
C0C0
C0C0
C0C0
C0C0
C0C0
C0C0
ENDCHAR
STARTCHAR 0069
ENCODING 105
SWIDTH 160 0
DWIDTH 4 0
BBX 2 15 1 1
BITMAP
C0
C0
00
00
C0
C0
C0
C0
C0
C0
C0
C0
C0
C0
C0
ENDCHAR
STARTCHAR 006A
ENCODING 106
SWIDTH 160 0
DWIDTH 4 0
BBX 5 20 -2 -4
BITMAP
18
18
00
00
18
18
18
18
18
18
18
18
18
18
18
18
18
18
F8
F0
ENDCHAR
STARTCHAR 006B
ENCODING 107
SWIDTH 400 0
DWIDTH 10 0
BBX 8 16 1 0
BITMAP
C0
C0
C0
C0
C0
C6
CC
DC
D8
F0
F8
FC
CC
C6
C7
C3
ENDCHAR
STARTCHAR 006C
ENCODING 108
SWIDTH 240 0
DWIDTH 6 0
BBX 4 16 1 0
BITMAP
C0
C0
C0
C0
C0
C0
C0
C0
C0
C0
C0
C0
C0
C0
F0
70
ENDCHAR
STARTCHAR 006D
ENCODING 109
SWIDTH 600 0
DWIDTH 15 0
BBX 13 11 1 0
BITMAP
FCF0
F7B0
E718
C318
C318
C318
C318
C318
C318
C318
C318
ENDCHAR
STARTCHAR 006E
ENCODING 110
SWIDTH 480 0
DWIDTH 12 0
BBX 10 11 1 0
BITMAP
DF00
FB80
E180
E0C0
C0C0
C0C0
C0C0
C0C0
C0C0
C0C0
C0C0
ENDCHAR
STARTCHAR 006F
ENCODING 111
SWIDTH 480 0
DWIDTH 12 0
BBX 10 11 1 0
BITMAP
3F00
7B80
6180
C0C0
C0C0
C0C0
C0C0
40C0
6180
3F80
1E00
ENDCHAR
STARTCHAR 0070
ENCODING 112
SWIDTH 480 0
DWIDTH 12 0
BBX 10 16 1 -6
BITMAP
FF00
FB80
E180
C0C0
C0C0
C0C0
C0C0
C0C0
E180
FF80
DE00
C000
C000
C000
C000
4000
ENDCHAR
STARTCHAR 0071
ENCODING 113
SWIDTH 480 0
DWIDTH 12 0
BBX 10 16 1 -6
BITMAP
3FC0
7BC0
61C0
C0C0
C0C0
C0C0
C0C0
40C0
61C0
3FC0
1FC0
00C0
00C0
00C0
00C0
00C0
ENDCHAR
STARTCHAR 0072
ENCODING 114
SWIDTH 320 0
DWIDTH 8 0
BBX 6 11 1 0
BITMAP
DC
F8
E0
C0
C0
C0
C0
C0
C0
C0
C0
ENDCHAR
STARTCHAR 0073
ENCODING 115
SWIDTH 360 0
DWIDTH 9 0
BBX 8 11 1 0
BITMAP
7C
6E
46
60
78
1E
06
03
C6
7E
3C
ENDCHAR
STARTCHAR 0074
ENCODING 116
SWIDTH 320 0
DWIDTH 8 0
BBX 6 14 1 0
BITMAP
10
30
30
FC
FC
30
30
30
30
30
30
30
3C
1C
ENDCHAR
STARTCHAR 0075
ENCODING 117
SWIDTH 480 0
DWIDTH 12 0
BBX 10 11 1 0
BITMAP
C0C0
C0C0
C0C0
C0C0
C0C0
C0C0
C0C0
C0C0
61C0
7FC0
3EC0
ENDCHAR
STARTCHAR 0076
ENCODING 118
SWIDTH 480 0
DWIDTH 12 0
BBX 10 11 1 0
BITMAP
C0C0
60C0
6180
3180
3180
3300
1B00
1B00
1E00
0E00
0C00
ENDCHAR
STARTCHAR 0077
ENCODING 119
SWIDTH 640 0
DWIDTH 16 0
BBX 14 11 1 0
BITMAP
C30C
638C
6788
6798
6698
36D8
3CF0
3CF0
1C70
1C70
1860
ENDCHAR
STARTCHAR 0078
ENCODING 120
SWIDTH 480 0
DWIDTH 12 0
BBX 9 11 2 0
BITMAP
C180
E300
6600
3E00
1C00
1800
3C00
3600
6700
E300
C180
ENDCHAR
STARTCHAR 0079
ENCODING 121
SWIDTH 480 0
DWIDTH 12 0
BBX 10 16 1 -5
BITMAP
C0C0
60C0
6180
3180
3180
3300
1B00
1B00
1E00
0E00
0C00
0C00
0C00
1800
7800
7000
ENDCHAR
STARTCHAR 007A
ENCODING 122
SWIDTH 400 0
DWIDTH 10 0
BBX 8 11 1 0
BITMAP
FF
FF
06
0C
1C
18
30
70
60
FF
FF
ENDCHAR
STARTCHAR 007B
ENCODING 123
SWIDTH 280 0
DWIDTH 7 0
BBX 5 21 1 -5
BITMAP
18
38
30
30
30
30
30
30
30
E0
E0
60
30
30
30
30
30
30
30
38
18
ENDCHAR
STARTCHAR 007C
ENCODING 124
SWIDTH 160 0
DWIDTH 4 0
BBX 2 21 1 -5
BITMAP
C0
C0
C0
C0
C0
C0
C0
C0
C0
C0
C0
C0
C0
C0
C0
C0
C0
C0
C0
C0
C0
ENDCHAR
STARTCHAR 007D
ENCODING 125
SWIDTH 280 0
DWIDTH 7 0
BBX 5 21 1 -5
BITMAP
C0
E0
30
30
30
30
30
30
30
38
18
38
30
30
30
30
30
30
30
E0
C0
ENDCHAR
STARTCHAR 007E
ENCODING 126
SWIDTH 560 0
DWIDTH 14 0
BBX 12 4 1 6
BITMAP
7C00
7E30
C7F0
01E0
ENDCHAR
STARTCHAR 00A0
ENCODING 160
SWIDTH 240 0
DWIDTH 6 0
BBX 0 0 0 0
BITMAP
ENDCHAR
STARTCHAR 00A1
ENCODING 161
SWIDTH 160 0
DWIDTH 4 0
BBX 2 16 1 -5
BITMAP
C0
C0
00
00
00
C0
C0
C0
C0
C0
C0
C0
C0
C0
C0
C0
ENDCHAR
STARTCHAR 00A2
ENCODING 162
SWIDTH 440 0
DWIDTH 11 0
BBX 9 16 1 -2
BITMAP
0180
0300
0300
3F00
7F80
6780
C400
CC00
CC00
D800
5800
7980
3F80
3E00
3000
6000
ENDCHAR
STARTCHAR 00A3
ENCODING 163
SWIDTH 480 0
DWIDTH 12 0
BBX 11 16 1 0
BITMAP
0F80
1FC0
30E0
3000
6000
6000
2000
FF00
FF00
1000
1000
1000
3000
3000
FFE0
FFE0
ENDCHAR
STARTCHAR 00A4
ENCODING 164
SWIDTH 520 0
DWIDTH 13 0
BBX 11 11 1 2
BITMAP
4000
E060
7FC0
3F80
30C0
60C0
60C0
30C0
3FC0
7FE0
C060
ENDCHAR
STARTCHAR 00A5
ENCODING 165
SWIDTH 600 0
DWIDTH 15 0
BBX 12 16 2 0
BITMAP
C030
E070
6060
30C0
39C0
1980
0F00
FFE0
FFE0
0600
FFE0
FFE0
0600
0600
0600
0600
ENDCHAR
STARTCHAR 00A6
ENCODING 166
SWIDTH 160 0
DWIDTH 4 0
BBX 2 21 1 -5
BITMAP
C0
C0
C0
C0
C0
C0
C0
C0
00
00
00
00
00
C0
C0
C0
C0
C0
C0
C0
C0
ENDCHAR
STARTCHAR 00A7
ENCODING 167
SWIDTH 480 0
DWIDTH 12 0
BBX 10 21 1 -5
BITMAP
3F00
3F80
6180
6080
6000
6000
7800
FE00
C780
C180
E0C0
70C0
3CC0
0FC0
0380
0180
0080
6180
6180
3F80
1E00
ENDCHAR
STARTCHAR 00A8
ENCODING 168
SWIDTH 360 0
DWIDTH 9 0
BBX 7 3 1 13
BITMAP
44
EE
E6
ENDCHAR
STARTCHAR 00A9
ENCODING 169
SWIDTH 760 0
DWIDTH 19 0
BBX 17 16 1 0
BITMAP
07F000
1F7C00
380E00
700700
61C300
63E100
C72180
C60180
C60180
C72180
63E300
61C300
300600
380E00
1FFC00
07F000
ENDCHAR
STARTCHAR 00AA
ENCODING 170
SWIDTH 280 0
DWIDTH 7 0
BBX 5 8 1 9
BITMAP
70
18
38
78
58
78
00
F8
ENDCHAR
STARTCHAR 00AB
ENCODING 171
SWIDTH 400 0
DWIDTH 10 0
BBX 8 9 1 1
BITMAP
09
12
24
6C
D8
6C
36
12
09
ENDCHAR
STARTCHAR 00AC
ENCODING 172
SWIDTH 520 0
DWIDTH 13 0
BBX 11 6 1 3
BITMAP
FFE0
FFE0
0060
0060
0060
0060
ENDCHAR
STARTCHAR 00AD
ENCODING 173
SWIDTH 320 0
DWIDTH 8 0
BBX 6 2 1 5
BITMAP
FC
FC
ENDCHAR
STARTCHAR 00AE
ENCODING 174
SWIDTH 760 0
DWIDTH 19 0
BBX 17 16 1 0
BITMAP
07F000
1F7C00
380E00
700700
63C300
63E100
C33180
C36180
C3E180
C36180
636300
633300
300600
380E00
1FFC00
07F000
ENDCHAR
STARTCHAR 00AF
ENCODING 175
SWIDTH 320 0
DWIDTH 8 0
BBX 6 2 1 13
BITMAP
FC
FC
ENDCHAR
STARTCHAR 00B0
ENCODING 176
SWIDTH 360 0
DWIDTH 9 0
BBX 7 6 1 10
BITMAP
7C
7E
C6
C6
6E
7C
ENDCHAR
STARTCHAR 00B1
ENCODING 177
SWIDTH 520 0
DWIDTH 13 0
BBX 11 14 1 1
BITMAP
0600
0600
0600
0600
0600
FFE0
FFE0
0600
0600
0600
0600
0000
FFE0
FFE0
ENDCHAR
STARTCHAR 00B2
ENCODING 178
SWIDTH 280 0
DWIDTH 7 0
BBX 5 9 1 11
BITMAP
20
78
C8
18
30
60
40
C0
F8
ENDCHAR
STARTCHAR 00B3
ENCODING 179
SWIDTH 280 0
DWIDTH 7 0
BBX 5 9 1 11
BITMAP
20
78
C8
18
30
08
08
D8
70
ENDCHAR
STARTCHAR 00B4
ENCODING 180
SWIDTH 240 0
DWIDTH 6 0
BBX 4 4 1 12
BITMAP
30
60
40
80
ENDCHAR
STARTCHAR 00B5
ENCODING 181
SWIDTH 480 0
DWIDTH 12 0
BBX 10 16 1 -6
BITMAP
C0C0
C0C0
C0C0
C0C0
C0C0
C0C0
C0C0
C0C0
E1C0
FFC0
DEC0
C000
C000
C000
C000
4000
ENDCHAR
STARTCHAR 00B6
ENCODING 182
SWIDTH 480 0
DWIDTH 12 0
BBX 10 21 1 -5
BITMAP
3FC0
7FC0
7EC0
FEC0
FEC0
FEC0
7EC0
3EC0
06C0
06C0
06C0
06C0
06C0
06C0
06C0
06C0
06C0
06C0
06C0
06C0
06C0
ENDCHAR
STARTCHAR 00B7
ENCODING 183
SWIDTH 200 0
DWIDTH 5 0
BBX 3 2 1 7
BITMAP
E0
E0
ENDCHAR
STARTCHAR 00B8
ENCODING 184
SWIDTH 280 0
DWIDTH 7 0
BBX 5 5 1 -5
BITMAP
20
78
08
18
F0
ENDCHAR
STARTCHAR 00B9
ENCODING 185
SWIDTH 240 0
DWIDTH 6 0
BBX 5 8 1 11
BITMAP
60
E0
20
20
20
20
20
F8
ENDCHAR
STARTCHAR 00BA
ENCODING 186
SWIDTH 320 0
DWIDTH 8 0
BBX 6 8 1 9
BITMAP
38
4C
4C
4C
6C
38
00
FC
ENDCHAR
STARTCHAR 00BB
ENCODING 187
SWIDTH 400 0
DWIDTH 10 0
BBX 8 9 1 1
BITMAP
80
48
24
12
1B
32
24
48
90
ENDCHAR
STARTCHAR 00BC
ENCODING 188
SWIDTH 480 0
DWIDTH 12 0
BBX 10 20 1 -2
BITMAP
0C00
1C00
0C00
0C00
0C00
0C00
0C00
1E00
0000
FFC0
FFC0
0000
0600
0E00
1A00
1200
3F00
3F00
0200
0200
ENDCHAR
STARTCHAR 00BD
ENCODING 189
SWIDTH 480 0
DWIDTH 12 0
BBX 10 20 1 -2
BITMAP
0C00
1C00
0C00
0C00
0C00
0C00
0C00
1E00
0000
FFC0
FFC0
0000
1E00
1200
0200
0600
0C00
1800
1000
1E00
ENDCHAR
STARTCHAR 00BE
ENCODING 190
SWIDTH 480 0
DWIDTH 12 0
BBX 10 20 1 -2
BITMAP
1E00
1200
0200
0600
0600
0300
1200
1E00
0000
FFC0
FFC0
0000
0600
0E00
1A00
1200
3F00
3F00
0200
0200
ENDCHAR
STARTCHAR 00BF
ENCODING 191
SWIDTH 400 0
DWIDTH 10 0
BBX 9 16 1 -5
BITMAP
1C00
1C00
0000
0000
0800
1800
1800
3000
7000
6000
C000
C000
C180
6300
7F00
3E00
ENDCHAR
STARTCHAR 00C0
ENCODING 192
SWIDTH 640 0
DWIDTH 16 0
BBX 14 21 1 0
BITMAP
0600
0200
0100
0000
0000
0300
0780
0780
0780
0CC0
0CC0
0CC0
1860
1FE0
1FF0
3030
3030
6018
6018
6018
C00C
ENDCHAR
STARTCHAR 00C1
ENCODING 193
SWIDTH 640 0
DWIDTH 16 0
BBX 14 21 1 0
BITMAP
0180
0100
0200
0000
0000
0300
0780
0780
0780
0CC0
0CC0
0CC0
1860
1FE0
1FF0
3030
3030
6018
6018
6018
C00C
ENDCHAR
STARTCHAR 00C2
ENCODING 194
SWIDTH 640 0
DWIDTH 16 0
BBX 14 21 1 0
BITMAP
0380
0780
04C0
0840
0000
0300
0780
0780
0780
0CC0
0CC0
0CC0
1860
1FE0
1FF0
3030
3030
6018
6018
6018
C00C
ENDCHAR
STARTCHAR 00C3
ENCODING 195
SWIDTH 640 0
DWIDTH 16 0
BBX 14 21 1 0
BITMAP
0C20
1F20
11E0
0000
0000
0300
0780
0780
0780
0CC0
0CC0
0CC0
1860
1FE0
1FF0
3030
3030
6018
6018
6018
C00C
ENDCHAR
STARTCHAR 00C4
ENCODING 196
SWIDTH 640 0
DWIDTH 16 0
BBX 14 20 1 1
BITMAP
0CC0
0CC0
0000
0000
0300
0780
0780
0780
0CC0
0CC0
0CC0
1860
1FE0
1FF0
3030
3030
6018
6018
6018
C00C
ENDCHAR
STARTCHAR 00C5
ENCODING 197
SWIDTH 640 0
DWIDTH 16 0
BBX 14 21 1 0
BITMAP
0780
0480
0480
0300
0000
0300
0780
0780
0780
0CC0
0CC0
0CC0
1860
1FE0
1FF0
3030
3030
6018
6018
6018
C00C
ENDCHAR
STARTCHAR 00C6
ENCODING 198
SWIDTH 720 0
DWIDTH 18 0
BBX 16 16 1 0
BITMAP
03FF
07FF
06C0
06C0
0CC0
0CC0
0CC0
1FFE
1FFE
18C0
30C0
30C0
60C0
60C0
60FF
C0FF
ENDCHAR
STARTCHAR 00C7
ENCODING 199
SWIDTH 560 0
DWIDTH 14 0
BBX 13 21 1 -5
BITMAP
0FC0
1FE0
3030
6030
6000
C000
C000
C000
C000
C000
4000
6000
6038
3070
1FE0
0FC0
0200
0380
0080
0080
0700
ENDCHAR
STARTCHAR 00C8
ENCODING 200
SWIDTH 480 0
DWIDTH 12 0
BBX 10 21 1 0
BITMAP
1800
0C00
0400
0200
0000
FFC0
FFC0
C000
C000
C000
C000
C000
FF80
FF80
C000
C000
C000
C000
C000
FFC0
FFC0
ENDCHAR
STARTCHAR 00C9
ENCODING 201
SWIDTH 480 0
DWIDTH 12 0
BBX 10 21 1 0
BITMAP
0300
0600
0400
0800
0000
FFC0
FFC0
C000
C000
C000
C000
C000
FF80
FF80
C000
C000
C000
C000
C000
FFC0
FFC0
ENDCHAR
STARTCHAR 00CA
ENCODING 202
SWIDTH 480 0
DWIDTH 12 0
BBX 10 21 1 0
BITMAP
0E00
1A00
1100
2000
0000
FFC0
FFC0
C000
C000
C000
C000
C000
FF80
FF80
C000
C000
C000
C000
C000
FFC0
FFC0
ENDCHAR
STARTCHAR 00CB
ENCODING 203
SWIDTH 480 0
DWIDTH 12 0
BBX 10 21 1 0
BITMAP
1000
3B80
3380
0000
0000
FFC0
FFC0
C000
C000
C000
C000
C000
FF80
FF80
C000
C000
C000
C000
C000
FFC0
FFC0
ENDCHAR
STARTCHAR 00CC
ENCODING 204
SWIDTH 280 0
DWIDTH 7 0
BBX 6 21 1 0
BITMAP
E0
60
30
00
00
FC
FC
30
30
30
30
30
30
30
30
30
30
30
30
FC
FC
ENDCHAR
STARTCHAR 00CD
ENCODING 205
SWIDTH 280 0
DWIDTH 7 0
BBX 6 21 1 0
BITMAP
18
30
20
40
00
FC
FC
30
30
30
30
30
30
30
30
30
30
30
30
FC
FC
ENDCHAR
STARTCHAR 00CE
ENCODING 206
SWIDTH 280 0
DWIDTH 7 0
BBX 6 21 1 0
BITMAP
70
58
88
04
00
FC
FC
30
30
30
30
30
30
30
30
30
30
30
30
FC
FC
ENDCHAR
STARTCHAR 00CF
ENCODING 207
SWIDTH 280 0
DWIDTH 7 0
BBX 7 20 0 1
BITMAP
E6
66
00
00
7E
7E
18
18
18
18
18
18
18
18
18
18
18
18
7E
7E
ENDCHAR
STARTCHAR 00D0
ENCODING 208
SWIDTH 600 0
DWIDTH 15 0
BBX 14 16 1 0
BITMAP
FFC0
FFE0
3070
3018
3018
3008
300C
FF0C
FF0C
300C
3008
3018
3038
3070
FFE0
FF80
ENDCHAR
STARTCHAR 00D1
ENCODING 209
SWIDTH 600 0
DWIDTH 15 0
BBX 13 21 1 0
BITMAP
0820
1E20
33C0
0000
0000
C018
E018
F018
F818
D818
CC18
CE18
C618
C318
C198
C1D8
C0D8
C078
C078
C038
C018
ENDCHAR
STARTCHAR 00D2
ENCODING 210
SWIDTH 600 0
DWIDTH 15 0
BBX 14 21 1 0
BITMAP
0600
0200
0100
0000
0000
0FC0
1FE0
3030
6038
6018
C018
C00C
C00C
C00C
C00C
4018
6018
6038
3070
1FE0
0FC0
ENDCHAR
STARTCHAR 00D3
ENCODING 211
SWIDTH 600 0
DWIDTH 15 0
BBX 14 21 1 0
BITMAP
0180
0100
0200
0000
0000
0FC0
1FE0
3030
6038
6018
C018
C00C
C00C
C00C
C00C
4018
6018
6038
3070
1FE0
0FC0
ENDCHAR
STARTCHAR 00D4
ENCODING 212
SWIDTH 600 0
DWIDTH 15 0
BBX 14 21 1 0
BITMAP
0700
0780
0C80
0840
0000
0FC0
1FE0
3030
6038
6018
C018
C00C
C00C
C00C
C00C
4018
6018
6038
3070
1FE0
0FC0
ENDCHAR
STARTCHAR 00D5
ENCODING 213
SWIDTH 600 0
DWIDTH 15 0
BBX 14 21 1 0
BITMAP
0C20
1F20
11E0
0000
0000
0FC0
1FE0
3030
6038
6018
C018
C00C
C00C
C00C
C00C
4018
6018
6038
3070
1FE0
0FC0
ENDCHAR
STARTCHAR 00D6
ENCODING 214
SWIDTH 600 0
DWIDTH 15 0
BBX 14 20 1 1
BITMAP
0CC0
0CC0
0000
0000
0FC0
1FE0
3030
6038
6018
C018
C00C
C00C
C00C
C00C
4018
6018
6038
3070
1FE0
0FC0
ENDCHAR
STARTCHAR 00D7
ENCODING 215
SWIDTH 520 0
DWIDTH 13 0
BBX 9 9 2 4
BITMAP
4000
E180
7300
3E00
1C00
1E00
3700
6380
4180
ENDCHAR
STARTCHAR 00D8
ENCODING 216
SWIDTH 600 0
DWIDTH 15 0
BBX 14 18 1 -1
BITMAP
0008
0FD8
1FF8
3030
6078
60D8
C0D8
C18C
C30C
C70C
C60C
4C18
7C18
7838
3070
7FE0
6FC0
4000
ENDCHAR
STARTCHAR 00D9
ENCODING 217
SWIDTH 560 0
DWIDTH 14 0
BBX 12 21 1 0
BITMAP
0C00
0600
0200
0100
0000
C010
C010
C010
C010
C010
C010
C010
C010
C010
C010
C010
C030
6030
7060
3FE0
1F80
ENDCHAR
STARTCHAR 00DA
ENCODING 218
SWIDTH 560 0
DWIDTH 14 0
BBX 12 21 1 0
BITMAP
0180
0300
0600
0400
0000
C010
C010
C010
C010
C010
C010
C010
C010
C010
C010
C010
C030
6030
7060
3FE0
1F80
ENDCHAR
STARTCHAR 00DB
ENCODING 219
SWIDTH 560 0
DWIDTH 14 0
BBX 12 21 1 0
BITMAP
0700
0D00
0880
1000
0000
C010
C010
C010
C010
C010
C010
C010
C010
C010
C010
C010
C030
6030
7060
3FE0
1F80
ENDCHAR
STARTCHAR 00DC
ENCODING 220
SWIDTH 560 0
DWIDTH 14 0
BBX 12 21 1 0
BITMAP
0800
1DC0
19C0
0000
0000
C010
C010
C010
C010
C010
C010
C010
C010
C010
C010
C010
C030
6030
7060
3FE0
1F80
ENDCHAR
STARTCHAR 00DD
ENCODING 221
SWIDTH 600 0
DWIDTH 15 0
BBX 12 21 2 0
BITMAP
0300
0200
0400
0000
0000
C030
E070
6060
30C0
39C0
1980
0F00
0600
0600
0600
0600
0600
0600
0600
0600
0600
ENDCHAR
STARTCHAR 00DE
ENCODING 222
SWIDTH 480 0
DWIDTH 12 0
BBX 10 16 1 0
BITMAP
C000
C000
C000
C000
FF00
FF80
C0C0
C0C0
C0C0
C1C0
FF80
FF00
C000
C000
C000
C000
ENDCHAR
STARTCHAR 00DF
ENCODING 223
SWIDTH 480 0
DWIDTH 12 0
BBX 10 21 1 -6
BITMAP
3E00
7700
E180
C180
C180
C180
C700
C700
C380
C1C0
C0C0
C0C0
C0C0
C1C0
CF80
DF00
C000
C000
C000
C000
4000
ENDCHAR
STARTCHAR 00E0
ENCODING 224
SWIDTH 400 0
DWIDTH 10 0
BBX 8 16 1 0
BITMAP
30
10
08
00
00
3E
3F
03
03
3F
7F
E3
C3
C3
7F
3F
ENDCHAR
STARTCHAR 00E1
ENCODING 225
SWIDTH 400 0
DWIDTH 10 0
BBX 8 16 1 0
BITMAP
0C
08
10
00
00
3E
3F
03
03
3F
7F
E3
C3
C3
7F
3F
ENDCHAR
STARTCHAR 00E2
ENCODING 226
SWIDTH 400 0
DWIDTH 10 0
BBX 8 16 1 0
BITMAP
1C
34
22
40
00
3E
3F
03
03
3F
7F
E3
C3
C3
7F
3F
ENDCHAR
STARTCHAR 00E3
ENCODING 227
SWIDTH 400 0
DWIDTH 10 0
BBX 9 16 1 0
BITMAP
6080
F980
8F00
0000
0000
3E00
3F00
0300
0300
3F00
7F00
E300
C300
C300
7F00
3F00
ENDCHAR
STARTCHAR 00E4
ENCODING 228
SWIDTH 400 0
DWIDTH 10 0
BBX 8 15 1 1
BITMAP
66
66
00
00
3E
3F
03
03
3F
7F
E3
C3
C3
7F
3F
ENDCHAR
STARTCHAR 00E5
ENCODING 229
SWIDTH 400 0
DWIDTH 10 0
BBX 8 16 1 0
BITMAP
1C
34
34
1C
00
3E
3F
03
03
3F
7F
E3
C3
C3
7F
3F
ENDCHAR
STARTCHAR 00E6
ENCODING 230
SWIDTH 720 0
DWIDTH 18 0
BBX 16 11 1 0
BITMAP
3EFC
3FCE
0386
0303
3FFF
7FFF
E300
C300
C386
7FFC
3C78
ENDCHAR
STARTCHAR 00E7
ENCODING 231
SWIDTH 440 0
DWIDTH 11 0
BBX 9 16 1 -5
BITMAP
3F00
7B80
6180
C000
C000
C000
C000
4000
6180
3F80
1F00
0C00
0E00
0300
0300
1E00
ENDCHAR
STARTCHAR 00E8
ENCODING 232
SWIDTH 480 0
DWIDTH 12 0
BBX 10 16 1 0
BITMAP
1800
0800
0400
0200
0000
3F00
7B80
6180
C0C0
FFC0
FFC0
C000
6000
6180
3F80
1E00
ENDCHAR
STARTCHAR 00E9
ENCODING 233
SWIDTH 480 0
DWIDTH 12 0
BBX 10 16 1 0
BITMAP
0600
0400
0800
0000
0000
3F00
7B80
6180
C0C0
FFC0
FFC0
C000
6000
6180
3F80
1E00
ENDCHAR
STARTCHAR 00EA
ENCODING 234
SWIDTH 480 0
DWIDTH 12 0
BBX 10 16 1 0
BITMAP
0E00
1A00
1100
2000
0000
3F00
7B80
6180
C0C0
FFC0
FFC0
C000
6000
6180
3F80
1E00
ENDCHAR
STARTCHAR 00EB
ENCODING 235
SWIDTH 480 0
DWIDTH 12 0
BBX 10 16 1 0
BITMAP
2000
3380
3300
0000
0000
3F00
7B80
6180
C0C0
FFC0
FFC0
C000
6000
6180
3F80
1E00
ENDCHAR
STARTCHAR 00EC
ENCODING 236
SWIDTH 160 0
DWIDTH 4 0
BBX 4 16 0 0
BITMAP
C0
60
20
10
00
60
60
60
60
60
60
60
60
60
60
60
ENDCHAR
STARTCHAR 00ED
ENCODING 237
SWIDTH 160 0
DWIDTH 4 0
BBX 3 16 1 0
BITMAP
60
40
80
00
00
C0
C0
C0
C0
C0
C0
C0
C0
C0
C0
C0
ENDCHAR
STARTCHAR 00EE
ENCODING 238
SWIDTH 160 0
DWIDTH 4 0
BBX 6 16 -1 0
BITMAP
38
68
44
80
00
30
30
30
30
30
30
30
30
30
30
30
ENDCHAR
STARTCHAR 00EF
ENCODING 239
SWIDTH 160 0
DWIDTH 4 0
BBX 7 16 -1 0
BITMAP
04
CE
CC
00
00
30
30
30
30
30
30
30
30
30
30
30
ENDCHAR
STARTCHAR 00F0
ENCODING 240
SWIDTH 480 0
DWIDTH 12 0
BBX 11 16 1 0
BITMAP
3F60
1FE0
0780
06C0
00C0
3FC0
7BC0
61C0
C0E0
C0C0
C0C0
C0C0
40C0
6180
3F80
1F00
ENDCHAR
STARTCHAR 00F1
ENCODING 241
SWIDTH 480 0
DWIDTH 12 0
BBX 10 16 1 0
BITMAP
3080
7C80
4780
0000
0000
DF00
FB80
E180
E0C0
C0C0
C0C0
C0C0
C0C0
C0C0
C0C0
C0C0
ENDCHAR
STARTCHAR 00F2
ENCODING 242
SWIDTH 480 0
DWIDTH 12 0
BBX 10 16 1 0
BITMAP
1800
0800
0400
0200
0000
3F00
7B80
6180
C0C0
C0C0
C0C0
C0C0
40C0
6180
3F80
1E00
ENDCHAR
STARTCHAR 00F3
ENCODING 243
SWIDTH 480 0
DWIDTH 12 0
BBX 10 16 1 0
BITMAP
0600
0400
0800
0000
0000
3F00
7B80
6180
C0C0
C0C0
C0C0
C0C0
40C0
6180
3F80
1E00
ENDCHAR
STARTCHAR 00F4
ENCODING 244
SWIDTH 480 0
DWIDTH 12 0
BBX 10 16 1 0
BITMAP
0E00
1A00
1100
2000
0000
3F00
7B80
6180
C0C0
C0C0
C0C0
C0C0
40C0
6180
3F80
1E00
ENDCHAR
STARTCHAR 00F5
ENCODING 245
SWIDTH 480 0
DWIDTH 12 0
BBX 10 16 1 0
BITMAP
3080
7C80
4780
0000
0000
3F00
7B80
6180
C0C0
C0C0
C0C0
C0C0
40C0
6180
3F80
1E00
ENDCHAR
STARTCHAR 00F6
ENCODING 246
SWIDTH 480 0
DWIDTH 12 0
BBX 10 16 1 0
BITMAP
2000
3380
3300
0000
0000
3F00
7B80
6180
C0C0
C0C0
C0C0
C0C0
40C0
6180
3F80
1E00
ENDCHAR
STARTCHAR 00F7
ENCODING 247
SWIDTH 520 0
DWIDTH 13 0
BBX 11 10 1 3
BITMAP
0600
0600
0000
0000
FFE0
FFE0
0000
0400
0E00
0600
ENDCHAR
STARTCHAR 00F8
ENCODING 248
SWIDTH 480 0
DWIDTH 12 0
BBX 10 13 1 -1
BITMAP
00C0
3FC0
7B80
6380
C7C0
C6C0
CCC0
D8C0
58C0
7180
7F80
FE00
C000
ENDCHAR
STARTCHAR 00F9
ENCODING 249
SWIDTH 480 0
DWIDTH 12 0
BBX 10 16 1 0
BITMAP
1800
0800
0400
0200
0000
C0C0
C0C0
C0C0
C0C0
C0C0
C0C0
C0C0
C0C0
61C0
7FC0
3EC0
ENDCHAR
STARTCHAR 00FA
ENCODING 250
SWIDTH 480 0
DWIDTH 12 0
BBX 10 16 1 0
BITMAP
0600
0400
0800
0000
0000
C0C0
C0C0
C0C0
C0C0
C0C0
C0C0
C0C0
C0C0
61C0
7FC0
3EC0
ENDCHAR
STARTCHAR 00FB
ENCODING 251
SWIDTH 480 0
DWIDTH 12 0
BBX 10 16 1 0
BITMAP
0E00
1A00
1100
2000
0000
C0C0
C0C0
C0C0
C0C0
C0C0
C0C0
C0C0
C0C0
61C0
7FC0
3EC0
ENDCHAR
STARTCHAR 00FC
ENCODING 252
SWIDTH 480 0
DWIDTH 12 0
BBX 10 16 1 0
BITMAP
2000
3380
3300
0000
0000
C0C0
C0C0
C0C0
C0C0
C0C0
C0C0
C0C0
C0C0
61C0
7FC0
3EC0
ENDCHAR
STARTCHAR 00FD
ENCODING 253
SWIDTH 480 0
DWIDTH 12 0
BBX 10 21 1 -5
BITMAP
0700
0600
0800
0000
0000
C0C0
60C0
6180
3180
3180
3300
1B00
1B00
1E00
0E00
0C00
0C00
0C00
1800
7800
7000
ENDCHAR
STARTCHAR 00FE
ENCODING 254
SWIDTH 480 0
DWIDTH 12 0
BBX 10 21 1 -6
BITMAP
C000
C000
C000
C000
C000
FF00
FB80
E180
C0C0
C0C0
C0C0
C0C0
C0C0
E180
FF80
DE00
C000
C000
C000
C000
4000
ENDCHAR
STARTCHAR 00FF
ENCODING 255
SWIDTH 480 0
DWIDTH 12 0
BBX 10 21 1 -5
BITMAP
1100
3B80
3380
0000
0000
C0C0
60C0
6180
3180
3180
3300
1B00
1B00
1E00
0E00
0C00
0C00
0C00
1800
7800
7000
ENDCHAR
STARTCHAR 0100
ENCODING 256
SWIDTH 640 0
DWIDTH 16 0
BBX 14 20 1 0
BITMAP
0FC0
0FC0
0000
0000
0300
0780
0780
0780
0CC0
0CC0
0CC0
1860
1FE0
1FF0
3030
3030
6018
6018
6018
C00C
ENDCHAR
STARTCHAR 0101
ENCODING 257
SWIDTH 400 0
DWIDTH 10 0
BBX 8 15 1 0
BITMAP
7E
7E
00
00
3E
3F
03
03
3F
7F
E3
C3
C3
7F
3F
ENDCHAR
STARTCHAR 0102
ENCODING 258
SWIDTH 640 0
DWIDTH 16 0
BBX 14 21 1 0
BITMAP
0840
0CC0
0780
0000
0000
0300
0780
0780
0780
0CC0
0CC0
0CC0
1860
1FE0
1FF0
3030
3030
6018
6018
6018
C00C
ENDCHAR
STARTCHAR 0103
ENCODING 259
SWIDTH 400 0
DWIDTH 10 0
BBX 8 16 1 0
BITMAP
42
66
3C
00
00
3E
3F
03
03
3F
7F
E3
C3
C3
7F
3F
ENDCHAR
STARTCHAR 0104
ENCODING 260
SWIDTH 640 0
DWIDTH 16 0
BBX 16 21 1 -5
BITMAP
0300
0780
0780
0780
0CC0
0CC0
0CC0
1860
1FE0
1FF0
3030
3030
6018
6018
6018
C00C
0010
0010
0018
000F
0004
ENDCHAR
STARTCHAR 0105
ENCODING 261
SWIDTH 400 0
DWIDTH 10 0
BBX 11 15 1 -5
BITMAP
3E00
3F00
0300
0300
3F00
7F00
E300
C300
C300
7F00
3F00
0200
0200
0300
03E0
ENDCHAR
STARTCHAR 0106
ENCODING 262
SWIDTH 560 0
DWIDTH 14 0
BBX 13 21 1 0
BITMAP
0180
0300
0200
0400
0000
0FC0
1FE0
3030
6030
6000
C000
C000
C000
C000
C000
4000
6000
6038
3070
1FE0
0FC0
ENDCHAR
STARTCHAR 0107
ENCODING 263
SWIDTH 440 0
DWIDTH 11 0
BBX 9 16 1 0
BITMAP
0600
0C00
0800
1000
0000
3F00
7B80
6180
C000
C000
C000
C000
4000
6180
3F80
1E00
ENDCHAR
STARTCHAR 0108
ENCODING 264
SWIDTH 560 0
DWIDTH 14 0
BBX 13 21 1 0
BITMAP
0700
0D00
0880
1000
0000
0FC0
1FE0
3030
6030
6000
C000
C000
C000
C000
C000
4000
6000
6038
3070
1FE0
0FC0
ENDCHAR
STARTCHAR 0109
ENCODING 265
SWIDTH 440 0
DWIDTH 11 0
BBX 9 16 1 0
BITMAP
1C00
1600
2200
0100
0000
3F00
7B80
6180
C000
C000
C000
C000
4000
6180
3F80
1E00
ENDCHAR
STARTCHAR 010A
ENCODING 266
SWIDTH 560 0
DWIDTH 14 0
BBX 13 20 1 1
BITMAP
0700
0700
0000
0000
0FC0
1FE0
3030
6030
6000
C000
C000
C000
C000
C000
4000
6000
6038
3070
1FE0
0FC0
ENDCHAR
STARTCHAR 010B
ENCODING 267
SWIDTH 440 0
DWIDTH 11 0
BBX 9 16 1 0
BITMAP
0800
1C00
0C00
0000
0000
3F00
7B80
6180
C000
C000
C000
C000
4000
6180
3F80
1E00
ENDCHAR
STARTCHAR 010C
ENCODING 268
SWIDTH 560 0
DWIDTH 14 0
BBX 13 21 1 0
BITMAP
1080
0980
0700
0700
0000
0FC0
1FE0
3030
6030
6000
C000
C000
C000
C000
C000
4000
6000
6038
3070
1FE0
0FC0
ENDCHAR
STARTCHAR 010D
ENCODING 269
SWIDTH 440 0
DWIDTH 11 0
BBX 9 16 1 0
BITMAP
2100
1200
1E00
0C00
0000
3F00
7B80
6180
C000
C000
C000
C000
4000
6180
3F80
1E00
ENDCHAR
STARTCHAR 010E
ENCODING 270
SWIDTH 600 0
DWIDTH 15 0
BBX 14 21 1 0
BITMAP
0840
0480
0780
0300
0000
FFC0
FFE0
3070
3038
3018
3018
300C
300C
300C
300C
3018
3018
3038
3070
FFE0
FF80
ENDCHAR
STARTCHAR 010F
ENCODING 271
SWIDTH 640 0
DWIDTH 16 0
BBX 14 16 1 0
BITMAP
00DC
00DC
00C4
00C4
00C8
3FD0
7BC0
61C0
C0C0
C0C0
C0C0
C0C0
40C0
61C0
3FC0
1FC0
ENDCHAR
STARTCHAR 0110
ENCODING 272
SWIDTH 600 0
DWIDTH 15 0
BBX 14 16 1 0
BITMAP
FFC0
FFE0
3070
3018
3018
3008
300C
FF0C
FF0C
300C
3008
3018
3038
3070
FFE0
FF80
ENDCHAR
STARTCHAR 0111
ENCODING 273
SWIDTH 480 0
DWIDTH 12 0
BBX 12 16 1 0
BITMAP
00C0
00C0
03F0
03F0
00C0
3FC0
7BC0
61C0
C0C0
C0C0
C0C0
C0C0
40C0
61C0
3FC0
1FC0
ENDCHAR
STARTCHAR 0112
ENCODING 274
SWIDTH 480 0
DWIDTH 12 0
BBX 10 20 1 0
BITMAP
3F00
3F00
0000
0000
FFC0
FFC0
C000
C000
C000
C000
C000
FF80
FF80
C000
C000
C000
C000
C000
FFC0
FFC0
ENDCHAR
STARTCHAR 0113
ENCODING 275
SWIDTH 480 0
DWIDTH 12 0
BBX 10 15 1 0
BITMAP
3F00
3F00
0000
0000
3F00
7B80
6180
C0C0
FFC0
FFC0
C000
6000
6180
3F80
1E00
ENDCHAR
STARTCHAR 0114
ENCODING 276
SWIDTH 480 0
DWIDTH 12 0
BBX 10 21 1 0
BITMAP
2180
3100
1F00
0000
0000
FFC0
FFC0
C000
C000
C000
C000
C000
FF80
FF80
C000
C000
C000
C000
C000
FFC0
FFC0
ENDCHAR
STARTCHAR 0115
ENCODING 277
SWIDTH 480 0
DWIDTH 12 0
BBX 10 16 1 0
BITMAP
2100
3300
1E00
0000
0000
3F00
7B80
6180
C0C0
FFC0
FFC0
C000
6000
6180
3F80
1E00
ENDCHAR
STARTCHAR 0116
ENCODING 278
SWIDTH 480 0
DWIDTH 12 0
BBX 10 21 1 0
BITMAP
0400
0E00
0C00
0000
0000
FFC0
FFC0
C000
C000
C000
C000
C000
FF80
FF80
C000
C000
C000
C000
C000
FFC0
FFC0
ENDCHAR
STARTCHAR 0117
ENCODING 279
SWIDTH 480 0
DWIDTH 12 0
BBX 10 15 1 1
BITMAP
0C00
0C00
0000
0000
3F00
7B80
6180
C0C0
FFC0
FFC0
C000
6000
6180
3F80
1E00
ENDCHAR
STARTCHAR 0118
ENCODING 280
SWIDTH 480 0
DWIDTH 12 0
BBX 11 21 1 -5
BITMAP
FFC0
FFC0
C000
C000
C000
C000
C000
FF80
FF80
C000
C000
C000
C000
C000
FFC0
FFC0
0100
0300
0300
01E0
0040
ENDCHAR
STARTCHAR 0119
ENCODING 281
SWIDTH 480 0
DWIDTH 12 0
BBX 10 16 1 -5
BITMAP
3F00
7B80
6180
C0C0
FFC0
FFC0
C000
6000
6180
3F80
1E00
0400
0C00
0C00
0780
0100
ENDCHAR
STARTCHAR 011A
ENCODING 282
SWIDTH 480 0
DWIDTH 12 0
BBX 10 21 1 0
BITMAP
2100
1300
0E00
0E00
0000
FFC0
FFC0
C000
C000
C000
C000
C000
FF80
FF80
C000
C000
C000
C000
C000
FFC0
FFC0
ENDCHAR
STARTCHAR 011B
ENCODING 283
SWIDTH 480 0
DWIDTH 12 0
BBX 10 16 1 0
BITMAP
2100
1200
1E00
0C00
0000
3F00
7B80
6180
C0C0
FFC0
FFC0
C000
6000
6180
3F80
1E00
ENDCHAR
STARTCHAR 011C
ENCODING 284
SWIDTH 560 0
DWIDTH 14 0
BBX 13 21 1 0
BITMAP
0700
0D00
0880
1000
0000
0FC0
1FE0
3030
6030
6000
C000
C000
C3F8
C3F8
C018
4018
6018
6038
3070
1FE0
0FC0
ENDCHAR
STARTCHAR 011D
ENCODING 285
SWIDTH 480 0
DWIDTH 12 0
BBX 12 21 1 -5
BITMAP
0E00
1E00
3100
2000
0000
3F70
73E0
E0C0
C0C0
C0C0
61C0
7F80
7F00
6000
7C00
1F80
01C0
C0C0
E0C0
7F80
3F00
ENDCHAR
STARTCHAR 011E
ENCODING 286
SWIDTH 560 0
DWIDTH 14 0
BBX 13 21 1 0
BITMAP
18C0
1880
0F80
0000
0000
0FC0
1FE0
3030
6030
6000
C000
C000
C3F8
C3F8
C018
4018
6018
6038
3070
1FE0
0FC0
ENDCHAR
STARTCHAR 011F
ENCODING 287
SWIDTH 480 0
DWIDTH 12 0
BBX 12 21 1 -5
BITMAP
2100
3300
1E00
0000
0000
3F70
73E0
E0C0
C0C0
C0C0
61C0
7F80
7F00
6000
7C00
1F80
01C0
C0C0
E0C0
7F80
3F00
ENDCHAR
STARTCHAR 0120
ENCODING 288
SWIDTH 560 0
DWIDTH 14 0
BBX 13 20 1 1
BITMAP
0700
0700
0000
0000
0FC0
1FE0
3030
6030
6000
C000
C000
C3F8
C3F8
C018
4018
6018
6038
3070
1FE0
0FC0
ENDCHAR
STARTCHAR 0121
ENCODING 289
SWIDTH 480 0
DWIDTH 12 0
BBX 12 20 1 -4
BITMAP
0C00
0C00
0000
0000
3F70
73E0
E0C0
C0C0
C0C0
61C0
7F80
7F00
6000
7C00
1F80
01C0
C0C0
E0C0
7F80
3F00
ENDCHAR
STARTCHAR 0122
ENCODING 290
SWIDTH 560 0
DWIDTH 14 0
BBX 13 21 1 -5
BITMAP
0FC0
1FE0
3030
6030
6000
C000
C000
C3F8
C3F8
C018
4018
6018
6038
3070
1FE0
0FC0
0200
0380
0080
0080
0700
ENDCHAR
STARTCHAR 0123
ENCODING 291
SWIDTH 480 0
DWIDTH 12 0
BBX 12 23 1 -5
BITMAP
0600
1E00
1000
1800
0C00
0400
0000
3F70
73E0
E0C0
C0C0
C0C0
61C0
7F80
7F00
6000
7C00
1F80
01C0
C0C0
E0C0
7F80
3F00
ENDCHAR
STARTCHAR 0124
ENCODING 292
SWIDTH 480 0
DWIDTH 12 0
BBX 10 21 1 0
BITMAP
0E00
1A00
1100
2000
0000
C040
C040
C040
C040
C040
C040
C040
FFC0
FFC0
C040
C040
C040
C040
C040
C040
C040
ENDCHAR
STARTCHAR 0125
ENCODING 293
SWIDTH 480 0
DWIDTH 12 0
BBX 10 21 1 0
BITMAP
0C00
1E00
1200
2100
0000
C000
C000
C000
C000
C000
DF00
FB80
E180
E0C0
C0C0
C0C0
C0C0
C0C0
C0C0
C0C0
C0C0
ENDCHAR
STARTCHAR 0126
ENCODING 294
SWIDTH 640 0
DWIDTH 16 0
BBX 14 16 1 0
BITMAP
3030
3030
FFFC
FFFC
3030
3030
3030
3FF0
3FF0
3030
3030
3030
3030
3030
3030
3030
ENDCHAR
STARTCHAR 0127
ENCODING 295
SWIDTH 560 0
DWIDTH 14 0
BBX 12 16 1 0
BITMAP
3000
3000
FFC0
FFC0
3000
3FC0
3EE0
3860
3030
3030
3030
3030
3030
3030
3030
3030
ENDCHAR
STARTCHAR 0128
ENCODING 296
SWIDTH 280 0
DWIDTH 7 0
BBX 8 21 0 0
BITMAP
61
F9
8F
00
00
7E
7E
18
18
18
18
18
18
18
18
18
18
18
18
7E
7E
ENDCHAR
STARTCHAR 0129
ENCODING 297
SWIDTH 160 0
DWIDTH 4 0
BBX 8 16 -2 0
BITMAP
61
F9
8F
00
00
18
18
18
18
18
18
18
18
18
18
18
ENDCHAR
STARTCHAR 012A
ENCODING 298
SWIDTH 280 0
DWIDTH 7 0
BBX 6 20 1 0
BITMAP
FC
FC
00
00
FC
FC
30
30
30
30
30
30
30
30
30
30
30
30
FC
FC
ENDCHAR
STARTCHAR 012B
ENCODING 299
SWIDTH 160 0
DWIDTH 4 0
BBX 6 15 -1 0
BITMAP
FC
FC
00
00
30
30
30
30
30
30
30
30
30
30
30
ENDCHAR
STARTCHAR 012C
ENCODING 300
SWIDTH 280 0
DWIDTH 7 0
BBX 6 21 1 0
BITMAP
84
CC
78
00
00
FC
FC
30
30
30
30
30
30
30
30
30
30
30
30
FC
FC
ENDCHAR
STARTCHAR 012D
ENCODING 301
SWIDTH 160 0
DWIDTH 4 0
BBX 7 16 -1 0
BITMAP
86
CC
78
00
00
30
30
30
30
30
30
30
30
30
30
30
ENDCHAR
STARTCHAR 012E
ENCODING 302
SWIDTH 280 0
DWIDTH 7 0
BBX 7 20 1 -5
BITMAP
FC
FC
30
30
30
30
30
30
30
30
30
30
30
30
FC
FC
20
30
30
1E
ENDCHAR
STARTCHAR 012F
ENCODING 303
SWIDTH 160 0
DWIDTH 4 0
BBX 5 19 1 -4
BITMAP
C0
C0
00
00
C0
C0
C0
C0
C0
C0
C0
C0
C0
C0
C0
80
C0
C0
78
ENDCHAR
STARTCHAR 0130
ENCODING 304
SWIDTH 280 0
DWIDTH 7 0
BBX 6 20 1 1
BITMAP
30
30
00
00
FC
FC
30
30
30
30
30
30
30
30
30
30
30
30
FC
FC
ENDCHAR
STARTCHAR 0131
ENCODING 305
SWIDTH 160 0
DWIDTH 4 0
BBX 2 11 1 0
BITMAP
C0
C0
C0
C0
C0
C0
C0
C0
C0
C0
C0
ENDCHAR
STARTCHAR 0132
ENCODING 306
SWIDTH 600 0
DWIDTH 15 0
BBX 14 16 1 0
BITMAP
FC0C
FC0C
300C
300C
300C
300C
300C
300C
300C
300C
300C
300C
300C
318C
FDF8
FCF0
ENDCHAR
STARTCHAR 0133
ENCODING 307
SWIDTH 320 0
DWIDTH 8 0
BBX 7 21 1 -5
BITMAP
04
CE
CC
00
00
CC
CC
CC
CC
CC
CC
CC
CC
CC
CC
CC
0C
0C
0C
7C
78
ENDCHAR
STARTCHAR 0134
ENCODING 308
SWIDTH 360 0
DWIDTH 9 0
BBX 9 21 1 0
BITMAP
0700
0F00
0980
1080
0000
0600
0600
0600
0600
0600
0600
0600
0600
0600
0600
0600
0600
0600
C600
7E00
7C00
ENDCHAR
STARTCHAR 0135
ENCODING 309
SWIDTH 160 0
DWIDTH 4 0
BBX 7 21 -2 -5
BITMAP
1C
34
22
40
00
18
18
18
18
18
18
18
18
18
18
18
18
18
18
F8
F0
ENDCHAR
STARTCHAR 0136
ENCODING 310
SWIDTH 520 0
DWIDTH 13 0
BBX 11 21 1 -5
BITMAP
C1C0
C180
C300
C700
C600
CC00
D800
F800
FC00
E600
E600
C300
C180
C1C0
C0C0
C060
0800
0E00
0300
0200
1E00
ENDCHAR
STARTCHAR 0137
ENCODING 311
SWIDTH 400 0
DWIDTH 10 0
BBX 8 21 1 -5
BITMAP
C0
C0
C0
C0
C0
C6
CC
DC
D8
F0
F8
FC
CC
C6
C7
C3
10
1C
06
04
3C
ENDCHAR
STARTCHAR 0138
ENCODING 312
SWIDTH 400 0
DWIDTH 10 0
BBX 8 11 1 0
BITMAP
C6
CC
DC
D8
F0
F8
FC
CC
C6
C7
C3
ENDCHAR
STARTCHAR 0139
ENCODING 313
SWIDTH 480 0
DWIDTH 12 0
BBX 10 21 1 0
BITMAP
0300
0600
0400
0800
0000
C000
C000
C000
C000
C000
C000
C000
C000
C000
C000
C000
C000
C000
C000
FFC0
FFC0
ENDCHAR
STARTCHAR 013A
ENCODING 314
SWIDTH 240 0
DWIDTH 6 0
BBX 4 21 1 0
BITMAP
30
60
40
80
00
C0
C0
C0
C0
C0
C0
C0
C0
C0
C0
C0
C0
C0
C0
F0
70
ENDCHAR
STARTCHAR 013B
ENCODING 315
SWIDTH 480 0
DWIDTH 12 0
BBX 10 21 1 -5
BITMAP
C000
C000
C000
C000
C000
C000
C000
C000
C000
C000
C000
C000
C000
C000
FFC0
FFC0
0400
0E00
0100
0300
1E00
ENDCHAR
STARTCHAR 013C
ENCODING 316
SWIDTH 240 0
DWIDTH 6 0
BBX 5 21 1 -5
BITMAP
C0
C0
C0
C0
C0
C0
C0
C0
C0
C0
C0
C0
C0
C0
F0
70
60
70
18
10
F0
ENDCHAR
STARTCHAR 013D
ENCODING 317
SWIDTH 480 0
DWIDTH 12 0
BBX 10 16 1 0
BITMAP
CE00
CE00
C200
C200
C400
C800
C000
C000
C000
C000
C000
C000
C000
C000
FFC0
FFC0
ENDCHAR
STARTCHAR 013E
ENCODING 318
SWIDTH 240 0
DWIDTH 6 0
BBX 7 16 1 0
BITMAP
DC
DC
C6
C4
C4
D8
C0
C0
C0
C0
C0
C0
C0
C0
F0
70
ENDCHAR
STARTCHAR 013F
ENCODING 319
SWIDTH 480 0
DWIDTH 12 0
BBX 10 16 1 0
BITMAP
C000
C000
C000
C000
C000
C000
C000
C600
C600
C000
C000
C000
C000
C000
FFC0
FFC0
ENDCHAR
STARTCHAR 0140
ENCODING 320
SWIDTH 320 0
DWIDTH 8 0
BBX 6 16 1 0
BITMAP
C0
C0
C0
C0
C0
C0
C0
CC
CC
C0
C0
C0
C0
C0
F0
70
ENDCHAR
STARTCHAR 0141
ENCODING 321
SWIDTH 600 0
DWIDTH 15 0
BBX 13 16 1 0
BITMAP
1800
1800
1800
1800
1800
1800
1E00
3E00
F800
D800
1800
1800
1800
1800
1FF8
1FF8
ENDCHAR
STARTCHAR 0142
ENCODING 322
SWIDTH 360 0
DWIDTH 9 0
BBX 7 16 1 0
BITMAP
18
18
18
18
18
18
1E
3E
F8
D8
18
18
18
18
1C
1C
ENDCHAR
STARTCHAR 0143
ENCODING 323
SWIDTH 600 0
DWIDTH 15 0
BBX 13 21 1 0
BITMAP
0180
0300
0200
0400
0000
C018
E018
F018
F818
D818
CC18
CE18
C618
C318
C198
C1D8
C0D8
C078
C078
C038
C018
ENDCHAR
STARTCHAR 0144
ENCODING 324
SWIDTH 480 0
DWIDTH 12 0
BBX 10 16 1 0
BITMAP
0600
0400
0800
0000
0000
DF00
FB80
E180
E0C0
C0C0
C0C0
C0C0
C0C0
C0C0
C0C0
C0C0
ENDCHAR
STARTCHAR 0145
ENCODING 325
SWIDTH 600 0
DWIDTH 15 0
BBX 13 21 1 -5
BITMAP
C018
E018
F018
F818
D818
CC18
CE18
C618
C318
C198
C1D8
C0D8
C078
C078
C038
C018
0200
0700
0080
0180
0F00
ENDCHAR
STARTCHAR 0146
ENCODING 326
SWIDTH 480 0
DWIDTH 12 0
BBX 10 16 1 -5
BITMAP
DF00
FB80
E180
E0C0
C0C0
C0C0
C0C0
C0C0
C0C0
C0C0
C0C0
0C00
0E00
0300
0300
1E00
ENDCHAR
STARTCHAR 0147
ENCODING 327
SWIDTH 600 0
DWIDTH 15 0
BBX 13 21 1 0
BITMAP
0880
0C80
0700
0700
0000
C018
E018
F018
F818
D818
CC18
CE18
C618
C318
C198
C1D8
C0D8
C078
C078
C038
C018
ENDCHAR
STARTCHAR 0148
ENCODING 328
SWIDTH 480 0
DWIDTH 12 0
BBX 10 16 1 0
BITMAP
2100
1200
1E00
0C00
0000
DF00
FB80
E180
E0C0
C0C0
C0C0
C0C0
C0C0
C0C0
C0C0
C0C0
ENDCHAR
STARTCHAR 0149
ENCODING 329
SWIDTH 560 0
DWIDTH 14 0
BBX 12 16 1 0
BITMAP
E000
E000
3000
2000
2000
D7E0
1E60
1C30
1830
1810
1010
1010
1010
1010
1010
1010
ENDCHAR
STARTCHAR 014A
ENCODING 330
SWIDTH 560 0
DWIDTH 14 0
BBX 12 16 1 0
BITMAP
CF80
FDC0
F060
E060
E030
C030
C030
C030
C030
C030
C030
C030
C030
C030
C1E0
C3E0
ENDCHAR
STARTCHAR 014B
ENCODING 331
SWIDTH 480 0
DWIDTH 12 0
BBX 10 16 1 -5
BITMAP
DF00
FB80
E180
E0C0
C0C0
C0C0
C0C0
C0C0
C0C0
C0C0
C0C0
00C0
00C0
00C0
0780
0780
ENDCHAR
STARTCHAR 014C
ENCODING 332
SWIDTH 600 0
DWIDTH 15 0
BBX 14 20 1 0
BITMAP
0FC0
0FC0
0000
0000
0FC0
1FE0
3030
6038
6018
C018
C00C
C00C
C00C
C00C
4018
6018
6038
3070
1FE0
0FC0
ENDCHAR
STARTCHAR 014D
ENCODING 333
SWIDTH 480 0
DWIDTH 12 0
BBX 10 15 1 0
BITMAP
3F00
3F00
0000
0000
3F00
7B80
6180
C0C0
C0C0
C0C0
C0C0
40C0
6180
3F80
1E00
ENDCHAR
STARTCHAR 014E
ENCODING 334
SWIDTH 600 0
DWIDTH 15 0
BBX 14 21 1 0
BITMAP
0840
0CC0
0780
0000
0000
0FC0
1FE0
3030
6038
6018
C018
C00C
C00C
C00C
C00C
4018
6018
6038
3070
1FE0
0FC0
ENDCHAR
STARTCHAR 014F
ENCODING 335
SWIDTH 480 0
DWIDTH 12 0
BBX 10 16 1 0
BITMAP
2100
3300
1E00
0000
0000
3F00
7B80
6180
C0C0
C0C0
C0C0
C0C0
40C0
6180
3F80
1E00
ENDCHAR
STARTCHAR 0150
ENCODING 336
SWIDTH 600 0
DWIDTH 15 0
BBX 14 21 1 0
BITMAP
0370
0660
04C0
0880
0000
0FC0
1FE0
3030
6038
6018
C018
C00C
C00C
C00C
C00C
4018
6018
6038
3070
1FE0
0FC0
ENDCHAR
STARTCHAR 0151
ENCODING 337
SWIDTH 480 0
DWIDTH 12 0
BBX 10 16 1 0
BITMAP
0CC0
1980
1100
2200
0000
3F00
7B80
6180
C0C0
C0C0
C0C0
C0C0
40C0
6180
3F80
1E00
ENDCHAR
STARTCHAR 0152
ENCODING 338
SWIDTH 960 0
DWIDTH 24 0
BBX 22 16 1 0
BITMAP
0FCFFC
1FEFFC
303C00
603C00
601C00
C01C00
C00C00
C00FF8
C00FF8
C00C00
401C00
601C00
603C00
307C00
1FEFFC
0FCFFC
ENDCHAR
STARTCHAR 0153
ENCODING 339
SWIDTH 800 0
DWIDTH 20 0
BBX 18 11 1 0
BITMAP
3F3F00
7BF380
61E180
C0C0C0
C0FFC0
C0FFC0
C0C000
40C000
61E180
3FBF80
1F1E00
ENDCHAR
STARTCHAR 0154
ENCODING 340
SWIDTH 520 0
DWIDTH 13 0
BBX 11 21 1 0
BITMAP
0600
0400
0800
0000
0000
FE00
FF80
C180
C0C0
C0C0
C0C0
C180
FF80
FE00
C600
C300
C180
C180
C0C0
C0C0
C060
ENDCHAR
STARTCHAR 0155
ENCODING 341
SWIDTH 320 0
DWIDTH 8 0
BBX 6 16 1 0
BITMAP
1C
10
20
00
00
DC
F8
E0
C0
C0
C0
C0
C0
C0
C0
C0
ENDCHAR
STARTCHAR 0156
ENCODING 342
SWIDTH 480 0
DWIDTH 12 0
BBX 11 21 1 -5
BITMAP
FE00
FF80
C180
C0C0
C0C0
C0C0
C180
FF80
FE00
C600
C300
C180
C180
C0C0
C0C0
C060
0C00
0E00
0300
0300
1E00
ENDCHAR
STARTCHAR 0157
ENCODING 343
SWIDTH 320 0
DWIDTH 8 0
BBX 7 16 0 -5
BITMAP
6E
7C
70
60
60
60
60
60
60
60
60
60
70
18
18
F0
ENDCHAR
STARTCHAR 0158
ENCODING 344
SWIDTH 520 0
DWIDTH 13 0
BBX 11 21 1 0
BITMAP
2100
1200
1E00
0C00
0000
FE00
FF80
C180
C0C0
C0C0
C0C0
C180
FF80
FE00
C600
C300
C180
C180
C0C0
C0C0
C060
ENDCHAR
STARTCHAR 0159
ENCODING 345
SWIDTH 320 0
DWIDTH 8 0
BBX 6 16 1 0
BITMAP
84
4C
38
38
00
DC
F8
E0
C0
C0
C0
C0
C0
C0
C0
C0
ENDCHAR
STARTCHAR 015A
ENCODING 346
SWIDTH 480 0
DWIDTH 12 0
BBX 10 21 1 0
BITMAP
0600
0400
0800
0000
0000
3F00
3F80
6180
6080
6000
6000
3800
1E00
0780
0180
00C0
C0C0
C0C0
61C0
7F80
3F00
ENDCHAR
STARTCHAR 015B
ENCODING 347
SWIDTH 360 0
DWIDTH 9 0
BBX 8 16 1 0
BITMAP
0C
08
10
20
00
7C
6E
46
60
78
1E
06
03
C6
7E
3C
ENDCHAR
STARTCHAR 015C
ENCODING 348
SWIDTH 480 0
DWIDTH 12 0
BBX 10 21 1 0
BITMAP
0E00
1E00
1300
2100
0000
3F00
3F80
6180
6080
6000
6000
3800
1E00
0780
0180
00C0
C0C0
C0C0
61C0
7F80
3F00
ENDCHAR
STARTCHAR 015D
ENCODING 349
SWIDTH 360 0
DWIDTH 9 0
BBX 8 16 1 0
BITMAP
38
2C
44
02
00
7C
6E
46
60
78
1E
06
03
C6
7E
3C
ENDCHAR
STARTCHAR 015E
ENCODING 350
SWIDTH 480 0
DWIDTH 12 0
BBX 10 21 1 -5
BITMAP
3F00
3F80
6180
6080
6000
6000
3800
1E00
0780
0180
00C0
C0C0
C0C0
61C0
7F80
1F00
0800
0E00
0300
0200
1E00
ENDCHAR
STARTCHAR 015F
ENCODING 351
SWIDTH 360 0
DWIDTH 9 0
BBX 8 16 1 -5
BITMAP
3C
7E
46
60
78
1E
06
03
C6
7E
3C
10
1C
04
04
78
ENDCHAR
STARTCHAR 0160
ENCODING 352
SWIDTH 480 0
DWIDTH 12 0
BBX 10 21 1 0
BITMAP
2100
1200
1E00
0C00
0000
3F00
3F80
6180
6080
6000
6000
3800
1E00
0780
0180
00C0
C0C0
C0C0
61C0
7F80
3F00
ENDCHAR
STARTCHAR 0161
ENCODING 353
SWIDTH 360 0
DWIDTH 9 0
BBX 8 16 1 0
BITMAP
42
24
3C
18
00
7C
6E
46
60
78
1E
06
03
C6
7E
3C
ENDCHAR
STARTCHAR 0162
ENCODING 354
SWIDTH 480 0
DWIDTH 12 0
BBX 10 21 1 -5
BITMAP
FFC0
FFC0
0C00
0C00
0C00
0C00
0C00
0C00
0C00
0C00
0C00
0C00
0C00
0C00
0C00
0C00
0400
0E00
0100
0300
1E00
ENDCHAR
STARTCHAR 0163
ENCODING 355
SWIDTH 320 0
DWIDTH 8 0
BBX 6 19 1 -5
BITMAP
30
30
30
FC
FC
30
30
30
30
30
30
30
3C
1C
10
1C
04
04
78
ENDCHAR
STARTCHAR 0164
ENCODING 356
SWIDTH 480 0
DWIDTH 12 0
BBX 10 21 1 0
BITMAP
2100
1300
0E00
0E00
0000
FFC0
FFC0
0C00
0C00
0C00
0C00
0C00
0C00
0C00
0C00
0C00
0C00
0C00
0C00
0C00
0C00
ENDCHAR
STARTCHAR 0165
ENCODING 357
SWIDTH 480 0
DWIDTH 12 0
BBX 10 16 1 0
BITMAP
01C0
01C0
1040
3040
3080
FD00
FC00
3000
3000
3000
3000
3000
3000
3000
3C00
1C00
ENDCHAR
STARTCHAR 0166
ENCODING 358
SWIDTH 480 0
DWIDTH 12 0
BBX 10 16 1 0
BITMAP
FFC0
FFC0
0C00
0C00
0C00
0C00
0C00
7FC0
7FC0
0C00
0C00
0C00
0C00
0C00
0C00
0C00
ENDCHAR
STARTCHAR 0167
ENCODING 359
SWIDTH 320 0
DWIDTH 8 0
BBX 6 14 1 0
BITMAP
30
30
30
FC
FC
30
30
FC
FC
30
30
30
3C
1C
ENDCHAR
STARTCHAR 0168
ENCODING 360
SWIDTH 560 0
DWIDTH 14 0
BBX 12 21 1 0
BITMAP
1820
3E40
23C0
0000
0000
C010
C010
C010
C010
C010
C010
C010
C010
C010
C010
C010
C030
6030
7060
3FE0
1F80
ENDCHAR
STARTCHAR 0169
ENCODING 361
SWIDTH 480 0
DWIDTH 12 0
BBX 10 16 1 0
BITMAP
3080
7C80
4780
0000
0000
C0C0
C0C0
C0C0
C0C0
C0C0
C0C0
C0C0
C0C0
61C0
7FC0
3EC0
ENDCHAR
STARTCHAR 016A
ENCODING 362
SWIDTH 560 0
DWIDTH 14 0
BBX 12 20 1 0
BITMAP
1F80
1F80
0000
0000
C010
C010
C010
C010
C010
C010
C010
C010
C010
C010
C010
C030
6030
7060
3FE0
1F80
ENDCHAR
STARTCHAR 016B
ENCODING 363
SWIDTH 480 0
DWIDTH 12 0
BBX 10 15 1 0
BITMAP
3F00
3F00
0000
0000
C0C0
C0C0
C0C0
C0C0
C0C0
C0C0
C0C0
C0C0
61C0
7FC0
3EC0
ENDCHAR
STARTCHAR 016C
ENCODING 364
SWIDTH 560 0
DWIDTH 14 0
BBX 12 21 1 0
BITMAP
10C0
1880
0F80
0000
0000
C010
C010
C010
C010
C010
C010
C010
C010
C010
C010
C010
C030
6030
7060
3FE0
1F80
ENDCHAR
STARTCHAR 016D
ENCODING 365
SWIDTH 480 0
DWIDTH 12 0
BBX 10 16 1 0
BITMAP
2100
3300
1E00
0000
0000
C0C0
C0C0
C0C0
C0C0
C0C0
C0C0
C0C0
C0C0
61C0
7FC0
3EC0
ENDCHAR
STARTCHAR 016E
ENCODING 366
SWIDTH 560 0
DWIDTH 14 0
BBX 12 21 1 0
BITMAP
0700
0900
0D00
0700
0000
C010
C010
C010
C010
C010
C010
C010
C010
C010
C010
C010
C030
6030
7060
3FE0
1F80
ENDCHAR
STARTCHAR 016F
ENCODING 367
SWIDTH 480 0
DWIDTH 12 0
BBX 10 16 1 0
BITMAP
1E00
1200
1E00
0C00
0000
C0C0
C0C0
C0C0
C0C0
C0C0
C0C0
C0C0
C0C0
61C0
7FC0
3EC0
ENDCHAR
STARTCHAR 0170
ENCODING 368
SWIDTH 560 0
DWIDTH 14 0
BBX 12 21 1 0
BITMAP
0660
04C0
0880
0100
0000
C010
C010
C010
C010
C010
C010
C010
C010
C010
C010
C010
C030
6030
7060
3FE0
1F80
ENDCHAR
STARTCHAR 0171
ENCODING 369
SWIDTH 480 0
DWIDTH 12 0
BBX 10 16 1 0
BITMAP
0CC0
1980
1100
2200
0000
C0C0
C0C0
C0C0
C0C0
C0C0
C0C0
C0C0
C0C0
61C0
7FC0
3EC0
ENDCHAR
STARTCHAR 0172
ENCODING 370
SWIDTH 560 0
DWIDTH 14 0
BBX 12 20 1 -5
BITMAP
C010
C010
C010
C010
C010
C010
C010
C010
C010
C010
C010
C030
6030
7060
3FE0
1F80
0200
0200
0300
03E0
ENDCHAR
STARTCHAR 0173
ENCODING 371
SWIDTH 480 0
DWIDTH 12 0
BBX 12 16 1 -5
BITMAP
C0C0
C0C0
C0C0
C0C0
C0C0
C0C0
C0C0
C0C0
61C0
7FC0
3EC0
0100
0180
0180
00F0
0040
ENDCHAR
STARTCHAR 0174
ENCODING 372
SWIDTH 840 0
DWIDTH 21 0
BBX 19 21 1 0
BITMAP
00E000
00B000
011000
000800
000000
C06060
60E060
60E060
60F040
60F0C0
31B0C0
3198C0
319980
111980
1B1980
1B0D80
1B0F00
0E0F00
0E0700
0E0700
0E0600
ENDCHAR
STARTCHAR 0175
ENCODING 373
SWIDTH 640 0
DWIDTH 16 0
BBX 14 16 1 0
BITMAP
0380
0680
0440
0800
0000
C30C
638C
6788
6798
6698
36D8
3CF0
3CF0
1C70
1C70
1860
ENDCHAR
STARTCHAR 0176
ENCODING 374
SWIDTH 600 0
DWIDTH 15 0
BBX 12 21 2 0
BITMAP
0600
0F00
1900
1080
0000
C030
E070
6060
30C0
39C0
1980
0F00
0600
0600
0600
0600
0600
0600
0600
0600
0600
ENDCHAR
STARTCHAR 0177
ENCODING 375
SWIDTH 480 0
DWIDTH 12 0
BBX 10 21 1 -5
BITMAP
0E00
1A00
1100
2000
0000
C0C0
60C0
6180
3180
3180
3300
1B00
1B00
1E00
0E00
0C00
0C00
0C00
1800
7800
7000
ENDCHAR
STARTCHAR 0178
ENCODING 376
SWIDTH 600 0
DWIDTH 15 0
BBX 12 20 2 1
BITMAP
1980
1980
0000
0000
C030
E070
6060
30C0
39C0
1980
0F00
0600
0600
0600
0600
0600
0600
0600
0600
0600
ENDCHAR
STARTCHAR 0179
ENCODING 377
SWIDTH 520 0
DWIDTH 13 0
BBX 11 21 1 0
BITMAP
0300
0600
0400
0800
0000
FFE0
FFE0
00E0
00C0
0180
0380
0300
0600
0C00
1C00
1800
3000
7000
6000
FFE0
FFE0
ENDCHAR
STARTCHAR 017A
ENCODING 378
SWIDTH 400 0
DWIDTH 10 0
BBX 8 16 1 0
BITMAP
0C
08
10
00
00
FF
FF
06
0C
1C
18
30
70
60
FF
FF
ENDCHAR
STARTCHAR 017B
ENCODING 379
SWIDTH 520 0
DWIDTH 13 0
BBX 11 20 1 1
BITMAP
0E00
0600
0000
0000
FFE0
FFE0
00E0
00C0
0180
0380
0300
0600
0C00
1C00
1800
3000
7000
6000
FFE0
FFE0
ENDCHAR
STARTCHAR 017C
ENCODING 380
SWIDTH 400 0
DWIDTH 10 0
BBX 8 15 1 1
BITMAP
18
18
00
00
FF
FF
06
0C
1C
18
30
70
60
FF
FF
ENDCHAR
STARTCHAR 017D
ENCODING 381
SWIDTH 520 0
DWIDTH 13 0
BBX 11 21 1 0
BITMAP
1080
1900
0F00
0E00
0000
FFE0
FFE0
00E0
00C0
0180
0380
0300
0600
0C00
1C00
1800
3000
7000
6000
FFE0
FFE0
ENDCHAR
STARTCHAR 017E
ENCODING 382
SWIDTH 400 0
DWIDTH 10 0
BBX 8 16 1 0
BITMAP
42
24
3C
18
00
FF
FF
06
0C
1C
18
30
70
60
FF
FF
ENDCHAR
STARTCHAR 017F
ENCODING 383
SWIDTH 160 0
DWIDTH 4 0
BBX 6 21 1 -6
BITMAP
7C
78
C0
C0
C0
C0
C0
C0
C0
C0
C0
C0
C0
C0
C0
C0
C0
C0
C0
C0
40
ENDCHAR
STARTCHAR 0180
ENCODING 384
SWIDTH 480 0
DWIDTH 12 0
BBX 12 16 -1 0
BITMAP
3000
3000
FE00
FE00
3000
3FC0
3EE0
3860
3030
3030
3030
3030
3030
3860
3FE0
3780
ENDCHAR
STARTCHAR 0181
ENCODING 385
SWIDTH 680 0
DWIDTH 17 0
BBX 15 16 1 0
BITMAP
3FF8
7FFC
C60C
C606
C606
060E
07FC
07FC
061C
0606
0606
0602
0606
060E
07FC
07F8
ENDCHAR
STARTCHAR 0182
ENCODING 386
SWIDTH 480 0
DWIDTH 12 0
BBX 10 16 1 0
BITMAP
FF80
FF80
C000
C000
C000
C000
FC00
FF80
C1C0
C0C0
C040
C040
C0C0
C0C0
FF80
FF00
ENDCHAR
STARTCHAR 0183
ENCODING 387
SWIDTH 480 0
DWIDTH 12 0
BBX 10 16 1 0
BITMAP
FF80
FF80
C000
C000
C000
FF00
FB80
E180
C0C0
C0C0
C0C0
C0C0
C0C0
E180
FF80
DE00
ENDCHAR
STARTCHAR 0184
ENCODING 388
SWIDTH 680 0
DWIDTH 17 0
BBX 14 16 2 0
BITMAP
1800
3800
7800
E800
C800
0800
0F80
0FF0
0838
0818
080C
080C
080C
0818
0FF0
0FE0
ENDCHAR
STARTCHAR 0185
ENCODING 389
SWIDTH 480 0
DWIDTH 12 0
BBX 10 11 2 0
BITMAP
3000
7000
F000
B000
3F00
3F80
30C0
30C0
3180
3F80
3F00
ENDCHAR
STARTCHAR 0186
ENCODING 390
SWIDTH 560 0
DWIDTH 14 0
BBX 13 16 1 0
BITMAP
1F80
3FC0
60E0
C070
0030
0030
0010
0018
0018
0010
0030
0030
C060
60E0
3FC0
1F80
ENDCHAR
STARTCHAR 0187
ENCODING 391
SWIDTH 560 0
DWIDTH 14 0
BBX 16 20 1 0
BITMAP
000F
001F
0018
0018
0FD8
1FF8
3038
6030
6000
C000
C000
C000
C000
C000
4000
6000
6038
3070
1FE0
0FC0
ENDCHAR
STARTCHAR 0188
ENCODING 392
SWIDTH 440 0
DWIDTH 11 0
BBX 13 16 1 0
BITMAP
0078
00F8
00C0
0080
0080
3F80
7B80
6180
C000
C000
C000
C000
4000
6180
3F80
1E00
ENDCHAR
STARTCHAR 0189
ENCODING 393
SWIDTH 600 0
DWIDTH 15 0
BBX 14 16 1 0
BITMAP
FFC0
FFE0
3070
3018
3018
3008
300C
FF0C
FF0C
300C
3008
3018
3038
3070
FFE0
FF80
ENDCHAR
STARTCHAR 018A
ENCODING 394
SWIDTH 720 0
DWIDTH 18 0
BBX 17 16 1 0
BITMAP
3FF800
7FFC00
C60E00
C60700
C60300
060300
060180
060180
060180
060180
060300
060300
060700
060E00
1FFC00
1FF000
ENDCHAR
STARTCHAR 018B
ENCODING 395
SWIDTH 480 0
DWIDTH 12 0
BBX 10 16 1 0
BITMAP
3FC0
3FC0
0040
0040
0040
0040
07C0
3FC0
7040
6040
C040
C040
C040
6040
3FC0
1FC0
ENDCHAR
STARTCHAR 018C
ENCODING 396
SWIDTH 480 0
DWIDTH 12 0
BBX 10 16 1 0
BITMAP
7FC0
7FC0
00C0
00C0
00C0
3FC0
7BC0
61C0
C0C0
C0C0
C0C0
C0C0
40C0
61C0
3FC0
1FC0
ENDCHAR
STARTCHAR 018D
ENCODING 397
SWIDTH 480 0
DWIDTH 12 0
BBX 10 16 1 -5
BITMAP
3F00
7B80
6180
C0C0
C0C0
C0C0
C0C0
60C0
7180
3F80
1E00
0E00
0600
6600
7E00
3C00
ENDCHAR
STARTCHAR 018E
ENCODING 398
SWIDTH 480 0
DWIDTH 12 0
BBX 10 16 1 0
BITMAP
FFC0
FFC0
0040
0040
0040
0040
0040
3FC0
3FC0
0040
0040
0040
0040
0040
FFC0
FFC0
ENDCHAR
STARTCHAR 018F
ENCODING 399
SWIDTH 600 0
DWIDTH 15 0
BBX 14 16 1 0
BITMAP
0FC0
1FE0
3030
0038
0018
0018
000C
FFFC
FFFC
C00C
4018
6018
6038
3070
1FE0
0FC0
ENDCHAR
STARTCHAR 0190
ENCODING 400
SWIDTH 480 0
DWIDTH 12 0
BBX 11 16 1 0
BITMAP
3F00
7F80
E0C0
C0C0
C000
E000
7C00
3C00
7000
C000
C000
8060
C0C0
C0C0
7F80
3F00
ENDCHAR
STARTCHAR 0191
ENCODING 401
SWIDTH 480 0
DWIDTH 12 0
BBX 13 21 -2 -5
BITMAP
1FF8
1FF8
1800
1800
1800
1800
1800
1FF0
1FF0
1800
1800
1800
1800
1800
1800
1800
1800
1800
1800
F800
F000
ENDCHAR
STARTCHAR 0192
ENCODING 402
SWIDTH 320 0
DWIDTH 8 0
BBX 9 21 0 -5
BITMAP
0780
0F00
1800
1800
1800
1800
7E00
7E00
1800
1800
1800
1800
1800
1800
1800
1800
1800
1800
1800
F800
F000
ENDCHAR
STARTCHAR 0193
ENCODING 403
SWIDTH 560 0
DWIDTH 14 0
BBX 16 20 1 0
BITMAP
000F
001F
0018
0018
0FD8
1FF8
3038
6030
6000
C000
C000
C3F8
C3F8
C018
4018
6018
6038
3070
1FE0
0FC0
ENDCHAR
STARTCHAR 0194
ENCODING 404
SWIDTH 640 0
DWIDTH 16 0
BBX 14 21 1 -5
BITMAP
C00C
6018
6018
2018
3030
3030
1830
1860
1860
0CC0
0CC0
0CC0
0780
0780
0380
0300
0380
0780
0780
0780
0380
ENDCHAR
STARTCHAR 0195
ENCODING 405
SWIDTH 680 0
DWIDTH 17 0
BBX 15 16 1 0
BITMAP
C000
C000
C000
C000
C000
DF02
FB82
E182
E0C2
C0C2
C0C2
C0C2
C0C2
C0C6
C07E
C03C
ENDCHAR
STARTCHAR 0196
ENCODING 406
SWIDTH 360 0
DWIDTH 9 0
BBX 7 16 1 0
BITMAP
C0
C0
C0
C0
C0
C0
C0
C0
C0
C0
C0
C0
C0
C6
7E
7C
ENDCHAR
STARTCHAR 0197
ENCODING 407
SWIDTH 280 0
DWIDTH 7 0
BBX 6 16 1 0
BITMAP
FC
FC
30
30
30
30
30
FC
FC
30
30
30
30
30
FC
FC
ENDCHAR
STARTCHAR 0198
ENCODING 408
SWIDTH 520 0
DWIDTH 13 0
BBX 11 20 1 0
BITMAP
7C00
7800
C000
C000
C1C0
C180
C300
C700
C600
CC00
D800
F800
FC00
E600
E600
C300
C180
C1C0
C0C0
C060
ENDCHAR
STARTCHAR 0199
ENCODING 409
SWIDTH 400 0
DWIDTH 10 0
BBX 8 20 1 0
BITMAP
7C
78
C0
C0
C0
C0
C0
C0
C0
C6
CC
DC
D8
F0
F8
FC
CC
C6
C7
C3
ENDCHAR
STARTCHAR 019A
ENCODING 410
SWIDTH 280 0
DWIDTH 7 0
BBX 6 16 1 0
BITMAP
30
30
30
30
30
30
30
FC
FC
30
30
30
30
30
3C
3C
ENDCHAR
STARTCHAR 019B
ENCODING 411
SWIDTH 480 0
DWIDTH 12 0
BBX 10 16 1 0
BITMAP
7000
7B00
1F00
7C00
6C00
0E00
0E00
1E00
1B00
1B00
3300
3180
6180
6180
60C0
C0C0
ENDCHAR
STARTCHAR 019C
ENCODING 412
SWIDTH 600 0
DWIDTH 15 0
BBX 13 16 1 0
BITMAP
C318
C318
C318
C318
C318
C318
C318
C318
C318
C318
C318
C318
C718
4738
7FF8
39F8
ENDCHAR
STARTCHAR 019D
ENCODING 413
SWIDTH 600 0
DWIDTH 15 0
BBX 16 21 -2 -5
BITMAP
1803
1C03
1E03
1F03
1B03
1983
19C3
18C3
1863
1833
183B
181B
180F
180F
1807
1803
1800
1800
1800
F800
F000
ENDCHAR
STARTCHAR 019E
ENCODING 414
SWIDTH 480 0
DWIDTH 12 0
BBX 10 16 1 -6
BITMAP
DF00
FB80
E180
E0C0
C0C0
C0C0
C0C0
C0C0
C0C0
C0C0
C0C0
00C0
00C0
00C0
00C0
00C0
ENDCHAR
STARTCHAR 019F
ENCODING 415
SWIDTH 600 0
DWIDTH 15 0
BBX 14 16 1 0
BITMAP
0FC0
1FE0
3030
6038
6018
C018
C00C
FFFC
FFFC
C00C
4018
6018
6038
3070
1FE0
0FC0
ENDCHAR
STARTCHAR 01A0
ENCODING 416
SWIDTH 680 0
DWIDTH 17 0
BBX 17 16 1 0
BITMAP
0FC700
1FE780
303080
603900
601900
C01A00
C00C00
C00C00
C00C00
C00C00
401800
601800
603800
307000
1FE000
0FC000
ENDCHAR
STARTCHAR 01A1
ENCODING 417
SWIDTH 520 0
DWIDTH 13 0
BBX 12 14 1 0
BITMAP
0070
0070
0030
3F10
7B90
61A0
C0C0
C0C0
C0C0
C0C0
40C0
6180
3F80
1E00
ENDCHAR
STARTCHAR 01A2
ENCODING 418
SWIDTH 680 0
DWIDTH 17 0
BBX 15 21 1 -5
BITMAP
0FFE
1FFE
3032
6032
6032
C032
C032
C032
C032
C032
4032
6032
6032
3072
1FE2
0FC2
0002
0002
0002
0002
0002
ENDCHAR
STARTCHAR 01A3
ENCODING 419
SWIDTH 560 0
DWIDTH 14 0
BBX 12 16 1 -6
BITMAP
3FF0
7BF0
6330
C330
C330
C330
C330
4330
6330
3F30
1F30
0030
0030
0030
0030
0030
ENDCHAR
STARTCHAR 01A4
ENCODING 420
SWIDTH 640 0
DWIDTH 16 0
BBX 15 16 1 0
BITMAP
3FF0
7FFC
C60C
C606
C606
0606
060C
07FC
07F0
0600
0600
0600
0600
0600
0600
0600
ENDCHAR
STARTCHAR 01A5
ENCODING 421
SWIDTH 480 0
DWIDTH 12 0
BBX 10 21 1 -6
BITMAP
7C00
7800
C000
C000
C000
FF00
FB80
E180
C0C0
C0C0
C0C0
C0C0
C0C0
E180
FF80
DE00
C000
C000
C000
C000
4000
ENDCHAR
STARTCHAR 01A6
ENCODING 422
SWIDTH 480 0
DWIDTH 12 0
BBX 10 20 1 -4
BITMAP
C000
C000
C000
C000
FF00
C380
C0C0
C0C0
C0C0
C180
FF80
FF00
C300
C300
C180
C180
0180
00C0
00C0
00C0
ENDCHAR
STARTCHAR 01A7
ENCODING 423
SWIDTH 480 0
DWIDTH 12 0
BBX 10 16 1 0
BITMAP
1F00
3F80
6180
6180
0180
0180
0700
1E00
3800
6000
C000
C0C0
C0C0
61C0
7F80
3F00
ENDCHAR
STARTCHAR 01A8
ENCODING 424
SWIDTH 360 0
DWIDTH 9 0
BBX 7 11 1 0
BITMAP
3C
7E
46
06
1C
78
E0
C0
C6
7E
3C
ENDCHAR
STARTCHAR 01A9
ENCODING 425
SWIDTH 480 0
DWIDTH 12 0
BBX 10 16 1 0
BITMAP
FFC0
FFC0
6000
7000
3000
1800
0C00
0E00
0C00
1C00
1800
3000
7000
6000
FFC0
FFC0
ENDCHAR
STARTCHAR 01AA
ENCODING 426
SWIDTH 360 0
DWIDTH 9 0
BBX 11 21 1 -5
BITMAP
7C00
7E00
C600
C600
6E00
7E00
0600
0600
0600
0600
0600
0600
0600
0600
0600
0600
0600
0600
0600
03C0
01E0
ENDCHAR
STARTCHAR 01AB
ENCODING 427
SWIDTH 320 0
DWIDTH 8 0
BBX 6 19 1 -5
BITMAP
10
30
30
FC
FC
30
30
30
30
30
30
30
3C
1C
0C
0C
0C
7C
78
ENDCHAR
STARTCHAR 01AC
ENCODING 428
SWIDTH 560 0
DWIDTH 14 0
BBX 12 16 1 0
BITMAP
3FF0
7FF0
C300
C300
C300
0300
0300
0300
0300
0300
0300
0300
0300
0300
0300
0300
ENDCHAR
STARTCHAR 01AD
ENCODING 429
SWIDTH 320 0
DWIDTH 8 0
BBX 8 16 1 0
BITMAP
0F
1E
30
30
30
FC
FC
30
30
30
30
30
30
30
3C
1C
ENDCHAR
STARTCHAR 01AE
ENCODING 430
SWIDTH 480 0
DWIDTH 12 0
BBX 10 21 1 -5
BITMAP
FFC0
FFC0
0C00
0C00
0C00
0C00
0C00
0C00
0C00
0C00
0C00
0C00
0C00
0C00
0C00
0C00
0C00
0C00
0400
0780
03C0
ENDCHAR
STARTCHAR 01AF
ENCODING 431
SWIDTH 680 0
DWIDTH 17 0
BBX 16 16 1 0
BITMAP
C017
C017
C011
C011
C012
C014
C018
C010
C010
C010
C010
C030
6030
7060
3FE0
1F80
ENDCHAR
STARTCHAR 01B0
ENCODING 432
SWIDTH 560 0
DWIDTH 14 0
BBX 13 14 1 0
BITMAP
0030
0038
0018
C0C8
C0C8
C0D0
C0E0
C0C0
C0C0
C0C0
C0C0
61C0
7FC0
3EC0
ENDCHAR
STARTCHAR 01B1
ENCODING 433
SWIDTH 600 0
DWIDTH 15 0
BBX 14 16 1 0
BITMAP
FCFC
FCFC
3030
6038
6018
C018
C00C
C00C
C00C
C00C
4018
6018
6038
3070
1FE0
0FC0
ENDCHAR
STARTCHAR 01B2
ENCODING 434
SWIDTH 560 0
DWIDTH 14 0
BBX 13 16 1 0
BITMAP
C0E0
6070
6010
2018
3030
3030
1830
1860
1860
0CC0
0CC0
0CC0
0780
0780
0380
0300
ENDCHAR
STARTCHAR 01B3
ENCODING 435
SWIDTH 600 0
DWIDTH 15 0
BBX 16 16 2 0
BITMAP
C03E
E077
6062
30C0
39C0
1980
0F00
0600
0600
0600
0600
0600
0600
0600
0600
0600
ENDCHAR
STARTCHAR 01B4
ENCODING 436
SWIDTH 600 0
DWIDTH 15 0
BBX 14 16 1 -5
BITMAP
C0F8
60DC
6180
3180
3180
3300
1B00
1B00
1E00
0E00
0C00
0C00
0C00
1800
7800
7000
ENDCHAR
STARTCHAR 01B5
ENCODING 437
SWIDTH 520 0
DWIDTH 13 0
BBX 11 16 1 0
BITMAP
FFE0
FFE0
00E0
00C0
0180
0380
0300
7FC0
7FC0
1C00
1800
3000
7000
6000
FFE0
FFE0
ENDCHAR
STARTCHAR 01B6
ENCODING 438
SWIDTH 400 0
DWIDTH 10 0
BBX 8 11 1 0
BITMAP
FF
FF
06
0C
7E
7E
30
70
60
FF
FF
ENDCHAR
STARTCHAR 01B7
ENCODING 439
SWIDTH 520 0
DWIDTH 13 0
BBX 11 16 1 0
BITMAP
FFE0
FFE0
00E0
00C0
0180
0380
0380
07C0
00E0
0060
0060
0060
C060
60E0
3FC0
1F80
ENDCHAR
STARTCHAR 01B8
ENCODING 440
SWIDTH 520 0
DWIDTH 13 0
BBX 11 16 1 0
BITMAP
FFE0
FFE0
6000
7000
3000
1800
1C00
3E00
6000
C000
C000
C000
C060
60E0
3FC0
1F80
ENDCHAR
STARTCHAR 01B9
ENCODING 441
SWIDTH 400 0
DWIDTH 10 0
BBX 9 16 1 -5
BITMAP
FF80
FF80
6000
3000
3800
1800
3C00
7000
6000
C000
C000
C000
C000
6100
3F80
1E00
ENDCHAR
STARTCHAR 01BA
ENCODING 442
SWIDTH 360 0
DWIDTH 9 0
BBX 8 16 1 -5
BITMAP
FF
FF
06
0C
1C
1C
0E
02
06
1C
78
E0
C3
C3
7E
3C
ENDCHAR
STARTCHAR 01BB
ENCODING 443
SWIDTH 400 0
DWIDTH 10 0
BBX 9 16 1 0
BITMAP
3E00
7700
E180
C180
0180
0380
0300
FF80
FF80
3800
3000
6000
C000
C000
FF80
FF80
ENDCHAR
STARTCHAR 01BC
ENCODING 444
SWIDTH 440 0
DWIDTH 11 0
BBX 9 16 1 0
BITMAP
FF80
FF80
6000
6000
6000
7E00
F700
C180
0180
0180
0080
0180
4180
E380
7F00
3E00
ENDCHAR
STARTCHAR 01BD
ENCODING 445
SWIDTH 360 0
DWIDTH 9 0
BBX 8 11 1 0
BITMAP
FE
FE
60
7C
7E
26
03
43
66
7E
3C
ENDCHAR
STARTCHAR 01BE
ENCODING 446
SWIDTH 440 0
DWIDTH 11 0
BBX 9 14 1 0
BITMAP
1000
3000
3000
FC00
FC00
3000
1800
1E00
0780
0180
0080
3180
1F80
0F00
ENDCHAR
STARTCHAR 01BF
ENCODING 447
SWIDTH 400 0
DWIDTH 10 0
BBX 9 16 1 -6
BITMAP
FE00
F700
C180
C180
C180
C300
C300
C600
DC00
F800
F000
E000
C000
C000
C000
4000
ENDCHAR
STARTCHAR 01C0
ENCODING 448
SWIDTH 160 0
DWIDTH 4 0
BBX 2 21 1 -6
BITMAP
C0
C0
C0
C0
C0
C0
C0
C0
C0
C0
C0
C0
C0
C0
C0
C0
C0
C0
C0
C0
40
ENDCHAR
STARTCHAR 01C1
ENCODING 449
SWIDTH 280 0
DWIDTH 7 0
BBX 6 21 1 -6
BITMAP
CC
CC
CC
CC
CC
CC
CC
CC
CC
CC
CC
CC
CC
CC
CC
CC
CC
CC
CC
CC
4C
ENDCHAR
STARTCHAR 01C2
ENCODING 450
SWIDTH 400 0
DWIDTH 10 0
BBX 9 16 1 0
BITMAP
0800
0800
0800
0800
0800
FF80
FF80
0800
0800
FF80
FF80
0800
0800
0800
0800
0800
ENDCHAR
STARTCHAR 01C3
ENCODING 451
SWIDTH 160 0
DWIDTH 4 0
BBX 2 16 1 0
BITMAP
C0
C0
C0
C0
C0
C0
C0
C0
C0
C0
C0
00
00
00
C0
C0
ENDCHAR
STARTCHAR 01C4
ENCODING 452
SWIDTH 1160 0
DWIDTH 29 0
BBX 27 21 1 0
BITMAP
00001100
00001900
00000E00
00000E00
00000000
FFC0FFE0
FFE0FFE0
307000E0
303800C0
30180180
30180300
300C0700
300C0600
300C0C00
300C1C00
30181800
30183000
30387000
30706000
FFE0FFE0
FF80FFE0
ENDCHAR
STARTCHAR 01C5
ENCODING 453
SWIDTH 1000 0
DWIDTH 25 0
BBX 24 16 1 0
BITMAP
FFC042
FFE024
30703C
303818
301800
3018FF
300CFF
300C06
300C0C
300C1C
301818
301830
303870
307060
FFE0FF
FF80FF
ENDCHAR
STARTCHAR 01C6
ENCODING 454
SWIDTH 880 0
DWIDTH 22 0
BBX 20 16 1 0
BITMAP
00C420
00C240
00C3C0
00C180
00C000
3FCFF0
7BCFF0
61C060
C0C0E0
C0C0C0
C0C180
C0C380
40C300
61C600
3FCFF0
1FCFF0
ENDCHAR
STARTCHAR 01C7
ENCODING 455
SWIDTH 840 0
DWIDTH 21 0
BBX 20 16 1 0
BITMAP
C00030
C00030
C00030
C00030
C00030
C00030
C00030
C00030
C00030
C00030
C00030
C00030
C00030
C00630
FFC7E0
FFC3C0
ENDCHAR
STARTCHAR 01C8
ENCODING 456
SWIDTH 680 0
DWIDTH 17 0
BBX 15 21 1 -5
BITMAP
C000
C006
C006
C000
C000
C006
C006
C006
C006
C006
C006
C006
C006
C006
FFC6
FFC6
0006
0006
0006
003C
003C
ENDCHAR
STARTCHAR 01C9
ENCODING 457
SWIDTH 400 0
DWIDTH 10 0
BBX 9 21 1 -5
BITMAP
C100
C380
C300
C000
C000
C300
C300
C300
C300
C300
C300
C300
C300
C300
F300
7300
0300
0300
0300
1F00
1E00
ENDCHAR
STARTCHAR 01CA
ENCODING 458
SWIDTH 960 0
DWIDTH 24 0
BBX 22 16 1 0
BITMAP
C0180C
E0180C
F0180C
F8180C
D8180C
CC180C
CE180C
C6180C
C3180C
C1980C
C1D80C
C0D80C
C0780C
C0798C
C038FC
C01878
ENDCHAR
STARTCHAR 01CB
ENCODING 459
SWIDTH 800 0
DWIDTH 20 0
BBX 18 21 1 -5
BITMAP
C01880
E019C0
F018C0
F81800
D81800
CC18C0
CE18C0
C618C0
C318C0
C198C0
C1D8C0
C0D8C0
C078C0
C078C0
C038C0
C018C0
0000C0
0000C0
000180
000780
000F00
ENDCHAR
STARTCHAR 01CC
ENCODING 460
SWIDTH 680 0
DWIDTH 17 0
BBX 15 21 1 -5
BITMAP
0004
000E
000E
0000
0000
DF04
FB84
E184
E0C4
C0C4
C0C4
C0C4
C0C4
C0C4
C0C4
C0C4
0004
0004
000C
007C
0078
ENDCHAR
STARTCHAR 01CD
ENCODING 461
SWIDTH 640 0
DWIDTH 16 0
BBX 14 21 1 0
BITMAP
0840
0480
0780
0300
0000
0300
0780
0780
0780
0CC0
0CC0
0CC0
1860
1FE0
1FF0
3030
3030
6018
6018
6018
C00C
ENDCHAR
STARTCHAR 01CE
ENCODING 462
SWIDTH 400 0
DWIDTH 10 0
BBX 8 16 1 0
BITMAP
42
24
3C
18
00
3E
3F
03
03
3F
7F
E3
C3
C3
7F
3F
ENDCHAR
STARTCHAR 01CF
ENCODING 463
SWIDTH 280 0
DWIDTH 7 0
BBX 6 21 1 0
BITMAP
84
48
78
30
00
FC
FC
30
30
30
30
30
30
30
30
30
30
30
30
FC
FC
ENDCHAR
STARTCHAR 01D0
ENCODING 464
SWIDTH 160 0
DWIDTH 4 0
BBX 6 16 -1 0
BITMAP
84
48
78
30
00
30
30
30
30
30
30
30
30
30
30
30
ENDCHAR
STARTCHAR 01D1
ENCODING 465
SWIDTH 600 0
DWIDTH 15 0
BBX 14 21 1 0
BITMAP
0840
0480
0780
0300
0000
0FC0
1FE0
3030
6038
6018
C018
C00C
C00C
C00C
C00C
4018
6018
6038
3070
1FE0
0FC0
ENDCHAR
STARTCHAR 01D2
ENCODING 466
SWIDTH 480 0
DWIDTH 12 0
BBX 10 16 1 0
BITMAP
2100
1200
1E00
0C00
0000
3F00
7B80
6180
C0C0
C0C0
C0C0
C0C0
40C0
6180
3F80
1E00
ENDCHAR
STARTCHAR 01D3
ENCODING 467
SWIDTH 560 0
DWIDTH 14 0
BBX 12 21 1 0
BITMAP
1080
0980
0700
0700
0000
C010
C010
C010
C010
C010
C010
C010
C010
C010
C010
C010
C030
6030
7060
3FE0
1F80
ENDCHAR
STARTCHAR 01D4
ENCODING 468
SWIDTH 480 0
DWIDTH 12 0
BBX 10 16 1 0
BITMAP
2100
1200
1E00
0C00
0000
C0C0
C0C0
C0C0
C0C0
C0C0
C0C0
C0C0
C0C0
61C0
7FC0
3EC0
ENDCHAR
STARTCHAR 01D5
ENCODING 469
SWIDTH 560 0
DWIDTH 14 0
BBX 12 21 1 0
BITMAP
1F80
1F80
1980
1DC0
0880
C010
C010
C010
C010
C010
C010
C010
C010
C010
C010
C010
C030
6030
7060
3FE0
1F80
ENDCHAR
STARTCHAR 01D6
ENCODING 470
SWIDTH 480 0
DWIDTH 12 0
BBX 10 19 1 0
BITMAP
3F00
3F00
0000
2000
3380
3300
0000
0000
C0C0
C0C0
C0C0
C0C0
C0C0
C0C0
C0C0
C0C0
61C0
7FC0
3EC0
ENDCHAR
STARTCHAR 01D7
ENCODING 471
SWIDTH 560 0
DWIDTH 14 0
BBX 12 21 1 0
BITMAP
0180
0100
0B80
0D80
0000
C010
C010
C010
C010
C010
C010
C010
C010
C010
C010
C010
C030
6030
7060
3FE0
1F80
ENDCHAR
STARTCHAR 01D8
ENCODING 472
SWIDTH 480 0
DWIDTH 12 0
BBX 10 20 1 0
BITMAP
0600
0400
0800
0000
2000
3380
3300
0000
0000
C0C0
C0C0
C0C0
C0C0
C0C0
C0C0
C0C0
C0C0
61C0
7FC0
3EC0
ENDCHAR
STARTCHAR 01D9
ENCODING 473
SWIDTH 560 0
DWIDTH 14 0
BBX 12 21 1 0
BITMAP
0880
0500
0700
0D80
0800
C010
C010
C010
C010
C010
C010
C010
C010
C010
C010
C010
C030
6030
7060
3FE0
1F80
ENDCHAR
STARTCHAR 01DA
ENCODING 474
SWIDTH 480 0
DWIDTH 12 0
BBX 10 20 1 0
BITMAP
2100
1200
1E00
0000
2000
3380
3300
0000
0000
C0C0
C0C0
C0C0
C0C0
C0C0
C0C0
C0C0
C0C0
61C0
7FC0
3EC0
ENDCHAR
STARTCHAR 01DB
ENCODING 475
SWIDTH 560 0
DWIDTH 14 0
BBX 12 21 1 0
BITMAP
0C00
0400
0B80
0D80
0000
C010
C010
C010
C010
C010
C010
C010
C010
C010
C010
C010
C030
6030
7060
3FE0
1F80
ENDCHAR
STARTCHAR 01DC
ENCODING 476
SWIDTH 480 0
DWIDTH 12 0
BBX 10 20 1 0
BITMAP
1800
0C00
0400
0000
2000
3380
3300
0000
0000
C0C0
C0C0
C0C0
C0C0
C0C0
C0C0
C0C0
C0C0
61C0
7FC0
3EC0
ENDCHAR
STARTCHAR 01DD
ENCODING 477
SWIDTH 480 0
DWIDTH 12 0
BBX 10 11 1 0
BITMAP
3F00
7B80
6180
00C0
00C0
FFC0
FFC0
40C0
6180
3F80
1E00
ENDCHAR
STARTCHAR 01DE
ENCODING 478
SWIDTH 640 0
DWIDTH 16 0
BBX 14 21 1 0
BITMAP
0FC0
0FC0
0CC0
0CC0
0CC0
0300
0780
0780
0780
0CC0
0CC0
0CC0
1860
1FE0
1FF0
3030
3030
6018
6018
6018
C00C
ENDCHAR
STARTCHAR 01DF
ENCODING 479
SWIDTH 400 0
DWIDTH 10 0
BBX 8 19 1 0
BITMAP
7E
7E
00
00
66
66
00
00
3E
3F
03
03
3F
7F
E3
C3
C3
7F
3F
ENDCHAR
STARTCHAR 01E0
ENCODING 480
SWIDTH 640 0
DWIDTH 16 0
BBX 14 21 1 0
BITMAP
0FC0
0FC0
0300
0300
0000
0300
0780
0780
0780
0CC0
0CC0
0CC0
1860
1FE0
1FF0
3030
3030
6018
6018
6018
C00C
ENDCHAR
STARTCHAR 01E1
ENCODING 481
SWIDTH 400 0
DWIDTH 10 0
BBX 8 19 1 0
BITMAP
7E
7E
00
00
18
18
00
00
3E
3F
03
03
3F
7F
E3
C3
C3
7F
3F
ENDCHAR
STARTCHAR 01E2
ENCODING 482
SWIDTH 720 0
DWIDTH 18 0
BBX 16 20 1 0
BITMAP
00FC
00FC
0000
0000
03FF
07FF
06C0
06C0
0CC0
0CC0
0CC0
1FFE
1FFE
18C0
30C0
30C0
60C0
60C0
60FF
C0FF
ENDCHAR
STARTCHAR 01E3
ENCODING 483
SWIDTH 720 0
DWIDTH 18 0
BBX 16 15 1 0
BITMAP
07E0
07E0
0000
0000
3EFC
3FCE
0386
0303
3FFF
7FFF
E300
C300
C386
7FFC
3C78
ENDCHAR
STARTCHAR 01E4
ENCODING 484
SWIDTH 640 0
DWIDTH 16 0
BBX 14 16 1 0
BITMAP
0FC0
1FE0
3030
6030
6000
C000
C000
C3F8
C3F8
C018
4018
607C
6038
3070
1FE0
0FC0
ENDCHAR
STARTCHAR 01E5
ENCODING 485
SWIDTH 480 0
DWIDTH 12 0
BBX 13 16 0 -5
BITMAP
1FB8
39F0
7060
6060
6060
30E0
3FC0
3F80
3000
3E00
0FC0
00E0
FFF8
7060
3FC0
1F80
ENDCHAR
STARTCHAR 01E6
ENCODING 486
SWIDTH 560 0
DWIDTH 14 0
BBX 13 21 1 0
BITMAP
1080
0980
0700
0700
0000
0FC0
1FE0
3030
6030
6000
C000
C000
C3F8
C3F8
C018
4018
6018
6038
3070
1FE0
0FC0
ENDCHAR
STARTCHAR 01E7
ENCODING 487
SWIDTH 480 0
DWIDTH 12 0
BBX 12 21 1 -5
BITMAP
2100
1200
1E00
0C00
0000
3F70
73E0
E0C0
C0C0
C0C0
61C0
7F80
7F00
6000
7C00
1F80
01C0
C0C0
E0C0
7F80
3F00
ENDCHAR
STARTCHAR 01E8
ENCODING 488
SWIDTH 520 0
DWIDTH 13 0
BBX 11 21 1 0
BITMAP
1080
1900
0F00
0E00
0000
C1C0
C180
C300
C700
C600
CC00
D800
F800
FC00
E600
E600
C300
C180
C1C0
C0C0
C060
ENDCHAR
STARTCHAR 01E9
ENCODING 489
SWIDTH 400 0
DWIDTH 10 0
BBX 8 20 1 1
BITMAP
22
14
1C
00
C0
C0
C0
C0
C0
C6
CC
DC
D8
F0
F8
FC
CC
C6
C7
C3
ENDCHAR
STARTCHAR 01EA
ENCODING 490
SWIDTH 600 0
DWIDTH 15 0
BBX 14 21 1 -5
BITMAP
0FC0
1FE0
3030
6038
6018
C018
C00C
C00C
C00C
C00C
4018
6018
6038
3070
1FE0
0FC0
0200
0200
0300
01E0
0080
ENDCHAR
STARTCHAR 01EB
ENCODING 491
SWIDTH 480 0
DWIDTH 12 0
BBX 10 15 1 -5
BITMAP
3F00
7B80
6180
C0C0
C0C0
C0C0
C0C0
40C0
6180
3F80
1E00
0800
0C00
0C00
0780
ENDCHAR
STARTCHAR 01EC
ENCODING 492
SWIDTH 600 0
DWIDTH 15 0
BBX 14 25 1 -5
BITMAP
0FC0
0FC0
0000
0000
0FC0
1FE0
3030
6038
6018
C018
C00C
C00C
C00C
C00C
4018
6018
6038
3070
1FE0
0FC0
0200
0200
0300
01E0
0080
ENDCHAR
STARTCHAR 01ED
ENCODING 493
SWIDTH 480 0
DWIDTH 12 0
BBX 10 19 1 -5
BITMAP
3F00
3F00
0000
0000
3F00
7B80
6180
C0C0
C0C0
C0C0
C0C0
40C0
6180
3F80
1E00
0800
0C00
0C00
0780
ENDCHAR
STARTCHAR 01EE
ENCODING 494
SWIDTH 520 0
DWIDTH 13 0
BBX 11 21 1 0
BITMAP
1080
1900
0F00
0E00
0000
FFE0
FFE0
00E0
00C0
0180
0380
0380
07C0
00E0
0060
0060
0060
C060
60E0
3FC0
1F80
ENDCHAR
STARTCHAR 01EF
ENCODING 495
SWIDTH 400 0
DWIDTH 10 0
BBX 9 21 1 -5
BITMAP
2200
3600
1C00
1C00
0000
FF80
FF80
0300
0600
0E00
0C00
1E00
0700
0300
0180
0180
0180
0300
4300
FE00
3C00
ENDCHAR
STARTCHAR 01F0
ENCODING 496
SWIDTH 160 0
DWIDTH 4 0
BBX 7 21 -2 -5
BITMAP
42
24
3C
18
00
18
18
18
18
18
18
18
18
18
18
18
18
18
18
F8
F0
ENDCHAR
STARTCHAR 01F1
ENCODING 497
SWIDTH 1160 0
DWIDTH 29 0
BBX 27 16 1 0
BITMAP
FFC0FFE0
FFE0FFE0
307000E0
303800C0
30180180
30180300
300C0700
300C0600
300C0C00
300C1C00
30181800
30183000
30387000
30706000
FFE0FFE0
FF80FFE0
ENDCHAR
STARTCHAR 01F2
ENCODING 498
SWIDTH 1000 0
DWIDTH 25 0
BBX 24 16 1 0
BITMAP
FFC000
FFE000
307000
303800
301800
3018FF
300CFF
300C06
300C0C
300C1C
301818
301830
303870
307060
FFE0FF
FF80FF
ENDCHAR
STARTCHAR 01F3
ENCODING 499
SWIDTH 880 0
DWIDTH 22 0
BBX 20 16 1 0
BITMAP
00C000
00C000
00C000
00C000
00C000
3FCFF0
7BCFF0
61C060
C0C0E0
C0C0C0
C0C180
C0C380
40C300
61C600
3FCFF0
1FCFF0
ENDCHAR
STARTCHAR 01F4
ENCODING 500
SWIDTH 560 0
DWIDTH 14 0
BBX 13 21 1 0
BITMAP
0180
0300
0200
0400
0000
0FC0
1FE0
3030
6030
6000
C000
C000
C3F8
C3F8
C018
4018
6018
6038
3070
1FE0
0FC0
ENDCHAR
STARTCHAR 01F5
ENCODING 501
SWIDTH 480 0
DWIDTH 12 0
BBX 12 21 1 -5
BITMAP
0600
0400
0800
0000
0000
3F70
73E0
E0C0
C0C0
C0C0
61C0
7F80
7F00
6000
7C00
1F80
01C0
C0C0
E0C0
7F80
3F00
ENDCHAR
STARTCHAR 01F6
ENCODING 502
SWIDTH 800 0
DWIDTH 20 0
BBX 18 16 1 0
BITMAP
C04000
C04000
C04000
C04000
C04000
C04040
C04040
FFC040
FFC040
C04040
C04040
C04040
C060C0
C060C0
C03F80
C01F00
ENDCHAR
STARTCHAR 01F7
ENCODING 503
SWIDTH 400 0
DWIDTH 10 0
BBX 9 21 1 -5
BITMAP
FE00
F700
E180
C180
C180
C380
C300
C600
CC00
F800
F000
E000
C000
C000
C000
C000
C000
C000
C000
C000
C000
ENDCHAR
STARTCHAR 01F8
ENCODING 504
SWIDTH 600 0
DWIDTH 15 0
BBX 13 21 1 0
BITMAP
0C00
0600
0200
0100
0000
C018
E018
F018
F818
D818
CC18
CE18
C618
C318
C198
C1D8
C0D8
C078
C078
C038
C018
ENDCHAR
STARTCHAR 01F9
ENCODING 505
SWIDTH 480 0
DWIDTH 12 0
BBX 10 16 1 0
BITMAP
1800
0800
0400
0200
0000
DF00
FB80
E180
E0C0
C0C0
C0C0
C0C0
C0C0
C0C0
C0C0
C0C0
ENDCHAR
STARTCHAR 01FA
ENCODING 506
SWIDTH 640 0
DWIDTH 16 0
BBX 14 21 1 0
BITMAP
0180
0100
0200
0380
0480
0480
0780
0780
0780
0CC0
0CC0
0CC0
1860
1FE0
1FF0
3030
3030
6018
6018
6018
C00C
ENDCHAR
STARTCHAR 01FB
ENCODING 507
SWIDTH 400 0
DWIDTH 10 0
BBX 8 20 1 0
BITMAP
06
0C
08
00
1C
34
34
1C
00
3E
3F
03
03
3F
7F
E3
C3
C3
7F
3F
ENDCHAR
STARTCHAR 01FC
ENCODING 508
SWIDTH 720 0
DWIDTH 18 0
BBX 16 21 1 0
BITMAP
0030
0060
0040
0080
0000
03FF
07FF
06C0
06C0
0CC0
0CC0
0CC0
1FFE
1FFE
18C0
30C0
30C0
60C0
60C0
60FF
C0FF
ENDCHAR
STARTCHAR 01FD
ENCODING 509
SWIDTH 720 0
DWIDTH 18 0
BBX 16 16 1 0
BITMAP
00C0
0080
0100
0000
0000
3EFC
3FCE
0386
0303
3FFF
7FFF
E300
C300
C386
7FFC
3C78
ENDCHAR
STARTCHAR 01FE
ENCODING 510
SWIDTH 600 0
DWIDTH 15 0
BBX 14 22 1 -1
BITMAP
0180
0100
0200
0000
0008
0FD8
1FF8
3030
6078
60D8
C0D8
C18C
C30C
C70C
C60C
4C18
7C18
7838
3070
7FE0
6FC0
4000
ENDCHAR
STARTCHAR 01FF
ENCODING 511
SWIDTH 480 0
DWIDTH 12 0
BBX 10 17 1 -2
BITMAP
0600
0400
0800
0000
00C0
3FC0
7B80
6380
C7C0
C6C0
CCC0
D8C0
58C0
7180
7F80
FE00
C000
ENDCHAR
STARTCHAR 0200
ENCODING 512
SWIDTH 640 0
DWIDTH 16 0
BBX 14 21 1 0
BITMAP
3300
1900
0880
0400
0000
0300
0780
0780
0780
0CC0
0CC0
0CC0
1860
1FE0
1FF0
3030
3030
6018
6018
6018
C00C
ENDCHAR
STARTCHAR 0201
ENCODING 513
SWIDTH 400 0
DWIDTH 10 0
BBX 8 16 1 0
BITMAP
D8
4C
26
02
00
3E
3F
03
03
3F
7F
E3
C3
C3
7F
3F
ENDCHAR
STARTCHAR 0202
ENCODING 514
SWIDTH 640 0
DWIDTH 16 0
BBX 14 21 1 0
BITMAP
0780
0FC0
0840
0000
0000
0300
0780
0780
0780
0CC0
0CC0
0CC0
1860
1FE0
1FF0
3030
3030
6018
6018
6018
C00C
ENDCHAR
STARTCHAR 0203
ENCODING 515
SWIDTH 400 0
DWIDTH 10 0
BBX 8 16 1 0
BITMAP
3C
66
42
00
00
3E
3F
03
03
3F
7F
E3
C3
C3
7F
3F
ENDCHAR
STARTCHAR 0204
ENCODING 516
SWIDTH 480 0
DWIDTH 12 0
BBX 10 21 1 0
BITMAP
6C00
2600
1300
0100
0000
FFC0
FFC0
C000
C000
C000
C000
C000
FF80
FF80
C000
C000
C000
C000
C000
FFC0
FFC0
ENDCHAR
STARTCHAR 0205
ENCODING 517
SWIDTH 480 0
DWIDTH 12 0
BBX 10 16 1 0
BITMAP
3600
1300
0900
0080
0000
3F00
7B80
6180
C0C0
FFC0
FFC0
C000
6000
6180
3F80
1E00
ENDCHAR
STARTCHAR 0206
ENCODING 518
SWIDTH 480 0
DWIDTH 12 0
BBX 10 21 1 0
BITMAP
0E00
3B00
3180
0000
0000
FFC0
FFC0
C000
C000
C000
C000
C000
FF80
FF80
C000
C000
C000
C000
C000
FFC0
FFC0
ENDCHAR
STARTCHAR 0207
ENCODING 519
SWIDTH 480 0
DWIDTH 12 0
BBX 10 16 1 0
BITMAP
1E00
3300
2100
0000
0000
3F00
7B80
6180
C0C0
FFC0
FFC0
C000
6000
6180
3F80
1E00
ENDCHAR
STARTCHAR 0208
ENCODING 520
SWIDTH 280 0
DWIDTH 7 0
BBX 8 21 -1 0
BITMAP
EC
66
32
11
00
3F
3F
0C
0C
0C
0C
0C
0C
0C
0C
0C
0C
0C
0C
3F
3F
ENDCHAR
STARTCHAR 0209
ENCODING 521
SWIDTH 160 0
DWIDTH 4 0
BBX 8 16 -3 0
BITMAP
EC
26
12
01
00
0C
0C
0C
0C
0C
0C
0C
0C
0C
0C
0C
ENDCHAR
STARTCHAR 020A
ENCODING 522
SWIDTH 280 0
DWIDTH 7 0
BBX 6 21 1 0
BITMAP
78
FC
84
00
00
FC
FC
30
30
30
30
30
30
30
30
30
30
30
30
FC
FC
ENDCHAR
STARTCHAR 020B
ENCODING 523
SWIDTH 160 0
DWIDTH 4 0
BBX 6 16 -1 0
BITMAP
78
CC
84
00
00
30
30
30
30
30
30
30
30
30
30
30
ENDCHAR
STARTCHAR 020C
ENCODING 524
SWIDTH 600 0
DWIDTH 15 0
BBX 14 21 1 0
BITMAP
3300
1900
0880
0400
0000
0FC0
1FE0
3030
6038
6018
C018
C00C
C00C
C00C
C00C
4018
6018
6038
3070
1FE0
0FC0
ENDCHAR
STARTCHAR 020D
ENCODING 525
SWIDTH 480 0
DWIDTH 12 0
BBX 10 16 1 0
BITMAP
6E00
2600
1300
0100
0000
3F00
7B80
6180
C0C0
C0C0
C0C0
C0C0
40C0
6180
3F80
1E00
ENDCHAR
STARTCHAR 020E
ENCODING 526
SWIDTH 600 0
DWIDTH 15 0
BBX 14 21 1 0
BITMAP
0780
0FC0
0840
0000
0000
0FC0
1FE0
3030
6038
6018
C018
C00C
C00C
C00C
C00C
4018
6018
6038
3070
1FE0
0FC0
ENDCHAR
STARTCHAR 020F
ENCODING 527
SWIDTH 480 0
DWIDTH 12 0
BBX 10 16 1 0
BITMAP
1E00
3300
2100
0000
0000
3F00
7B80
6180
C0C0
C0C0
C0C0
C0C0
40C0
6180
3F80
1E00
ENDCHAR
STARTCHAR 0210
ENCODING 528
SWIDTH 520 0
DWIDTH 13 0
BBX 11 21 1 0
BITMAP
CC00
6400
2200
1000
0000
FE00
FF80
C180
C0C0
C0C0
C0C0
C180
FF80
FE00
C600
C300
C180
C180
C0C0
C0C0
C060
ENDCHAR
STARTCHAR 0211
ENCODING 529
SWIDTH 320 0
DWIDTH 8 0
BBX 7 16 0 0
BITMAP
D8
4C
24
02
00
6E
7C
70
60
60
60
60
60
60
60
60
ENDCHAR
STARTCHAR 0212
ENCODING 530
SWIDTH 520 0
DWIDTH 13 0
BBX 11 21 1 0
BITMAP
1C00
3600
6300
0000
0000
FE00
FF80
C180
C0C0
C0C0
C0C0
C180
FF80
FE00
C600
C300
C180
C180
C0C0
C0C0
C060
ENDCHAR
STARTCHAR 0213
ENCODING 531
SWIDTH 320 0
DWIDTH 8 0
BBX 7 16 1 0
BITMAP
78
CC
86
00
00
DC
F8
E0
C0
C0
C0
C0
C0
C0
C0
C0
ENDCHAR
STARTCHAR 0214
ENCODING 532
SWIDTH 560 0
DWIDTH 14 0
BBX 12 21 1 0
BITMAP
3300
1900
0880
0400
0000
C010
C010
C010
C010
C010
C010
C010
C010
C010
C010
C010
C030
6030
7060
3FE0
1F80
ENDCHAR
STARTCHAR 0215
ENCODING 533
SWIDTH 480 0
DWIDTH 12 0
BBX 10 16 1 0
BITMAP
6E00
2600
1300
0100
0000
C0C0
C0C0
C0C0
C0C0
C0C0
C0C0
C0C0
C0C0
61C0
7FC0
3EC0
ENDCHAR
STARTCHAR 0216
ENCODING 534
SWIDTH 560 0
DWIDTH 14 0
BBX 12 21 1 0
BITMAP
0700
1D80
18C0
0000
0000
C010
C010
C010
C010
C010
C010
C010
C010
C010
C010
C010
C030
6030
7060
3FE0
1F80
ENDCHAR
STARTCHAR 0217
ENCODING 535
SWIDTH 480 0
DWIDTH 12 0
BBX 10 16 1 0
BITMAP
1E00
3300
2100
0000
0000
C0C0
C0C0
C0C0
C0C0
C0C0
C0C0
C0C0
C0C0
61C0
7FC0
3EC0
ENDCHAR
STARTCHAR 0218
ENCODING 536
SWIDTH 480 0
DWIDTH 12 0
BBX 10 24 1 -8
BITMAP
3F00
3F80
6180
6080
6000
6000
3800
1E00
0780
0180
00C0
C0C0
C0C0
61C0
7F80
3F00
0000
0C00
0E00
0E00
0200
0400
0400
1800
ENDCHAR
STARTCHAR 0219
ENCODING 537
SWIDTH 360 0
DWIDTH 9 0
BBX 8 19 1 -8
BITMAP
7C
6E
46
60
78
1E
06
03
C6
7E
3C
00
18
38
1C
04
08
08
30
ENDCHAR
STARTCHAR 021A
ENCODING 538
SWIDTH 480 0
DWIDTH 12 0
BBX 10 24 1 -8
BITMAP
FFC0
FFC0
0C00
0C00
0C00
0C00
0C00
0C00
0C00
0C00
0C00
0C00
0C00
0C00
0C00
0C00
0000
0C00
0E00
0E00
0200
0200
0400
0800
ENDCHAR
STARTCHAR 021B
ENCODING 539
SWIDTH 320 0
DWIDTH 8 0
BBX 6 22 1 -8
BITMAP
10
30
30
FC
FC
30
30
30
30
30
30
30
3C
1C
00
30
38
38
08
08
10
60
ENDCHAR
STARTCHAR 021C
ENCODING 540
SWIDTH 480 0
DWIDTH 12 0
BBX 9 16 2 0
BITMAP
7E00
FF00
8380
0180
0180
0180
0300
0F00
FF00
F180
0180
0180
0300
0700
FE00
F800
ENDCHAR
STARTCHAR 021D
ENCODING 541
SWIDTH 480 0
DWIDTH 12 0
BBX 9 16 2 -5
BITMAP
7E00
E700
8180
0180
0180
0180
0300
0F00
FF00
E180
0180
0180
0300
0700
FC00
F800
ENDCHAR
STARTCHAR 021E
ENCODING 542
SWIDTH 480 0
DWIDTH 12 0
BBX 10 21 1 0
BITMAP
2100
1300
0E00
0E00
0000
C040
C040
C040
C040
C040
C040
C040
FFC0
FFC0
C040
C040
C040
C040
C040
C040
C040
ENDCHAR
STARTCHAR 021F
ENCODING 543
SWIDTH 480 0
DWIDTH 12 0
BBX 10 21 1 0
BITMAP
2100
1200
1E00
0C00
0000
C000
C000
C000
C000
C000
DF00
FB80
E180
E0C0
C0C0
C0C0
C0C0
C0C0
C0C0
C0C0
C0C0
ENDCHAR
STARTCHAR 0220
ENCODING 544
SWIDTH 560 0
DWIDTH 14 0
BBX 12 21 1 -5
BITMAP
DF80
FFE0
F060
E030
C030
C010
C010
C010
C010
C010
C010
C010
C010
C010
C010
C010
0010
0010
0010
0010
0010
ENDCHAR
STARTCHAR 0221
ENCODING 545
SWIDTH 680 0
DWIDTH 17 0
BBX 15 21 1 -5
BITMAP
00C0
00C0
00C0
00C0
00C0
3FC0
7BC0
61C0
C0C0
C0C0
C0C0
C0C6
40CA
61CA
3FCC
1E78
0008
0010
0090
0190
00E0
ENDCHAR
STARTCHAR 0222
ENCODING 546
SWIDTH 480 0
DWIDTH 12 0
BBX 10 16 1 0
BITMAP
C0C0
C0C0
C0C0
6180
3F80
3F00
7B80
6180
C0C0
C0C0
C0C0
C0C0
40C0
6180
3F80
1E00
ENDCHAR
STARTCHAR 0223
ENCODING 547
SWIDTH 400 0
DWIDTH 10 0
BBX 9 16 1 0
BITMAP
C180
C180
C180
C180
6300
7700
3E00
7F00
6300
C180
C180
C180
C180
6300
7F00
3E00
ENDCHAR
STARTCHAR 0224
ENCODING 548
SWIDTH 520 0
DWIDTH 13 0
BBX 11 21 1 -5
BITMAP
FFE0
FFE0
00E0
00C0
0180
0380
0300
0600
0C00
1C00
1800
3000
7000
6000
FFE0
FFE0
0060
0060
0060
03E0
03C0
ENDCHAR
STARTCHAR 0225
ENCODING 549
SWIDTH 400 0
DWIDTH 10 0
BBX 8 16 1 -5
BITMAP
FF
FF
06
0C
1C
18
30
70
60
FF
FF
03
03
03
1E
3C
ENDCHAR
STARTCHAR 0226
ENCODING 550
SWIDTH 640 0
DWIDTH 16 0
BBX 14 20 1 1
BITMAP
0300
0300
0000
0000
0300
0780
0780
0780
0CC0
0CC0
0CC0
1860
1FE0
1FF0
3030
3030
6018
6018
6018
C00C
ENDCHAR
STARTCHAR 0227
ENCODING 551
SWIDTH 400 0
DWIDTH 10 0
BBX 8 15 1 1
BITMAP
18
18
00
00
3E
3F
03
03
3F
7F
E3
C3
C3
7F
3F
ENDCHAR
STARTCHAR 0228
ENCODING 552
SWIDTH 480 0
DWIDTH 12 0
BBX 10 21 1 -5
BITMAP
FFC0
FFC0
C000
C000
C000
C000
C000
FF80
FF80
C000
C000
C000
C000
C000
FFC0
FFC0
0400
0F00
0100
0100
1E00
ENDCHAR
STARTCHAR 0229
ENCODING 553
SWIDTH 480 0
DWIDTH 12 0
BBX 10 16 1 -5
BITMAP
3F00
7B80
6180
C0C0
FFC0
FFC0
C000
6000
6180
3F80
1F00
0C00
0E00
0300
0300
1E00
ENDCHAR
STARTCHAR 022A
ENCODING 554
SWIDTH 600 0
DWIDTH 15 0
BBX 14 21 1 0
BITMAP
0FC0
0FC0
0CC0
0CC0
0CC0
0FC0
1FE0
3030
6038
6018
C018
C00C
C00C
C00C
C00C
4018
6018
6038
3070
1FE0
0FC0
ENDCHAR
STARTCHAR 022B
ENCODING 555
SWIDTH 480 0
DWIDTH 12 0
BBX 10 19 1 0
BITMAP
3F00
3F00
0000
2000
3380
3300
0000
0000
3F00
7B80
6180
C0C0
C0C0
C0C0
C0C0
40C0
6180
3F80
1E00
ENDCHAR
STARTCHAR 022C
ENCODING 556
SWIDTH 600 0
DWIDTH 15 0
BBX 14 21 1 0
BITMAP
0FC0
0FC0
1E20
13E0
10C0
0FC0
1FE0
3030
6038
6018
C018
C00C
C00C
C00C
C00C
4018
6018
6038
3070
1FE0
0FC0
ENDCHAR
STARTCHAR 022D
ENCODING 557
SWIDTH 480 0
DWIDTH 12 0
BBX 10 19 1 0
BITMAP
3F00
3F00
0000
3080
7C80
4780
0000
0000
3F00
7B80
6180
C0C0
C0C0
C0C0
C0C0
40C0
6180
3F80
1E00
ENDCHAR
STARTCHAR 022E
ENCODING 558
SWIDTH 600 0
DWIDTH 15 0
BBX 14 20 1 1
BITMAP
0300
0300
0000
0000
0FC0
1FE0
3030
6038
6018
C018
C00C
C00C
C00C
C00C
4018
6018
6038
3070
1FE0
0FC0
ENDCHAR
STARTCHAR 022F
ENCODING 559
SWIDTH 480 0
DWIDTH 12 0
BBX 10 15 1 1
BITMAP
0C00
0C00
0000
0000
3F00
7B80
6180
C0C0
C0C0
C0C0
C0C0
40C0
6180
3F80
1E00
ENDCHAR
STARTCHAR 0230
ENCODING 560
SWIDTH 600 0
DWIDTH 15 0
BBX 14 21 1 0
BITMAP
0FC0
0FC0
0300
0300
0000
0FC0
1FE0
3030
6038
6018
C018
C00C
C00C
C00C
C00C
4018
6018
6038
3070
1FE0
0FC0
ENDCHAR
STARTCHAR 0231
ENCODING 561
SWIDTH 480 0
DWIDTH 12 0
BBX 10 19 1 0
BITMAP
3F00
3F00
0000
0000
0C00
0C00
0000
0000
3F00
7B80
6180
C0C0
C0C0
C0C0
C0C0
40C0
6180
3F80
1E00
ENDCHAR
STARTCHAR 0232
ENCODING 562
SWIDTH 600 0
DWIDTH 15 0
BBX 12 20 2 0
BITMAP
1F80
1F80
0000
0000
C030
E070
6060
30C0
39C0
1980
0F00
0600
0600
0600
0600
0600
0600
0600
0600
0600
ENDCHAR
STARTCHAR 0233
ENCODING 563
SWIDTH 480 0
DWIDTH 12 0
BBX 10 20 1 -5
BITMAP
3F00
3F00
0000
0000
C0C0
60C0
6180
3180
3180
3300
1B00
1B00
1E00
0E00
0C00
0C00
0C00
1800
7800
7000
ENDCHAR
STARTCHAR 0234
ENCODING 564
SWIDTH 360 0
DWIDTH 9 0
BBX 8 21 0 -5
BITMAP
60
60
60
60
60
60
60
60
60
60
60
63
65
65
66
3C
04
04
48
C8
70
ENDCHAR
STARTCHAR 0235
ENCODING 565
SWIDTH 680 0
DWIDTH 17 0
BBX 15 16 1 -5
BITMAP
DF00
FB80
E180
E0C0
C0C0
C0C0
C0C6
C0CA
C0CA
C0CC
C078
0008
0010
0090
0190
00E0
ENDCHAR
STARTCHAR 0236
ENCODING 566
SWIDTH 440 0
DWIDTH 11 0
BBX 10 19 1 -5
BITMAP
3000
3000
3000
FC00
FC00
3000
3000
3000
3000
31C0
3180
3280
1B80
1E00
0200
0200
2400
2400
3800
ENDCHAR
STARTCHAR 0237
ENCODING 567
SWIDTH 160 0
DWIDTH 4 0
BBX 5 16 -2 -5
BITMAP
18
18
18
18
18
18
18
18
18
18
18
18
18
18
F8
F0
ENDCHAR
STARTCHAR 0238
ENCODING 568
SWIDTH 800 0
DWIDTH 20 0
BBX 18 16 1 0
BITMAP
00C000
00C000
00C000
00C000
00C000
3FFF00
7BF380
61E180
C0C0C0
C0C0C0
C0C0C0
C0C0C0
40C0C0
61E180
3FFF80
1FDE00
ENDCHAR
STARTCHAR 0239
ENCODING 569
SWIDTH 800 0
DWIDTH 20 0
BBX 18 16 1 -6
BITMAP
3FFF00
7BF380
61E180
C0C0C0
C0C0C0
C0C0C0
C0C0C0
40C0C0
61E180
3FFF80
1FDE00
00C000
00C000
00C000
00C000
00C000
ENDCHAR
STARTCHAR 023A
ENCODING 570
SWIDTH 640 0
DWIDTH 16 0
BBX 14 18 1 -1
BITMAP
0008
0318
07B8
07B0
07E0
0CE0
0CC0
0DC0
1B60
1FE0
1FF0
3C30
3C30
7818
7018
7018
E00C
4000
ENDCHAR
STARTCHAR 023B
ENCODING 571
SWIDTH 560 0
DWIDTH 14 0
BBX 13 18 1 -1
BITMAP
0008
0FD8
1FF8
3030
6070
60C0
C0C0
C180
C300
C700
C600
CC00
7C00
7838
3070
7FE0
6FC0
4000
ENDCHAR
STARTCHAR 023C
ENCODING 572
SWIDTH 440 0
DWIDTH 11 0
BBX 10 13 1 -1
BITMAP
00C0
3FC0
7B80
6380
C700
C600
CC00
D800
5800
7180
7F80
FE00
C000
ENDCHAR
STARTCHAR 023D
ENCODING 573
SWIDTH 560 0
DWIDTH 14 0
BBX 12 16 1 0
BITMAP
3000
3000
3000
3000
3000
3000
3000
FC00
FC00
3000
3000
3000
3000
3000
3FF0
3FF0
ENDCHAR
STARTCHAR 023E
ENCODING 574
SWIDTH 480 0
DWIDTH 12 0
BBX 13 18 0 -1
BITMAP
0018
7FF8
7FF0
0660
06E0
06C0
0780
0700
0700
0600
0E00
1E00
1E00
3600
7600
6600
C600
8000
ENDCHAR
STARTCHAR 023F
ENCODING 575
SWIDTH 360 0
DWIDTH 9 0
BBX 12 17 1 -6
BITMAP
3C00
7E00
4600
6000
7800
1E00
0600
0300
C600
7E00
3C00
0600
0700
0300
0390
01F0
00E0
ENDCHAR
STARTCHAR 0240
ENCODING 576
SWIDTH 400 0
DWIDTH 10 0
BBX 11 17 1 -6
BITMAP
FF00
FF00
0600
0C00
1C00
1800
3000
7000
6000
F000
FC00
0C00
0600
0600
0320
03E0
00C0
ENDCHAR
STARTCHAR 0241
ENCODING 577
SWIDTH 480 0
DWIDTH 12 0
BBX 10 16 1 0
BITMAP
1F00
3F80
6180
C0C0
C0C0
C0C0
00C0
00C0
0180
0780
0F00
0C00
0C00
0C00
0C00
0C00
ENDCHAR
STARTCHAR 0242
ENCODING 578
SWIDTH 360 0
DWIDTH 9 0
BBX 7 11 1 0
BITMAP
7C
FE
C6
06
06
0C
18
18
18
18
18
ENDCHAR
STARTCHAR 0243
ENCODING 579
SWIDTH 560 0
DWIDTH 14 0
BBX 12 16 1 0
BITMAP
3FC0
3FE0
3060
3030
3030
3060
3FE0
3FC0
30E0
3030
FC30
FC30
3030
3070
3FE0
3FC0
ENDCHAR
STARTCHAR 0244
ENCODING 580
SWIDTH 680 0
DWIDTH 17 0
BBX 15 16 1 0
BITMAP
600C
600C
600C
600C
600C
600C
600C
FFFE
FFFE
600C
600C
200C
3018
3838
1FF0
07C0
ENDCHAR
STARTCHAR 0245
ENCODING 581
SWIDTH 640 0
DWIDTH 16 0
BBX 14 16 1 0
BITMAP
0300
0780
0780
0780
0CC0
0CC0
0CC0
1860
1860
1830
3030
3030
6018
6018
6018
C00C
ENDCHAR
STARTCHAR 0246
ENCODING 582
SWIDTH 480 0
DWIDTH 12 0
BBX 13 18 0 -1
BITMAP
0018
7FF8
7FF0
6060
60E0
60C0
6180
6300
7FC0
7FC0
6C00
7C00
7800
7000
7000
7FE0
FFE0
8000
ENDCHAR
STARTCHAR 0247
ENCODING 583
SWIDTH 480 0
DWIDTH 12 0
BBX 10 13 1 -1
BITMAP
00C0
3FC0
7B80
6380
C7C0
FFC0
FFC0
D800
5800
7180
7F80
FE00
C000
ENDCHAR
STARTCHAR 0248
ENCODING 584
SWIDTH 440 0
DWIDTH 11 0
BBX 9 16 1 0
BITMAP
0600
0600
0600
0600
0600
0600
0600
1F80
1F80
0600
0600
0600
0600
C600
7E00
7C00
ENDCHAR
STARTCHAR 0249
ENCODING 585
SWIDTH 320 0
DWIDTH 8 0
BBX 7 21 0 -5
BITMAP
08
1C
1C
00
00
0C
0C
0C
0C
7E
7E
0C
0C
0C
0C
0C
0C
0C
18
78
F0
ENDCHAR
STARTCHAR 024A
ENCODING 586
SWIDTH 600 0
DWIDTH 15 0
BBX 17 21 1 -5
BITMAP
0FCC00
1FEC00
303C00
603C00
601C00
C01C00
C00C00
C00C00
C00C00
C00C00
401C00
601C00
603C00
307C00
1FEC00
0FCC00
000C00
000C00
000C00
000F80
000780
ENDCHAR
STARTCHAR 024B
ENCODING 587
SWIDTH 480 0
DWIDTH 12 0
BBX 14 16 1 -5
BITMAP
3FC0
7BC0
61C0
C0C0
C0C0
C0C0
C0C0
40C0
61C0
3FC0
1FC0
00C0
00C0
00C0
0078
003C
ENDCHAR
STARTCHAR 024C
ENCODING 588
SWIDTH 600 0
DWIDTH 15 0
BBX 13 16 1 0
BITMAP
3F80
3FE0
3060
3030
3030
3030
3060
FFC0
FF80
3180
30C0
30C0
3060
3070
3030
3018
ENDCHAR
STARTCHAR 024D
ENCODING 589
SWIDTH 400 0
DWIDTH 10 0
BBX 8 11 1 0
BITMAP
3F
3C
38
30
FC
FC
30
30
30
30
30
ENDCHAR
STARTCHAR 024E
ENCODING 590
SWIDTH 600 0
DWIDTH 15 0
BBX 14 16 1 0
BITMAP
6018
7038
FFFC
FFFC
1CE0
0CC0
0780
0300
0300
0300
0300
0300
0300
0300
0300
0300
ENDCHAR
STARTCHAR 024F
ENCODING 591
SWIDTH 480 0
DWIDTH 12 0
BBX 10 16 1 -5
BITMAP
C0C0
60C0
6180
3180
FFC0
FFC0
1B00
1B00
1E00
0E00
0C00
0C00
0C00
1800
7800
7000
ENDCHAR
STARTCHAR 0250
ENCODING 592
SWIDTH 400 0
DWIDTH 10 0
BBX 8 11 1 0
BITMAP
FE
E6
C3
C3
C7
FE
D8
C0
C0
7E
3C
ENDCHAR
STARTCHAR 0251
ENCODING 593
SWIDTH 480 0
DWIDTH 12 0
BBX 10 11 1 0
BITMAP
3FC0
7BC0
61C0
C0C0
C0C0
C0C0
C0C0
40C0
61C0
3FC0
1FC0
ENDCHAR
STARTCHAR 0252
ENCODING 594
SWIDTH 480 0
DWIDTH 12 0
BBX 10 11 1 0
BITMAP
FF00
FB80
E180
C0C0
C0C0
C0C0
C0C0
C0C0
E180
FF80
DE00
ENDCHAR
STARTCHAR 0253
ENCODING 595
SWIDTH 480 0
DWIDTH 12 0
BBX 10 16 1 0
BITMAP
7C00
7800
C000
C000
C000
FF00
FB80
E180
C0C0
C0C0
C0C0
C0C0
C0C0
E180
FF80
DE00
ENDCHAR
STARTCHAR 0254
ENCODING 596
SWIDTH 440 0
DWIDTH 11 0
BBX 9 11 1 0
BITMAP
3E00
7700
C180
0180
0180
0080
0180
4180
E380
7F00
3E00
ENDCHAR
STARTCHAR 0255
ENCODING 597
SWIDTH 440 0
DWIDTH 11 0
BBX 10 16 1 -5
BITMAP
3F00
7B80
6180
C000
C000
C000
C0C0
4140
6280
3E80
1F00
0200
0200
2200
2400
3800
ENDCHAR
STARTCHAR 0256
ENCODING 598
SWIDTH 480 0
DWIDTH 12 0
BBX 14 21 1 -5
BITMAP
00C0
00C0
00C0
00C0
00C0
3FC0
7BC0
61C0
C0C0
C0C0
C0C0
C0C0
40C0
61C0
3FC0
1FC0
00C0
00C0
00C0
0078
003C
ENDCHAR
STARTCHAR 0257
ENCODING 599
SWIDTH 480 0
DWIDTH 12 0
BBX 14 16 1 0
BITMAP
007C
0078
00C0
00C0
00C0
3FC0
7BC0
61C0
C0C0
C0C0
C0C0
C0C0
40C0
61C0
3FC0
1FC0
ENDCHAR
STARTCHAR 0258
ENCODING 600
SWIDTH 480 0
DWIDTH 12 0
BBX 10 11 1 0
BITMAP
3F00
7B80
6180
C0C0
FFC0
FFC0
00C0
20C0
6180
3F80
1E00
ENDCHAR
STARTCHAR 0259
ENCODING 601
SWIDTH 480 0
DWIDTH 12 0
BBX 10 11 1 0
BITMAP
3F00
7B80
6180
00C0
00C0
FFC0
FFC0
40C0
6180
3F80
1E00
ENDCHAR
STARTCHAR 025A
ENCODING 602
SWIDTH 680 0
DWIDTH 17 0
BBX 15 11 1 0
BITMAP
3F00
7B80
6180
00C2
00F2
FFF2
FFDE
40CC
6180
3F80
1E00
ENDCHAR
STARTCHAR 025B
ENCODING 603
SWIDTH 360 0
DWIDTH 9 0
BBX 7 11 1 0
BITMAP
3C
7E
66
60
78
78
C0
C0
C6
7E
3C
ENDCHAR
STARTCHAR 025C
ENCODING 604
SWIDTH 360 0
DWIDTH 9 0
BBX 8 11 1 0
BITMAP
3C
7E
66
06
1C
1E
06
03
C6
7E
3C
ENDCHAR
STARTCHAR 025D
ENCODING 605
SWIDTH 560 0
DWIDTH 14 0
BBX 12 11 1 0
BITMAP
3C00
7E10
6790
0690
1CE0
1E00
0600
0300
C600
7E00
3C00
ENDCHAR
STARTCHAR 025E
ENCODING 606
SWIDTH 400 0
DWIDTH 10 0
BBX 9 11 1 0
BITMAP
3E00
7F00
6300
C300
CF00
CF00
C180
4180
6180
3F00
1E00
ENDCHAR
STARTCHAR 025F
ENCODING 607
SWIDTH 320 0
DWIDTH 8 0
BBX 7 16 0 -5
BITMAP
18
18
18
18
18
18
18
18
7E
7E
18
18
18
18
F8
F0
ENDCHAR
STARTCHAR 0260
ENCODING 608
SWIDTH 480 0
DWIDTH 12 0
BBX 14 21 1 -5
BITMAP
003C
0078
00C0
00C0
00C0
3FC0
7BC0
61C0
C0C0
C0C0
C0C0
C0C0
40C0
61C0
3FC0
1FC0
00C0
00C0
61C0
7F80
3F00
ENDCHAR
STARTCHAR 0261
ENCODING 609
SWIDTH 480 0
DWIDTH 12 0
BBX 10 16 1 -5
BITMAP
3FC0
7BC0
61C0
C0C0
C0C0
C0C0
C0C0
40C0
61C0
3FC0
1FC0
00C0
00C0
61C0
7F80
3F00
ENDCHAR
STARTCHAR 0262
ENCODING 610
SWIDTH 440 0
DWIDTH 11 0
BBX 9 11 1 0
BITMAP
3F00
7B80
6180
C000
C000
C780
C780
4080
6180
3F80
1E00
ENDCHAR
STARTCHAR 0263
ENCODING 611
SWIDTH 480 0
DWIDTH 12 0
BBX 10 16 1 -5
BITMAP
C0C0
60C0
6180
3180
3180
3300
1B00
1B00
1E00
0E00
0C00
0E00
1E00
1A00
1E00
0E00
ENDCHAR
STARTCHAR 0264
ENCODING 612
SWIDTH 640 0
DWIDTH 16 0
BBX 12 11 2 0
BITMAP
F9F0
D9B0
0F00
0F00
0F00
0600
0600
0F00
0F00
0F00
0F00
ENDCHAR
STARTCHAR 0265
ENCODING 613
SWIDTH 480 0
DWIDTH 12 0
BBX 10 16 1 -6
BITMAP
C0C0
C0C0
C0C0
C0C0
C0C0
C0C0
C0C0
C0C0
61C0
7FC0
3EC0
00C0
00C0
00C0
00C0
00C0
ENDCHAR
STARTCHAR 0266
ENCODING 614
SWIDTH 480 0
DWIDTH 12 0
BBX 10 16 1 0
BITMAP
7C00
7800
C000
C000
C000
DF00
FB80
E180
E0C0
C0C0
C0C0
C0C0
C0C0
C0C0
C0C0
C0C0
ENDCHAR
STARTCHAR 0267
ENCODING 615
SWIDTH 480 0
DWIDTH 12 0
BBX 10 21 1 -5
BITMAP
7C00
7800
C000
C000
C000
DF00
FB80
E180
E0C0
C0C0
C0C0
C0C0
C0C0
C0C0
C0C0
C0C0
00C0
00C0
00C0
0780
0780
ENDCHAR
STARTCHAR 0268
ENCODING 616
SWIDTH 280 0
DWIDTH 7 0
BBX 6 15 1 1
BITMAP
30
30
00
00
30
30
30
30
FC
FC
30
30
30
30
30
ENDCHAR
STARTCHAR 0269
ENCODING 617
SWIDTH 240 0
DWIDTH 6 0
BBX 4 11 1 0
BITMAP
C0
C0
C0
C0
C0
C0
C0
C0
C0
F0
70
ENDCHAR
STARTCHAR 026A
ENCODING 618
SWIDTH 280 0
DWIDTH 7 0
BBX 6 11 1 0
BITMAP
FC
FC
30
30
30
30
30
30
30
FC
FC
ENDCHAR
STARTCHAR 026B
ENCODING 619
SWIDTH 400 0
DWIDTH 10 0
BBX 9 16 1 0
BITMAP
0800
0800
0800
0800
0800
0800
2880
7980
8F00
0800
0800
0800
0800
0800
0E00
0E00
ENDCHAR
STARTCHAR 026C
ENCODING 620
SWIDTH 400 0
DWIDTH 10 0
BBX 9 16 1 0
BITMAP
0C00
0C00
0C00
0C00
7C00
FC00
CD80
CD80
7F00
3E00
0C00
0C00
0C00
0C00
0F00
0F00
ENDCHAR
STARTCHAR 026D
ENCODING 621
SWIDTH 160 0
DWIDTH 4 0
BBX 6 21 1 -5
BITMAP
C0
C0
C0
C0
C0
C0
C0
C0
C0
C0
C0
C0
C0
C0
C0
C0
C0
C0
C0
78
3C
ENDCHAR
STARTCHAR 026E
ENCODING 622
SWIDTH 480 0
DWIDTH 12 0
BBX 10 21 1 -5
BITMAP
C000
C000
C000
C000
C000
FFC0
FFC0
C180
C380
C300
C600
CF00
C180
C0C0
C0C0
C0C0
00C0
00C0
2180
3F80
1E00
ENDCHAR
STARTCHAR 026F
ENCODING 623
SWIDTH 600 0
DWIDTH 15 0
BBX 13 11 1 0
BITMAP
C318
C318
C318
C318
C318
C318
C318
C718
4738
7FF8
39F8
ENDCHAR
STARTCHAR 0270
ENCODING 624
SWIDTH 600 0
DWIDTH 15 0
BBX 13 16 1 -6
BITMAP
C318
C318
C318
C318
C318
C318
C318
C718
4738
7FF8
39F8
0018
0018
0018
0018
0008
ENDCHAR
STARTCHAR 0271
ENCODING 625
SWIDTH 600 0
DWIDTH 15 0
BBX 13 16 1 -5
BITMAP
FCF0
F7B0
E718
C318
C318
C318
C318
C318
C318
C318
C318
0018
0018
0018
00F8
00F0
ENDCHAR
STARTCHAR 0272
ENCODING 626
SWIDTH 480 0
DWIDTH 12 0
BBX 13 16 -2 -5
BITMAP
1BE0
1F70
1C30
1C18
1818
1818
1818
1818
1818
1818
1818
1800
1800
1800
F800
F000
ENDCHAR
STARTCHAR 0273
ENCODING 627
SWIDTH 480 0
DWIDTH 12 0
BBX 14 16 1 -5
BITMAP
DF00
FB80
E180
E0C0
C0C0
C0C0
C0C0
C0C0
C0C0
C0C0
C0C0
00C0
00C0
00C0
0078
003C
ENDCHAR
STARTCHAR 0274
ENCODING 628
SWIDTH 440 0
DWIDTH 11 0
BBX 10 11 1 0
BITMAP
E0C0
E0C0
F0C0
F8C0
D8C0
CCC0
C6C0
C6C0
C3C0
C1C0
C1C0
ENDCHAR
STARTCHAR 0275
ENCODING 629
SWIDTH 480 0
DWIDTH 12 0
BBX 10 11 1 0
BITMAP
3F00
7B80
6180
C0C0
FFC0
FFC0
C0C0
60C0
6180
3F80
1E00
ENDCHAR
STARTCHAR 0276
ENCODING 630
SWIDTH 720 0
DWIDTH 18 0
BBX 16 11 1 0
BITMAP
3FFF
7BFF
61C0
C0C0
C0FE
C0FE
C0C0
40C0
61C0
3FFF
1FFF
ENDCHAR
STARTCHAR 0277
ENCODING 631
SWIDTH 600 0
DWIDTH 15 0
BBX 13 11 1 0
BITMAP
3FE0
7070
6018
C018
C018
C318
C318
C718
6710
7DF0
3CE0
ENDCHAR
STARTCHAR 0278
ENCODING 632
SWIDTH 480 0
DWIDTH 12 0
BBX 10 21 1 -6
BITMAP
0C00
0C00
0C00
0C00
0C00
3F00
7F80
6D80
CCC0
CCC0
CCC0
CCC0
4CC0
6D80
3F80
1F00
0C00
0C00
0C00
0C00
0400
ENDCHAR
STARTCHAR 0279
ENCODING 633
SWIDTH 320 0
DWIDTH 8 0
BBX 6 11 1 0
BITMAP
0C
0C
0C
0C
0C
0C
0C
0C
1C
7C
FC
ENDCHAR
STARTCHAR 027A
ENCODING 634
SWIDTH 320 0
DWIDTH 8 0
BBX 6 16 1 0
BITMAP
0C
0C
0C
0C
0C
0C
0C
0C
0C
0C
0C
0C
0C
1C
7C
FC
ENDCHAR
STARTCHAR 027B
ENCODING 635
SWIDTH 320 0
DWIDTH 8 0
BBX 10 16 1 -5
BITMAP
0C00
0C00
0C00
0C00
0C00
0C00
0C00
0C00
1C00
7C00
FC00
0C00
0C00
0600
0780
03C0
ENDCHAR
STARTCHAR 027C
ENCODING 636
SWIDTH 320 0
DWIDTH 8 0
BBX 6 16 1 -6
BITMAP
DC
F8
E0
C0
C0
C0
C0
C0
C0
C0
C0
C0
C0
C0
C0
40
ENDCHAR
STARTCHAR 027D
ENCODING 637
SWIDTH 320 0
DWIDTH 8 0
BBX 6 16 1 -5
BITMAP
DC
F8
E0
C0
C0
C0
C0
C0
C0
C0
C0
C0
C0
C0
78
3C
ENDCHAR
STARTCHAR 027E
ENCODING 638
SWIDTH 320 0
DWIDTH 8 0
BBX 6 11 1 0
BITMAP
7C
68
C0
C0
C0
C0
C0
C0
C0
C0
C0
ENDCHAR
STARTCHAR 027F
ENCODING 639
SWIDTH 320 0
DWIDTH 8 0
BBX 6 16 1 -6
BITMAP
F8
5C
0C
0C
0C
0C
0C
0C
0C
0C
0C
0C
0C
0C
0C
0C
ENDCHAR
STARTCHAR 0280
ENCODING 640
SWIDTH 400 0
DWIDTH 10 0
BBX 8 11 1 0
BITMAP
FC
FE
C6
C6
CE
FC
FC
CC
C6
C6
C3
ENDCHAR
STARTCHAR 0281
ENCODING 641
SWIDTH 400 0
DWIDTH 10 0
BBX 8 11 1 0
BITMAP
C3
C6
CE
CC
F8
FC
C6
C6
C6
FC
F8
ENDCHAR
STARTCHAR 0282
ENCODING 642
SWIDTH 360 0
DWIDTH 9 0
BBX 8 16 1 -5
BITMAP
3C
7E
46
60
78
1E
06
03
C6
FE
FC
C0
C0
C0
78
3C
ENDCHAR
STARTCHAR 0283
ENCODING 643
SWIDTH 160 0
DWIDTH 4 0
BBX 9 21 -2 -5
BITMAP
0F80
0F00
1800
1800
1800
1800
1800
1800
1800
1800
1800
1800
1800
1800
1800
1800
1800
1800
1800
F800
F000
ENDCHAR
STARTCHAR 0284
ENCODING 644
SWIDTH 160 0
DWIDTH 4 0
BBX 9 21 -2 -5
BITMAP
0F80
0F00
1800
1800
1800
1800
1800
1800
1800
1800
1800
1800
1800
1800
FF00
FF00
1800
1800
1800
F800
F000
ENDCHAR
STARTCHAR 0285
ENCODING 645
SWIDTH 320 0
DWIDTH 8 0
BBX 9 16 1 -5
BITMAP
F800
5C00
0C00
0C00
0C00
0C00
0C00
0C00
0C00
0C00
0C00
0C00
0C00
0C00
0780
0780
ENDCHAR
STARTCHAR 0286
ENCODING 646
SWIDTH 440 0
DWIDTH 11 0
BBX 9 21 1 -5
BITMAP
0780
0F00
1800
1800
1800
1800
1800
1800
1800
1800
1800
1800
1800
1800
3C00
FE00
DF00
DB00
D800
F800
7000
ENDCHAR
STARTCHAR 0287
ENCODING 647
SWIDTH 320 0
DWIDTH 8 0
BBX 6 14 1 -3
BITMAP
F0
F0
30
30
30
30
30
30
30
FC
FC
30
30
20
ENDCHAR
STARTCHAR 0288
ENCODING 648
SWIDTH 320 0
DWIDTH 8 0
BBX 8 19 1 -5
BITMAP
30
30
30
FC
FC
30
30
30
30
30
30
30
30
30
30
30
10
1E
0F
ENDCHAR
STARTCHAR 0289
ENCODING 649
SWIDTH 600 0
DWIDTH 15 0
BBX 14 11 1 0
BITMAP
3030
3030
3030
3030
FFFC
FFFC
3030
3070
1870
1FF0
0FB0
ENDCHAR
STARTCHAR 028A
ENCODING 650
SWIDTH 480 0
DWIDTH 12 0
BBX 10 11 1 0
BITMAP
F3C0
F3C0
6180
C0C0
C0C0
C0C0
C0C0
40C0
6180
3F80
1E00
ENDCHAR
STARTCHAR 028B
ENCODING 651
SWIDTH 440 0
DWIDTH 11 0
BBX 9 11 1 0
BITMAP
C700
6380
6180
3180
3180
3300
1B00
1B00
1E00
0E00
0C00
ENDCHAR
STARTCHAR 028C
ENCODING 652
SWIDTH 480 0
DWIDTH 12 0
BBX 10 11 1 0
BITMAP
0E00
0E00
1E00
1B00
1B00
3300
3180
6180
6180
60C0
C0C0
ENDCHAR
STARTCHAR 028D
ENCODING 653
SWIDTH 640 0
DWIDTH 16 0
BBX 14 11 1 0
BITMAP
1860
1C70
3C70
3CF0
3CD0
36D8
6798
6798
638C
638C
C30C
ENDCHAR
STARTCHAR 028E
ENCODING 654
SWIDTH 480 0
DWIDTH 12 0
BBX 10 16 1 0
BITMAP
03C0
0380
0600
0600
0C00
0E00
0E00
1E00
1B00
1B00
3300
3180
6180
6180
60C0
C0C0
ENDCHAR
STARTCHAR 028F
ENCODING 655
SWIDTH 480 0
DWIDTH 12 0
BBX 9 11 2 0
BITMAP
C180
E300
6600
3E00
1C00
1800
1800
1800
1800
1800
1800
ENDCHAR
STARTCHAR 0290
ENCODING 656
SWIDTH 400 0
DWIDTH 10 0
BBX 11 16 1 -5
BITMAP
FF00
FF00
0600
0C00
1C00
1800
3000
7000
6000
FF00
FF00
0300
0300
0300
03E0
01E0
ENDCHAR
STARTCHAR 0291
ENCODING 657
SWIDTH 400 0
DWIDTH 10 0
BBX 9 16 1 -5
BITMAP
FF00
FF00
0600
0C00
1C00
1800
3380
7280
6500
FF00
FE00
0400
0400
4400
6800
3000
ENDCHAR
STARTCHAR 0292
ENCODING 658
SWIDTH 400 0
DWIDTH 10 0
BBX 9 16 1 -5
BITMAP
FF80
FF80
0300
0600
0E00
0C00
1E00
0700
0300
0180
0180
0180
0300
4300
FE00
3C00
ENDCHAR
STARTCHAR 0293
ENCODING 659
SWIDTH 440 0
DWIDTH 11 0
BBX 10 21 0 -10
BITMAP
7FC0
7FC0
0180
0300
0700
0600
0F00
0380
0180
00C0
80C0
C0C0
A180
6180
7F00
1E00
1000
1000
1300
1300
0E00
ENDCHAR
STARTCHAR 0294
ENCODING 660
SWIDTH 400 0
DWIDTH 10 0
BBX 9 16 1 0
BITMAP
3E00
7700
E180
C180
0180
0180
0300
0700
0E00
0C00
0C00
0800
0800
0800
0800
0800
ENDCHAR
STARTCHAR 0295
ENCODING 661
SWIDTH 400 0
DWIDTH 10 0
BBX 9 16 1 0
BITMAP
3E00
7700
C380
C180
C000
C000
6000
7000
3800
1800
1800
0800
0800
0800
0800
0800
ENDCHAR
STARTCHAR 0296
ENCODING 662
SWIDTH 400 0
DWIDTH 10 0
BBX 9 16 1 0
BITMAP
0800
0800
0800
0800
0800
0C00
0C00
0E00
0700
0300
0180
0180
C180
6380
7F00
3E00
ENDCHAR
STARTCHAR 0297
ENCODING 663
SWIDTH 480 0
DWIDTH 12 0
BBX 9 16 1 -5
BITMAP
1F00
3B80
6180
6000
4000
C000
C000
C000
C000
C000
C000
6000
6080
3180
3F00
1E00
ENDCHAR
STARTCHAR 0298
ENCODING 664
SWIDTH 480 0
DWIDTH 12 0
BBX 10 16 1 0
BITMAP
1E00
3F00
6180
6180
40C0
C0C0
C0C0
CCC0
CCC0
C0C0
C0C0
60C0
6180
7180
3F00
1E00
ENDCHAR
STARTCHAR 0299
ENCODING 665
SWIDTH 400 0
DWIDTH 10 0
BBX 8 11 1 0
BITMAP
FE
FE
C3
C7
FE
FF
C3
C3
C3
FF
FC
ENDCHAR
STARTCHAR 029A
ENCODING 666
SWIDTH 400 0
DWIDTH 10 0
BBX 9 11 1 0
BITMAP
3E00
7F00
6300
6180
7980
7980
C180
C300
C300
7E00
3C00
ENDCHAR
STARTCHAR 029B
ENCODING 667
SWIDTH 440 0
DWIDTH 11 0
BBX 13 16 1 0
BITMAP
0078
00F0
00C0
0080
0080
3F80
7B80
6180
C080
C000
C780
C780
4080
6180
3F80
1E00
ENDCHAR
STARTCHAR 029C
ENCODING 668
SWIDTH 400 0
DWIDTH 10 0
BBX 9 11 1 0
BITMAP
C180
C180
C180
C180
FF80
FF80
C180
C180
C180
C180
C180
ENDCHAR
STARTCHAR 029D
ENCODING 669
SWIDTH 400 0
DWIDTH 10 0
BBX 9 20 1 -4
BITMAP
0C00
0C00
0000
0000
0C00
0C00
0C00
0C00
0C00
0C00
0C00
0C00
0C00
3C00
7F00
EF00
CD80
CC00
7800
7800
ENDCHAR
STARTCHAR 029E
ENCODING 670
SWIDTH 400 0
DWIDTH 10 0
BBX 8 16 2 -5
BITMAP
C3
E3
63
33
1F
1F
0F
1B
33
73
63
03
03
03
03
03
ENDCHAR
STARTCHAR 029F
ENCODING 671
SWIDTH 360 0
DWIDTH 9 0
BBX 7 11 1 0
BITMAP
C0
C0
C0
C0
C0
C0
C0
C0
C0
FE
FE
ENDCHAR
STARTCHAR 02A0
ENCODING 672
SWIDTH 480 0
DWIDTH 12 0
BBX 14 21 1 -6
BITMAP
003C
0078
00C0
00C0
00C0
3FC0
7BC0
61C0
C0C0
C0C0
C0C0
C0C0
40C0
61C0
3FC0
1FC0
00C0
00C0
00C0
00C0
00C0
ENDCHAR
STARTCHAR 02A1
ENCODING 673
SWIDTH 400 0
DWIDTH 10 0
BBX 9 16 1 0
BITMAP
3E00
7700
E180
C180
0180
0180
0300
0700
0E00
7F00
7F00
0800
0800
0800
0800
0800
ENDCHAR
STARTCHAR 02A2
ENCODING 674
SWIDTH 400 0
DWIDTH 10 0
BBX 9 16 1 0
BITMAP
3E00
7700
C380
C180
C000
C000
6000
7000
3800
7F00
7F00
0800
0800
0800
0800
0800
ENDCHAR
STARTCHAR 02A3
ENCODING 675
SWIDTH 760 0
DWIDTH 19 0
BBX 18 16 1 0
BITMAP
00C000
00C000
00C000
00C000
00C000
3FFFC0
7BFFC0
61C180
C0C300
C0C700
C0C600
C0CC00
40D800
61F800
3FFFC0
1FFFC0
ENDCHAR
STARTCHAR 02A4
ENCODING 676
SWIDTH 760 0
DWIDTH 19 0
BBX 17 21 1 -5
BITMAP
00C000
00C000
00C000
00C000
00C000
3FFF80
7BFF80
61C380
C0C300
C0C600
C0CE00
C0CF00
40C300
61C180
3FC180
1FC180
000180
000180
002380
007F00
003E00
ENDCHAR
STARTCHAR 02A5
ENCODING 677
SWIDTH 800 0
DWIDTH 20 0
BBX 19 21 1 -5
BITMAP
00C000
00C000
00C000
00C000
00C000
3FFFC0
7BFFC0
61C180
C0C300
C0C700
C0C600
C0CCE0
40D940
61F940
3FFFC0
1FFF00
000100
000100
001200
001200
001C00
ENDCHAR
STARTCHAR 02A6
ENCODING 678
SWIDTH 600 0
DWIDTH 15 0
BBX 14 14 1 0
BITMAP
1000
3000
3000
FCF0
FDF8
3198
3180
31E0
3078
3018
300C
301C
3FF8
1FF0
ENDCHAR
STARTCHAR 02A7
ENCODING 679
SWIDTH 440 0
DWIDTH 11 0
BBX 13 21 1 -5
BITMAP
0078
00F0
1080
3080
3080
FC80
FC80
3080
3080
3080
3080
3080
3080
3080
3F80
1F80
0080
0080
0180
0F80
0F00
ENDCHAR
STARTCHAR 02A8
ENCODING 680
SWIDTH 680 0
DWIDTH 17 0
BBX 16 19 1 -5
BITMAP
1000
3000
3000
FCFC
FCEE
3186
3100
3300
3300
3303
3185
318A
3FFA
1FFC
0008
0008
0008
00D0
00F0
ENDCHAR
STARTCHAR 02A9
ENCODING 681
SWIDTH 720 0
DWIDTH 18 0
BBX 16 21 1 -5
BITMAP
0F00
1E00
3000
3000
3000
337C
FFEE
FF83
3383
3303
3303
3303
3303
3303
3303
3303
0003
0003
0003
001F
001E
ENDCHAR
STARTCHAR 02AA
ENCODING 682
SWIDTH 480 0
DWIDTH 12 0
BBX 10 16 1 0
BITMAP
C000
C000
C000
C000
C000
CF80
DF80
D8C0
D800
CE00
C780
C1C0
C0C0
C0C0
FF80
7F00
ENDCHAR
STARTCHAR 02AB
ENCODING 683
SWIDTH 520 0
DWIDTH 13 0
BBX 11 16 1 0
BITMAP
C000
C000
C000
C000
C000
CFE0
CFE0
C0E0
C0C0
C180
C300
C300
C600
CC00
FFE0
7FE0
ENDCHAR
STARTCHAR 02AC
ENCODING 684
SWIDTH 360 0
DWIDTH 9 0
BBX 8 12 1 0
BITMAP
DB
5A
5A
7E
6C
24
DB
5A
5A
7E
6C
24
ENDCHAR
STARTCHAR 02AD
ENCODING 685
SWIDTH 400 0
DWIDTH 10 0
BBX 9 11 1 0
BITMAP
FF80
FF80
C180
0000
0000
0000
0000
FF80
FF80
C180
C180
ENDCHAR
STARTCHAR 02AE
ENCODING 686
SWIDTH 640 0
DWIDTH 16 0
BBX 14 16 1 -6
BITMAP
F80C
5C0C
0C0C
0C0C
0C0C
0C0C
0C0C
0C1C
061C
07FC
03EC
000C
000C
000C
000C
000C
ENDCHAR
STARTCHAR 02AF
ENCODING 687
SWIDTH 640 0
DWIDTH 16 0
BBX 17 16 1 -5
BITMAP
F80C00
5C0C00
0C0C00
0C0C00
0C0C00
0C0C00
0C0C00
0C1C00
061C00
07FC00
03EC00
000C00
000C00
000C00
000F80
000780
ENDCHAR
STARTCHAR 02B0
ENCODING 688
SWIDTH 280 0
DWIDTH 7 0
BBX 5 8 1 11
BITMAP
C0
C0
F8
C8
C8
C8
C8
C8
ENDCHAR
STARTCHAR 02B1
ENCODING 689
SWIDTH 280 0
DWIDTH 7 0
BBX 5 9 1 11
BITMAP
20
E0
C0
F8
C8
C8
C8
C8
C8
ENDCHAR
STARTCHAR 02B2
ENCODING 690
SWIDTH 200 0
DWIDTH 5 0
BBX 3 10 2 8
BITMAP
60
00
60
60
60
60
60
60
60
C0
ENDCHAR
STARTCHAR 02B3
ENCODING 691
SWIDTH 200 0
DWIDTH 5 0
BBX 4 6 1 11
BITMAP
F0
C0
C0
C0
C0
C0
ENDCHAR
STARTCHAR 02B4
ENCODING 692
SWIDTH 200 0
DWIDTH 5 0
BBX 4 6 1 11
BITMAP
30
30
30
30
30
F0
ENDCHAR
STARTCHAR 02B5
ENCODING 693
SWIDTH 280 0
DWIDTH 7 0
BBX 5 8 1 8
BITMAP
30
30
30
30
30
F0
30
18
ENDCHAR
STARTCHAR 02B6
ENCODING 694
SWIDTH 240 0
DWIDTH 6 0
BBX 4 6 1 11
BITMAP
D0
F0
E0
F0
D0
E0
ENDCHAR
STARTCHAR 02B7
ENCODING 695
SWIDTH 360 0
DWIDTH 9 0
BBX 8 6 1 11
BITMAP
DB
5A
5A
7E
6C
24
ENDCHAR
STARTCHAR 02B8
ENCODING 696
SWIDTH 320 0
DWIDTH 8 0
BBX 6 8 1 8
BITMAP
CC
48
78
38
30
30
20
60
ENDCHAR
STARTCHAR 02B9
ENCODING 697
SWIDTH 240 0
DWIDTH 6 0
BBX 4 7 1 10
BITMAP
70
60
60
40
40
80
80
ENDCHAR
STARTCHAR 02BA
ENCODING 698
SWIDTH 360 0
DWIDTH 9 0
BBX 7 7 1 10
BITMAP
76
66
64
4C
48
88
88
ENDCHAR
STARTCHAR 02BB
ENCODING 699
SWIDTH 200 0
DWIDTH 5 0
BBX 3 6 1 10
BITMAP
20
C0
80
80
E0
E0
ENDCHAR
STARTCHAR 02BC
ENCODING 700
SWIDTH 200 0
DWIDTH 5 0
BBX 4 6 1 10
BITMAP
E0
E0
30
20
20
C0
ENDCHAR
STARTCHAR 02BD
ENCODING 701
SWIDTH 200 0
DWIDTH 5 0
BBX 3 6 1 10
BITMAP
E0
E0
80
80
80
60
ENDCHAR
STARTCHAR 02BE
ENCODING 702
SWIDTH 160 0
DWIDTH 4 0
BBX 2 4 1 12
BITMAP
C0
40
40
80
ENDCHAR
STARTCHAR 02BF
ENCODING 703
SWIDTH 160 0
DWIDTH 4 0
BBX 2 4 1 12
BITMAP
40
80
C0
40
ENDCHAR
STARTCHAR 02C0
ENCODING 704
SWIDTH 280 0
DWIDTH 7 0
BBX 5 9 1 11
BITMAP
20
78
C8
18
10
30
20
20
20
ENDCHAR
STARTCHAR 02C1
ENCODING 705
SWIDTH 280 0
DWIDTH 7 0
BBX 5 9 1 11
BITMAP
20
70
C8
C0
40
20
20
20
20
ENDCHAR
STARTCHAR 02C2
ENCODING 706
SWIDTH 360 0
DWIDTH 9 0
BBX 6 8 2 4
BITMAP
0C
18
78
F0
F0
38
18
04
ENDCHAR
STARTCHAR 02C3
ENCODING 707
SWIDTH 360 0
DWIDTH 9 0
BBX 7 10 1 3
BITMAP
80
40
70
38
3E
3E
38
70
40
80
ENDCHAR
STARTCHAR 02C4
ENCODING 708
SWIDTH 480 0
DWIDTH 12 0
BBX 8 6 2 5
BITMAP
18
1C
3C
7E
67
81
ENDCHAR
STARTCHAR 02C5
ENCODING 709
SWIDTH 480 0
DWIDTH 12 0
BBX 9 7 1 4
BITMAP
8000
6080
3B80
3F00
1E00
0E00
0C00
ENDCHAR
STARTCHAR 02C6
ENCODING 710
SWIDTH 320 0
DWIDTH 8 0
BBX 6 4 1 12
BITMAP
38
68
44
80
ENDCHAR
STARTCHAR 02C7
ENCODING 711
SWIDTH 320 0
DWIDTH 8 0
BBX 6 4 1 12
BITMAP
84
4C
38
38
ENDCHAR
STARTCHAR 02C8
ENCODING 712
SWIDTH 120 0
DWIDTH 3 0
BBX 1 7 1 12
BITMAP
80
80
80
80
80
80
80
ENDCHAR
STARTCHAR 02C9
ENCODING 713
SWIDTH 320 0
DWIDTH 8 0
BBX 6 2 1 13
BITMAP
FC
FC
ENDCHAR
STARTCHAR 02CA
ENCODING 714
SWIDTH 240 0
DWIDTH 6 0
BBX 4 4 1 12
BITMAP
30
60
40
80
ENDCHAR
STARTCHAR 02CB
ENCODING 715
SWIDTH 240 0
DWIDTH 6 0
BBX 3 3 2 12
BITMAP
C0
40
20
ENDCHAR
STARTCHAR 02CC
ENCODING 716
SWIDTH 120 0
DWIDTH 3 0
BBX 1 6 1 -7
BITMAP
80
80
80
80
80
80
ENDCHAR
STARTCHAR 02CD
ENCODING 717
SWIDTH 320 0
DWIDTH 8 0
BBX 6 2 1 -4
BITMAP
FC
FC
ENDCHAR
STARTCHAR 02CE
ENCODING 718
SWIDTH 240 0
DWIDTH 6 0
BBX 4 3 1 -5
BITMAP
E0
20
10
ENDCHAR
STARTCHAR 02CF
ENCODING 719
SWIDTH 240 0
DWIDTH 6 0
BBX 4 4 1 -5
BITMAP
30
60
40
80
ENDCHAR
STARTCHAR 02D0
ENCODING 720
SWIDTH 240 0
DWIDTH 6 0
BBX 4 11 1 0
BITMAP
70
60
20
00
00
00
00
00
60
60
F0
ENDCHAR
STARTCHAR 02D1
ENCODING 721
SWIDTH 240 0
DWIDTH 6 0
BBX 3 3 2 7
BITMAP
E0
C0
40
ENDCHAR
STARTCHAR 02D2
ENCODING 722
SWIDTH 160 0
DWIDTH 4 0
BBX 2 4 1 6
BITMAP
C0
40
40
C0
ENDCHAR
STARTCHAR 02D3
ENCODING 723
SWIDTH 160 0
DWIDTH 4 0
BBX 2 4 1 6
BITMAP
40
C0
C0
40
ENDCHAR
STARTCHAR 02D4
ENCODING 724
SWIDTH 400 0
DWIDTH 10 0
BBX 9 5 1 7
BITMAP
0800
0800
0800
FF80
FF80
ENDCHAR
STARTCHAR 02D5
ENCODING 725
SWIDTH 400 0
DWIDTH 10 0
BBX 9 5 1 4
BITMAP
FF80
FF80
0800
0800
0800
ENDCHAR
STARTCHAR 02D6
ENCODING 726
SWIDTH 400 0
DWIDTH 10 0
BBX 9 8 1 4
BITMAP
0800
0800
0800
FF80
FF80
0800
0800
0800
ENDCHAR
STARTCHAR 02D7
ENCODING 727
SWIDTH 400 0
DWIDTH 10 0
BBX 9 2 1 7
BITMAP
FF80
FF80
ENDCHAR
STARTCHAR 02D8
ENCODING 728
SWIDTH 360 0
DWIDTH 9 0
BBX 7 3 1 13
BITMAP
C6
46
7C
ENDCHAR
STARTCHAR 02D9
ENCODING 729
SWIDTH 200 0
DWIDTH 5 0
BBX 3 3 1 13
BITMAP
40
E0
E0
ENDCHAR
STARTCHAR 02DA
ENCODING 730
SWIDTH 240 0
DWIDTH 6 0
BBX 4 4 1 12
BITMAP
70
D0
D0
70
ENDCHAR
STARTCHAR 02DB
ENCODING 731
SWIDTH 280 0
DWIDTH 7 0
BBX 5 5 1 -5
BITMAP
40
80
C0
C0
78
ENDCHAR
STARTCHAR 02DC
ENCODING 732
SWIDTH 400 0
DWIDTH 10 0
BBX 9 3 1 13
BITMAP
7080
F980
8F00
ENDCHAR
STARTCHAR 02DD
ENCODING 733
SWIDTH 400 0
DWIDTH 10 0
BBX 8 4 1 12
BITMAP
37
66
4C
80
ENDCHAR
STARTCHAR 02DE
ENCODING 734
SWIDTH 240 0
DWIDTH 6 0
BBX 5 5 0 3
BITMAP
08
48
C8
78
30
ENDCHAR
STARTCHAR 02DF
ENCODING 735
SWIDTH 320 0
DWIDTH 8 0
BBX 5 5 2 12
BITMAP
80
D0
60
70
98
ENDCHAR
STARTCHAR 02E0
ENCODING 736
SWIDTH 320 0
DWIDTH 8 0
BBX 6 8 1 8
BITMAP
CC
48
68
78
30
30
30
30
ENDCHAR
STARTCHAR 02E1
ENCODING 737
SWIDTH 160 0
DWIDTH 4 0
BBX 2 8 1 11
BITMAP
C0
C0
C0
C0
C0
C0
C0
C0
ENDCHAR
STARTCHAR 02E2
ENCODING 738
SWIDTH 240 0
DWIDTH 6 0
BBX 4 6 1 11
BITMAP
70
D0
60
30
D0
70
ENDCHAR
STARTCHAR 02E3
ENCODING 739
SWIDTH 320 0
DWIDTH 8 0
BBX 5 6 2 11
BITMAP
98
F0
60
60
F0
98
ENDCHAR
STARTCHAR 02E4
ENCODING 740
SWIDTH 280 0
DWIDTH 7 0
BBX 5 9 1 11
BITMAP
20
70
C8
C0
40
20
20
20
20
ENDCHAR
STARTCHAR 02E5
ENCODING 741
SWIDTH 320 0
DWIDTH 8 0
BBX 6 16 1 0
BITMAP
FC
7C
0C
0C
0C
0C
0C
0C
0C
0C
0C
0C
0C
0C
0C
0C
ENDCHAR
STARTCHAR 02E6
ENCODING 742
SWIDTH 320 0
DWIDTH 8 0
BBX 6 16 1 0
BITMAP
0C
0C
0C
7C
FC
0C
0C
0C
0C
0C
0C
0C
0C
0C
0C
0C
ENDCHAR
STARTCHAR 02E7
ENCODING 743
SWIDTH 320 0
DWIDTH 8 0
BBX 6 16 1 0
BITMAP
0C
0C
0C
0C
0C
0C
0C
FC
FC
0C
0C
0C
0C
0C
0C
0C
ENDCHAR
STARTCHAR 02E8
ENCODING 744
SWIDTH 320 0
DWIDTH 8 0
BBX 6 16 1 0
BITMAP
0C
0C
0C
0C
0C
0C
0C
0C
0C
0C
0C
FC
0C
0C
0C
0C
ENDCHAR
STARTCHAR 02E9
ENCODING 745
SWIDTH 320 0
DWIDTH 8 0
BBX 6 16 1 0
BITMAP
0C
0C
0C
0C
0C
0C
0C
0C
0C
0C
0C
0C
0C
0C
FC
FC
ENDCHAR
STARTCHAR 02EA
ENCODING 746
SWIDTH 280 0
DWIDTH 7 0
BBX 6 11 1 0
BITMAP
C0
C0
C0
C0
C0
C0
C0
C0
C0
FC
FC
ENDCHAR
STARTCHAR 02EB
ENCODING 747
SWIDTH 280 0
DWIDTH 7 0
BBX 6 11 1 0
BITMAP
C0
C0
C0
C0
FC
FC
C0
C0
C0
C0
C0
ENDCHAR
STARTCHAR 02EC
ENCODING 748
SWIDTH 320 0
DWIDTH 8 0
BBX 6 4 1 -5
BITMAP
80
44
68
38
ENDCHAR
STARTCHAR 02ED
ENCODING 749
SWIDTH 320 0
DWIDTH 8 0
BBX 6 3 1 14
BITMAP
FC
00
FC
ENDCHAR
STARTCHAR 02EE
ENCODING 750
SWIDTH 360 0
DWIDTH 9 0
BBX 8 6 1 10
BITMAP
EE
EE
33
22
22
CC
ENDCHAR
STARTCHAR 02EF
ENCODING 751
SWIDTH 280 0
DWIDTH 7 0
BBX 5 4 1 -5
BITMAP
80
78
30
20
ENDCHAR
STARTCHAR 02F0
ENCODING 752
SWIDTH 280 0
DWIDTH 7 0
BBX 5 4 1 -5
BITMAP
20
30
70
88
ENDCHAR
STARTCHAR 02F1
ENCODING 753
SWIDTH 240 0
DWIDTH 6 0
BBX 4 5 1 -6
BITMAP
10
20
E0
60
10
ENDCHAR
STARTCHAR 02F2
ENCODING 754
SWIDTH 240 0
DWIDTH 6 0
BBX 4 5 1 -6
BITMAP
80
40
70
60
80
ENDCHAR
STARTCHAR 02F3
ENCODING 755
SWIDTH 240 0
DWIDTH 6 0
BBX 4 4 1 -5
BITMAP
70
D0
D0
70
ENDCHAR
STARTCHAR 02F4
ENCODING 756
SWIDTH 240 0
DWIDTH 6 0
BBX 3 3 2 6
BITMAP
C0
40
20
ENDCHAR
STARTCHAR 02F5
ENCODING 757
SWIDTH 400 0
DWIDTH 10 0
BBX 7 4 2 6
BITMAP
D8
4C
26
02
ENDCHAR
STARTCHAR 02F6
ENCODING 758
SWIDTH 400 0
DWIDTH 10 0
BBX 8 4 1 6
BITMAP
33
66
44
88
ENDCHAR
STARTCHAR 02F7
ENCODING 759
SWIDTH 400 0
DWIDTH 10 0
BBX 9 3 1 -5
BITMAP
7880
CF00
8200
ENDCHAR
STARTCHAR 02F8
ENCODING 760
SWIDTH 200 0
DWIDTH 5 0
BBX 3 11 1 5
BITMAP
E0
E0
00
00
00
00
00
00
00
E0
E0
ENDCHAR
STARTCHAR 02F9
ENCODING 761
SWIDTH 280 0
DWIDTH 7 0
BBX 6 7 1 9
BITMAP
FC
FC
C0
C0
C0
C0
C0
ENDCHAR
STARTCHAR 02FA
ENCODING 762
SWIDTH 280 0
DWIDTH 7 0
BBX 6 7 1 9
BITMAP
FC
FC
0C
0C
0C
0C
0C
ENDCHAR
STARTCHAR 02FB
ENCODING 763
SWIDTH 280 0
DWIDTH 7 0
BBX 6 7 1 0
BITMAP
C0
C0
C0
C0
C0
FC
FC
ENDCHAR
STARTCHAR 02FC
ENCODING 764
SWIDTH 280 0
DWIDTH 7 0
BBX 6 7 1 0
BITMAP
0C
0C
0C
0C
0C
FC
FC
ENDCHAR
STARTCHAR 02FD
ENCODING 765
SWIDTH 320 0
DWIDTH 8 0
BBX 6 3 1 -4
BITMAP
84
FC
FC
ENDCHAR
STARTCHAR 02FE
ENCODING 766
SWIDTH 320 0
DWIDTH 8 0
BBX 6 3 1 -4
BITMAP
80
FC
FC
ENDCHAR
STARTCHAR 02FF
ENCODING 767
SWIDTH 480 0
DWIDTH 12 0
BBX 10 5 1 -5
BITMAP
1000
2000
FFC0
6000
1000
ENDCHAR
STARTCHAR 0300
ENCODING 768
SWIDTH 0 0
DWIDTH 0 0
BBX 4 4 -2 12
BITMAP
C0
40
20
10
ENDCHAR
STARTCHAR 0301
ENCODING 769
SWIDTH 0 0
DWIDTH 0 0
BBX 4 4 -2 12
BITMAP
30
20
40
80
ENDCHAR
STARTCHAR 0302
ENCODING 770
SWIDTH 0 0
DWIDTH 0 0
BBX 6 4 -3 12
BITMAP
78
78
CC
84
ENDCHAR
STARTCHAR 0303
ENCODING 771
SWIDTH 0 0
DWIDTH 0 0
BBX 8 3 -4 13
BITMAP
61
F9
8F
ENDCHAR
STARTCHAR 0304
ENCODING 772
SWIDTH 0 0
DWIDTH 0 0
BBX 6 2 -3 13
BITMAP
FC
FC
ENDCHAR
STARTCHAR 0306
ENCODING 774
SWIDTH 0 0
DWIDTH 0 0
BBX 6 3 -3 13
BITMAP
84
CC
78
ENDCHAR
STARTCHAR 0307
ENCODING 775
SWIDTH 0 0
DWIDTH 0 0
BBX 2 2 -1 14
BITMAP
C0
C0
ENDCHAR
STARTCHAR 0308
ENCODING 776
SWIDTH 0 0
DWIDTH 0 0
BBX 6 2 -3 14
BITMAP
CC
CC
ENDCHAR
STARTCHAR 0309
ENCODING 777
SWIDTH 0 0
DWIDTH 0 0
BBX 4 5 -2 12
BITMAP
60
90
90
30
20
ENDCHAR
STARTCHAR 030A
ENCODING 778
SWIDTH 0 0
DWIDTH 0 0
BBX 4 4 -2 12
BITMAP
F0
90
F0
60
ENDCHAR
STARTCHAR 030B
ENCODING 779
SWIDTH 0 0
DWIDTH 0 0
BBX 8 4 -3 12
BITMAP
37
66
4C
88
ENDCHAR
STARTCHAR 030C
ENCODING 780
SWIDTH 0 0
DWIDTH 0 0
BBX 6 4 -3 12
BITMAP
84
48
78
30
ENDCHAR
STARTCHAR 030D
ENCODING 781
SWIDTH 0 0
DWIDTH 0 0
BBX 2 7 -1 12
BITMAP
C0
C0
C0
C0
C0
C0
C0
ENDCHAR
STARTCHAR 030E
ENCODING 782
SWIDTH 0 0
DWIDTH 0 0
BBX 4 7 -2 12
BITMAP
90
90
90
90
90
90
90
ENDCHAR
STARTCHAR 030F
ENCODING 783
SWIDTH 0 0
DWIDTH 0 0
BBX 8 4 -5 12
BITMAP
EC
66
32
11
ENDCHAR
STARTCHAR 0310
ENCODING 784
SWIDTH 0 0
DWIDTH 0 0
BBX 6 4 -3 13
BITMAP
30
B4
CC
78
ENDCHAR
STARTCHAR 0311
ENCODING 785
SWIDTH 0 0
DWIDTH 0 0
BBX 6 3 -3 13
BITMAP
78
CC
84
ENDCHAR
STARTCHAR 0312
ENCODING 786
SWIDTH 0 0
DWIDTH 0 0
BBX 4 7 -2 12
BITMAP
10
60
40
80
E0
F0
60
ENDCHAR
STARTCHAR 0313
ENCODING 787
SWIDTH 0 0
DWIDTH 0 0
BBX 2 5 -1 12
BITMAP
C0
C0
40
40
80
ENDCHAR
STARTCHAR 0314
ENCODING 788
SWIDTH 0 0
DWIDTH 0 0
BBX 2 5 -1 12
BITMAP
C0
C0
80
80
40
ENDCHAR
STARTCHAR 0315
ENCODING 789
SWIDTH 0 0
DWIDTH 0 0
BBX 4 6 2 10
BITMAP
E0
F0
10
20
20
40
ENDCHAR
STARTCHAR 0316
ENCODING 790
SWIDTH 0 0
DWIDTH 0 0
BBX 3 3 -2 -5
BITMAP
C0
40
20
ENDCHAR
STARTCHAR 0317
ENCODING 791
SWIDTH 0 0
DWIDTH 0 0
BBX 3 3 -1 -5
BITMAP
60
40
80
ENDCHAR
STARTCHAR 0318
ENCODING 792
SWIDTH 0 0
DWIDTH 0 0
BBX 4 6 -3 -7
BITMAP
30
30
30
F0
30
30
ENDCHAR
STARTCHAR 0319
ENCODING 793
SWIDTH 0 0
DWIDTH 0 0
BBX 4 6 -1 -7
BITMAP
C0
C0
C0
F0
C0
C0
ENDCHAR
STARTCHAR 031A
ENCODING 794
SWIDTH 0 0
DWIDTH 0 0
BBX 6 5 -3 12
BITMAP
FC
04
04
04
04
ENDCHAR
STARTCHAR 031B
ENCODING 795
SWIDTH 0 0
DWIDTH 0 0
BBX 4 7 -2 6
BITMAP
60
70
70
10
10
20
C0
ENDCHAR
STARTCHAR 031C
ENCODING 796
SWIDTH 0 0
DWIDTH 0 0
BBX 2 4 -1 -5
BITMAP
C0
80
C0
40
ENDCHAR
STARTCHAR 031D
ENCODING 797
SWIDTH 0 0
DWIDTH 0 0
BBX 6 4 -3 -5
BITMAP
30
30
30
FC
ENDCHAR
STARTCHAR 031E
ENCODING 798
SWIDTH 0 0
DWIDTH 0 0
BBX 6 3 -3 -7
BITMAP
FC
30
30
ENDCHAR
STARTCHAR 031F
ENCODING 799
SWIDTH 0 0
DWIDTH 0 0
BBX 6 6 -3 -7
BITMAP
30
30
30
FC
30
30
ENDCHAR
STARTCHAR 0320
ENCODING 800
SWIDTH 0 0
DWIDTH 0 0
BBX 6 1 -3 -5
BITMAP
FC
ENDCHAR
STARTCHAR 0321
ENCODING 801
SWIDTH 0 0
DWIDTH 0 0
BBX 6 8 -7 -5
BITMAP
0C
0C
0C
0C
0C
0C
78
F0
ENDCHAR
STARTCHAR 0322
ENCODING 802
SWIDTH 0 0
DWIDTH 0 0
BBX 5 8 -3 -5
BITMAP
C0
C0
C0
C0
C0
C0
F8
78
ENDCHAR
STARTCHAR 0323
ENCODING 803
SWIDTH 0 0
DWIDTH 0 0
BBX 2 2 -1 -4
BITMAP
C0
C0
ENDCHAR
STARTCHAR 0324
ENCODING 804
SWIDTH 0 0
DWIDTH 0 0
BBX 6 2 -3 -3
BITMAP
CC
CC
ENDCHAR
STARTCHAR 0325
ENCODING 805
SWIDTH 0 0
DWIDTH 0 0
BBX 4 4 -2 -5
BITMAP
60
90
90
F0
ENDCHAR
STARTCHAR 0326
ENCODING 806
SWIDTH 0 0
DWIDTH 0 0
BBX 4 7 -2 -8
BITMAP
60
F0
70
10
20
20
C0
ENDCHAR
STARTCHAR 0327
ENCODING 807
SWIDTH 0 0
DWIDTH 0 0
BBX 4 5 -2 -5
BITMAP
40
70
10
10
E0
ENDCHAR
STARTCHAR 0328
ENCODING 808
SWIDTH 0 0
DWIDTH 0 0
BBX 5 5 -1 -4
BITMAP
80
80
C0
78
20
ENDCHAR
STARTCHAR 0329
ENCODING 809
SWIDTH 0 0
DWIDTH 0 0
BBX 2 6 -1 -7
BITMAP
C0
C0
C0
C0
C0
C0
ENDCHAR
STARTCHAR 032A
ENCODING 810
SWIDTH 0 0
DWIDTH 0 0
BBX 6 3 -3 -4
BITMAP
FC
84
84
ENDCHAR
STARTCHAR 032B
ENCODING 811
SWIDTH 0 0
DWIDTH 0 0
BBX 8 3 -4 -4
BITMAP
91
99
7E
ENDCHAR
STARTCHAR 032C
ENCODING 812
SWIDTH 0 0
DWIDTH 0 0
BBX 6 4 -3 -5
BITMAP
84
48
78
30
ENDCHAR
STARTCHAR 032D
ENCODING 813
SWIDTH 0 0
DWIDTH 0 0
BBX 6 4 -3 -5
BITMAP
30
78
48
84
ENDCHAR
STARTCHAR 032E
ENCODING 814
SWIDTH 0 0
DWIDTH 0 0
BBX 6 4 -3 -5
BITMAP
84
84
FC
30
ENDCHAR
STARTCHAR 032F
ENCODING 815
SWIDTH 0 0
DWIDTH 0 0
BBX 6 4 -3 -5
BITMAP
30
FC
84
84
ENDCHAR
STARTCHAR 0330
ENCODING 816
SWIDTH 0 0
DWIDTH 0 0
BBX 8 3 -4 -5
BITMAP
F1
9F
82
ENDCHAR
STARTCHAR 0331
ENCODING 817
SWIDTH 0 0
DWIDTH 0 0
BBX 6 2 -3 -4
BITMAP
FC
FC
ENDCHAR
STARTCHAR 0334
ENCODING 820
SWIDTH 0 0
DWIDTH 0 0
BBX 8 3 -4 4
BITMAP
F1
9F
86
ENDCHAR
STARTCHAR 0335
ENCODING 821
SWIDTH 0 0
DWIDTH 0 0
BBX 6 2 -3 5
BITMAP
FC
FC
ENDCHAR
STARTCHAR 0336
ENCODING 822
SWIDTH 0 0
DWIDTH 0 0
BBX 18 2 -9 5
BITMAP
FFFFC0
FFFFC0
ENDCHAR
STARTCHAR 0337
ENCODING 823
SWIDTH 0 0
DWIDTH 0 0
BBX 10 13 -5 -1
BITMAP
00C0
01C0
0180
0300
0600
0E00
0C00
1800
3800
3000
6000
E000
C000
ENDCHAR
STARTCHAR 0338
ENCODING 824
SWIDTH 0 0
DWIDTH 0 0
BBX 14 18 -7 -4
BITMAP
0008
001C
0018
0030
0070
0060
00C0
0180
0380
0300
0600
0E00
0C00
1800
3800
3000
6000
C000
ENDCHAR
STARTCHAR 0339
ENCODING 825
SWIDTH 0 0
DWIDTH 0 0
BBX 2 4 -1 -5
BITMAP
C0
40
C0
80
ENDCHAR
STARTCHAR 033A
ENCODING 826
SWIDTH 0 0
DWIDTH 0 0
BBX 6 3 -3 -4
BITMAP
84
84
FC
ENDCHAR
STARTCHAR 033B
ENCODING 827
SWIDTH 0 0
DWIDTH 0 0
BBX 6 5 -3 -6
BITMAP
FC
84
84
FC
FC
ENDCHAR
STARTCHAR 033C
ENCODING 828
SWIDTH 0 0
DWIDTH 0 0
BBX 8 3 -4 -5
BITMAP
62
FF
99
ENDCHAR
STARTCHAR 033D
ENCODING 829
SWIDTH 0 0
DWIDTH 0 0
BBX 6 5 -3 12
BITMAP
48
78
30
78
CC
ENDCHAR
STARTCHAR 033E
ENCODING 830
SWIDTH 0 0
DWIDTH 0 0
BBX 2 8 -1 12
BITMAP
C0
80
80
80
C0
40
40
C0
ENDCHAR
STARTCHAR 0340
ENCODING 832
SWIDTH 0 0
DWIDTH 0 0
BBX 4 4 -2 12
BITMAP
C0
40
20
10
ENDCHAR
STARTCHAR 0341
ENCODING 833
SWIDTH 0 0
DWIDTH 0 0
BBX 4 4 -2 12
BITMAP
30
20
40
80
ENDCHAR
STARTCHAR 0342
ENCODING 834
SWIDTH 0 0
DWIDTH 0 0
BBX 8 3 -4 13
BITMAP
61
F9
8F
ENDCHAR
STARTCHAR 0343
ENCODING 835
SWIDTH 0 0
DWIDTH 0 0
BBX 2 5 -1 12
BITMAP
C0
C0
40
40
80
ENDCHAR
STARTCHAR 0344
ENCODING 836
SWIDTH 0 0
DWIDTH 0 0
BBX 7 5 -4 13
BITMAP
06
0C
08
F6
66
ENDCHAR
STARTCHAR 0345
ENCODING 837
SWIDTH 0 0
DWIDTH 0 0
BBX 4 5 -1 -6
BITMAP
C0
C0
C0
F0
F0
ENDCHAR
STARTCHAR 0346
ENCODING 838
SWIDTH 0 0
DWIDTH 0 0
BBX 6 4 -3 12
BITMAP
FC
FC
84
84
ENDCHAR
STARTCHAR 0347
ENCODING 839
SWIDTH 0 0
DWIDTH 0 0
BBX 6 4 -3 -6
BITMAP
FC
FC
00
FC
ENDCHAR
STARTCHAR 0348
ENCODING 840
SWIDTH 0 0
DWIDTH 0 0
BBX 4 6 -2 -7
BITMAP
90
90
90
90
90
90
ENDCHAR
STARTCHAR 0349
ENCODING 841
SWIDTH 0 0
DWIDTH 0 0
BBX 6 5 -3 -6
BITMAP
FC
04
04
04
04
ENDCHAR
STARTCHAR 034A
ENCODING 842
SWIDTH 0 0
DWIDTH 0 0
BBX 8 5 -4 13
BITMAP
0C
79
FF
9E
30
ENDCHAR
STARTCHAR 034B
ENCODING 843
SWIDTH 0 0
DWIDTH 0 0
BBX 8 7 -4 13
BITMAP
18
18
F1
9F
86
18
18
ENDCHAR
STARTCHAR 034C
ENCODING 844
SWIDTH 0 0
DWIDTH 0 0
BBX 8 6 -4 12
BITMAP
F1
9F
86
F1
9F
86
ENDCHAR
STARTCHAR 034D
ENCODING 845
SWIDTH 0 0
DWIDTH 0 0
BBX 10 5 -5 -6
BITMAP
1200
2100
FFC0
6180
2200
ENDCHAR
STARTCHAR 034E
ENCODING 846
SWIDTH 0 0
DWIDTH 0 0
BBX 4 4 -2 -5
BITMAP
60
F0
40
40
ENDCHAR
STARTCHAR 034F
ENCODING 847
SWIDTH 0 0
DWIDTH 0 0
BBX 0 0 0 0
BITMAP
ENDCHAR
STARTCHAR 0350
ENCODING 848
SWIDTH 0 0
DWIDTH 0 0
BBX 3 4 -2 12
BITMAP
80
60
60
40
ENDCHAR
STARTCHAR 0351
ENCODING 849
SWIDTH 0 0
DWIDTH 0 0
BBX 2 4 -1 12
BITMAP
C0
80
C0
40
ENDCHAR
STARTCHAR 0352
ENCODING 850
SWIDTH 0 0
DWIDTH 0 0
BBX 6 4 -3 13
BITMAP
78
CC
B4
30
ENDCHAR
STARTCHAR 0353
ENCODING 851
SWIDTH 0 0
DWIDTH 0 0
BBX 6 5 -3 -7
BITMAP
CC
78
30
78
48
ENDCHAR
STARTCHAR 0354
ENCODING 852
SWIDTH 0 0
DWIDTH 0 0
BBX 4 5 -2 -6
BITMAP
10
20
E0
60
10
ENDCHAR
STARTCHAR 0355
ENCODING 853
SWIDTH 0 0
DWIDTH 0 0
BBX 4 5 -2 -6
BITMAP
80
40
70
60
80
ENDCHAR
STARTCHAR 0356
ENCODING 854
SWIDTH 0 0
DWIDTH 0 0
BBX 9 5 -4 -6
BITMAP
8200
4200
7700
6880
8000
ENDCHAR
STARTCHAR 0357
ENCODING 855
SWIDTH 0 0
DWIDTH 0 0
BBX 2 4 -1 12
BITMAP
C0
40
40
80
ENDCHAR
STARTCHAR 0358
ENCODING 856
SWIDTH 0 0
DWIDTH 0 0
BBX 2 2 2 14
BITMAP
C0
C0
ENDCHAR
STARTCHAR 0359
ENCODING 857
SWIDTH 0 0
DWIDTH 0 0
BBX 6 6 -3 -7
BITMAP
30
B4
FC
78
FC
30
ENDCHAR
STARTCHAR 035A
ENCODING 858
SWIDTH 0 0
DWIDTH 0 0
BBX 6 4 -3 -5
BITMAP
78
B4
B4
FC
ENDCHAR
STARTCHAR 035B
ENCODING 859
SWIDTH 0 0
DWIDTH 0 0
BBX 4 7 -2 12
BITMAP
10
30
60
F0
60
C0
80
ENDCHAR
STARTCHAR 035C
ENCODING 860
SWIDTH 0 0
DWIDTH 0 0
BBX 22 4 -11 -9
BITMAP
800004
F0003C
3FFFF0
07FF80
ENDCHAR
STARTCHAR 035D
ENCODING 861
SWIDTH 0 0
DWIDTH 0 0
BBX 22 4 -11 16
BITMAP
C0000C
FE01FC
1FFFE0
007C00
ENDCHAR
STARTCHAR 035E
ENCODING 862
SWIDTH 0 0
DWIDTH 0 0
BBX 22 2 -11 17
BITMAP
FFFFFC
FFFFFC
ENDCHAR
STARTCHAR 035F
ENCODING 863
SWIDTH 0 0
DWIDTH 0 0
BBX 22 2 -11 -8
BITMAP
FFFFFC
FFFFFC
ENDCHAR
STARTCHAR 0360
ENCODING 864
SWIDTH 0 0
DWIDTH 0 0
BBX 21 5 -10 16
BITMAP
080000
FFC018
E3F830
807FF0
0007C0
ENDCHAR
STARTCHAR 0361
ENCODING 865
SWIDTH 0 0
DWIDTH 0 0
BBX 22 4 -11 16
BITMAP
0FFFC0
7FFFF8
E0001C
800004
ENDCHAR
STARTCHAR 0362
ENCODING 866
SWIDTH 0 0
DWIDTH 0 0
BBX 21 4 -11 -9
BITMAP
000020
FFFFF8
FFFFF8
000020
ENDCHAR
STARTCHAR 0363
ENCODING 867
SWIDTH 0 0
DWIDTH 0 0
BBX 4 6 -2 12
BITMAP
F0
10
70
90
F0
70
ENDCHAR
STARTCHAR 0364
ENCODING 868
SWIDTH 0 0
DWIDTH 0 0
BBX 6 6 -3 12
BITMAP
78
48
FC
C0
78
30
ENDCHAR
STARTCHAR 0365
ENCODING 869
SWIDTH 0 0
DWIDTH 0 0
BBX 2 8 -1 12
BITMAP
C0
00
C0
C0
C0
C0
C0
C0
ENDCHAR
STARTCHAR 0366
ENCODING 870
SWIDTH 0 0
DWIDTH 0 0
BBX 6 6 -3 12
BITMAP
78
48
CC
CC
78
30
ENDCHAR
STARTCHAR 0367
ENCODING 871
SWIDTH 0 0
DWIDTH 0 0
BBX 6 6 -3 12
BITMAP
CC
CC
CC
CC
7C
3C
ENDCHAR
STARTCHAR 0368
ENCODING 872
SWIDTH 0 0
DWIDTH 0 0
BBX 5 6 -3 12
BITMAP
78
48
C0
48
78
30
ENDCHAR
STARTCHAR 0369
ENCODING 873
SWIDTH 0 0
DWIDTH 0 0
BBX 6 9 -3 12
BITMAP
0C
0C
0C
7C
4C
CC
CC
7C
3C
ENDCHAR
STARTCHAR 036A
ENCODING 874
SWIDTH 0 0
DWIDTH 0 0
BBX 6 9 -3 12
BITMAP
C0
C0
C0
F8
C8
CC
CC
CC
CC
ENDCHAR
STARTCHAR 036B
ENCODING 875
SWIDTH 0 0
DWIDTH 0 0
BBX 6 6 -3 12
BITMAP
FC
B4
B4
B4
B4
B4
ENDCHAR
STARTCHAR 036C
ENCODING 876
SWIDTH 0 0
DWIDTH 0 0
BBX 4 6 -2 12
BITMAP
F0
C0
C0
C0
C0
C0
ENDCHAR
STARTCHAR 036D
ENCODING 877
SWIDTH 0 0
DWIDTH 0 0
BBX 4 8 -2 12
BITMAP
20
60
F0
60
60
60
70
30
ENDCHAR
STARTCHAR 036E
ENCODING 878
SWIDTH 0 0
DWIDTH 0 0
BBX 6 6 -3 12
BITMAP
CC
48
78
30
30
30
ENDCHAR
STARTCHAR 036F
ENCODING 879
SWIDTH 0 0
DWIDTH 0 0
BBX 6 6 -3 12
BITMAP
48
78
30
30
78
CC
ENDCHAR
STARTCHAR 0370
ENCODING 880
SWIDTH 400 0
DWIDTH 10 0
BBX 9 16 1 0
BITMAP
C000
C000
C000
C000
C000
C000
C000
FF80
FF80
C000
C000
C000
C000
C000
C000
C000
ENDCHAR
STARTCHAR 0371
ENCODING 881
SWIDTH 400 0
DWIDTH 10 0
BBX 8 11 1 0
BITMAP
F0
F0
30
30
3F
3F
30
30
30
30
30
ENDCHAR
STARTCHAR 0372
ENCODING 882
SWIDTH 640 0
DWIDTH 16 0
BBX 14 16 1 0
BITMAP
FFFC
FFFC
C30C
C30C
C30C
C30C
C30C
C30C
C30C
0300
0300
0300
0300
0300
0300
0300
ENDCHAR
STARTCHAR 0373
ENCODING 883
SWIDTH 520 0
DWIDTH 13 0
BBX 11 11 1 0
BITMAP
3F80
7FC0
6660
C660
C660
C660
0600
0600
0600
0780
0780
ENDCHAR
STARTCHAR 0374
ENCODING 884
SWIDTH 240 0
DWIDTH 6 0
BBX 4 7 1 10
BITMAP
70
60
60
40
40
80
80
ENDCHAR
STARTCHAR 0375
ENCODING 885
SWIDTH 240 0
DWIDTH 6 0
BBX 3 7 2 -1
BITMAP
20
20
60
40
C0
C0
C0
ENDCHAR
STARTCHAR 0376
ENCODING 886
SWIDTH 600 0
DWIDTH 15 0
BBX 13 16 1 0
BITMAP
C018
C038
C078
C078
C0D8
C198
C398
C318
C618
CE18
CC18
D818
F818
F018
E018
C018
ENDCHAR
STARTCHAR 0377
ENCODING 887
SWIDTH 520 0
DWIDTH 13 0
BBX 11 11 1 0
BITMAP
C1C0
C3C0
C3C0
C6C0
CEC0
CCC0
D8C0
F8C0
F0C0
E0E0
C0E0
ENDCHAR
STARTCHAR 037A
ENCODING 890
SWIDTH 240 0
DWIDTH 6 0
BBX 4 5 1 -6
BITMAP
C0
C0
C0
F0
70
ENDCHAR
STARTCHAR 037B
ENCODING 891
SWIDTH 440 0
DWIDTH 11 0
BBX 9 11 1 0
BITMAP
3E00
7700
C180
0180
0180
0080
0180
4180
E380
7F00
3E00
ENDCHAR
STARTCHAR 037C
ENCODING 892
SWIDTH 440 0
DWIDTH 11 0
BBX 9 11 1 0
BITMAP
3F00
7B80
6180
C000
CC00
CC00
C400
4000
6180
3F80
1E00
ENDCHAR
STARTCHAR 037D
ENCODING 893
SWIDTH 440 0
DWIDTH 11 0
BBX 9 11 1 0
BITMAP
3E00
7700
C180
0180
1980
1C80
0980
4180
E380
7F00
3E00
ENDCHAR
STARTCHAR 037E
ENCODING 894
SWIDTH 200 0
DWIDTH 5 0
BBX 3 15 1 -4
BITMAP
E0
E0
00
00
00
00
00
00
00
E0
E0
20
20
20
C0
ENDCHAR
STARTCHAR 037F
ENCODING 895
SWIDTH 360 0
DWIDTH 9 0
BBX 7 16 1 0
BITMAP
06
06
06
06
06
06
06
06
06
06
06
06
06
C6
7E
7C
ENDCHAR
STARTCHAR 0384
ENCODING 900
SWIDTH 240 0
DWIDTH 6 0
BBX 4 4 1 12
BITMAP
30
60
40
80
ENDCHAR
STARTCHAR 0385
ENCODING 901
SWIDTH 360 0
DWIDTH 9 0
BBX 7 5 1 13
BITMAP
06
0C
4C
FE
E6
ENDCHAR
STARTCHAR 0386
ENCODING 902
SWIDTH 640 0
DWIDTH 16 0
BBX 14 16 1 0
BITMAP
3300
6780
4780
8780
0CC0
0CC0
0CC0
1860
1FE0
1FF0
3030
3030
6018
6018
6018
C00C
ENDCHAR
STARTCHAR 0387
ENCODING 903
SWIDTH 200 0
DWIDTH 5 0
BBX 3 2 1 7
BITMAP
E0
E0
ENDCHAR
STARTCHAR 0388
ENCODING 904
SWIDTH 720 0
DWIDTH 18 0
BBX 16 16 1 0
BITMAP
33FF
63FF
4300
8300
0300
0300
0300
03FE
03FE
0300
0300
0300
0300
0300
03FF
03FF
ENDCHAR
STARTCHAR 0389
ENCODING 905
SWIDTH 720 0
DWIDTH 18 0
BBX 16 16 1 0
BITMAP
3303
6303
4303
8303
0303
0303
0303
03FF
03FF
0303
0303
0303
0303
0303
0303
0303
ENDCHAR
STARTCHAR 038A
ENCODING 906
SWIDTH 520 0
DWIDTH 13 0
BBX 11 16 1 0
BITMAP
33E0
63E0
4080
8080
0080
0080
0080
0080
0080
0080
0080
0080
0080
0080
03E0
03E0
ENDCHAR
STARTCHAR 038C
ENCODING 908
SWIDTH 720 0
DWIDTH 18 0
BBX 16 16 1 0
BITMAP
33F0
67FC
4E0C
8C06
1807
1803
1803
1803
1003
1803
1803
1806
0C06
0E0C
07F8
01F0
ENDCHAR
STARTCHAR 038E
ENCODING 910
SWIDTH 800 0
DWIDTH 20 0
BBX 18 16 1 0
BITMAP
3300C0
6301C0
418180
80C300
00E600
006E00
003C00
003800
001800
001800
001800
001800
001800
001800
001800
001800
ENDCHAR
STARTCHAR 038F
ENCODING 911
SWIDTH 720 0
DWIDTH 18 0
BBX 17 16 1 0
BITMAP
31F800
63FC00
460600
8C0300
0C0300
080100
180180
180180
180180
180180
080300
0C0300
0E0700
060E00
1F9F80
1F9F80
ENDCHAR
STARTCHAR 0390
ENCODING 912
SWIDTH 240 0
DWIDTH 6 0
BBX 7 18 -1 0
BITMAP
0C
08
14
CE
CC
00
00
30
30
30
30
30
30
30
30
30
3C
1C
ENDCHAR
STARTCHAR 0391
ENCODING 913
SWIDTH 640 0
DWIDTH 16 0
BBX 14 16 1 0
BITMAP
0300
0780
0780
0780
0CC0
0CC0
0CC0
1860
1FE0
1FF0
3030
3030
6018
6018
6018
C00C
ENDCHAR
STARTCHAR 0392
ENCODING 914
SWIDTH 480 0
DWIDTH 12 0
BBX 10 16 1 0
BITMAP
FF00
FF80
C1C0
C0C0
C0C0
C0C0
FF80
FF80
C1C0
C0C0
C040
C040
C0C0
C0C0
FF80
FF00
ENDCHAR
STARTCHAR 0393
ENCODING 915
SWIDTH 480 0
DWIDTH 12 0
BBX 10 16 1 0
BITMAP
FFC0
FFC0
C000
C000
C000
C000
C000
C000
C000
C000
C000
C000
C000
C000
C000
C000
ENDCHAR
STARTCHAR 0394
ENCODING 916
SWIDTH 640 0
DWIDTH 16 0
BBX 14 16 1 0
BITMAP
0300
0780
0780
0780
0CC0
0CC0
0CC0
1860
1860
1830
3030
3030
6018
6018
7FF8
FFFC
ENDCHAR
STARTCHAR 0395
ENCODING 917
SWIDTH 480 0
DWIDTH 12 0
BBX 10 16 1 0
BITMAP
FFC0
FFC0
C000
C000
C000
C000
C000
FF80
FF80
C000
C000
C000
C000
C000
FFC0
FFC0
ENDCHAR
STARTCHAR 0396
ENCODING 918
SWIDTH 520 0
DWIDTH 13 0
BBX 11 16 1 0
BITMAP
FFE0
FFE0
00E0
00C0
0180
0380
0300
0600
0C00
1C00
1800
3000
7000
6000
FFE0
FFE0
ENDCHAR
STARTCHAR 0397
ENCODING 919
SWIDTH 480 0
DWIDTH 12 0
BBX 10 16 1 0
BITMAP
C040
C040
C040
C040
C040
C040
C040
FFC0
FFC0
C040
C040
C040
C040
C040
C040
C040
ENDCHAR
STARTCHAR 0398
ENCODING 920
SWIDTH 600 0
DWIDTH 15 0
BBX 14 16 1 0
BITMAP
0FC0
1FE0
3030
6038
6018
C018
C00C
CFCC
CFCC
C00C
4018
6018
6038
3070
1FE0
0FC0
ENDCHAR
STARTCHAR 0399
ENCODING 921
SWIDTH 280 0
DWIDTH 7 0
BBX 6 16 1 0
BITMAP
FC
FC
30
30
30
30
30
30
30
30
30
30
30
30
FC
FC
ENDCHAR
STARTCHAR 039A
ENCODING 922
SWIDTH 520 0
DWIDTH 13 0
BBX 11 16 1 0
BITMAP
C1C0
C180
C300
C700
C600
CC00
D800
F800
FC00
E600
E600
C300
C180
C1C0
C0C0
C060
ENDCHAR
STARTCHAR 039B
ENCODING 923
SWIDTH 640 0
DWIDTH 16 0
BBX 14 16 1 0
BITMAP
0300
0780
0780
0780
0CC0
0CC0
0CC0
1860
1860
1830
3030
3030
6018
6018
6018
C00C
ENDCHAR
STARTCHAR 039C
ENCODING 924
SWIDTH 640 0
DWIDTH 16 0
BBX 14 16 1 0
BITMAP
C00C
E01C
E01C
E01C
F03C
F03C
D83C
D86C
D86C
CCCC
CCCC
CCCC
C78C
C78C
C38C
C30C
ENDCHAR
STARTCHAR 039D
ENCODING 925
SWIDTH 600 0
DWIDTH 15 0
BBX 13 16 1 0
BITMAP
C018
E018
F018
F818
D818
CC18
CE18
C618
C318
C198
C1D8
C0D8
C078
C078
C038
C018
ENDCHAR
STARTCHAR 039E
ENCODING 926
SWIDTH 480 0
DWIDTH 12 0
BBX 10 16 1 0
BITMAP
FFC0
FFC0
0000
0000
0000
0000
0000
3F80
3F80
0000
0000
0000
0000
0000
FFC0
FFC0
ENDCHAR
STARTCHAR 039F
ENCODING 927
SWIDTH 600 0
DWIDTH 15 0
BBX 14 16 1 0
BITMAP
0FC0
1FE0
3030
6038
6018
C018
C00C
C00C
C00C
C00C
4018
6018
6038
3070
1FE0
0FC0
ENDCHAR
STARTCHAR 03A0
ENCODING 928
SWIDTH 480 0
DWIDTH 12 0
BBX 10 16 1 0
BITMAP
FFC0
FFC0
C040
C040
C040
C040
C040
C040
C040
C040
C040
C040
C040
C040
C040
C040
ENDCHAR
STARTCHAR 03A1
ENCODING 929
SWIDTH 480 0
DWIDTH 12 0
BBX 10 16 1 0
BITMAP
FE00
FF80
C180
C0C0
C0C0
C0C0
C180
FF80
FE00
C000
C000
C000
C000
C000
C000
C000
ENDCHAR
STARTCHAR 03A3
ENCODING 931
SWIDTH 480 0
DWIDTH 12 0
BBX 10 16 1 0
BITMAP
FFC0
FFC0
6000
7000
3000
1800
0C00
0E00
0C00
1C00
1800
3000
7000
6000
FFC0
FFC0
ENDCHAR
STARTCHAR 03A4
ENCODING 932
SWIDTH 480 0
DWIDTH 12 0
BBX 10 16 1 0
BITMAP
FFC0
FFC0
0C00
0C00
0C00
0C00
0C00
0C00
0C00
0C00
0C00
0C00
0C00
0C00
0C00
0C00
ENDCHAR
STARTCHAR 03A5
ENCODING 933
SWIDTH 600 0
DWIDTH 15 0
BBX 12 16 2 0
BITMAP
C030
E070
6060
30C0
39C0
1980
0F00
0600
0600
0600
0600
0600
0600
0600
0600
0600
ENDCHAR
STARTCHAR 03A6
ENCODING 934
SWIDTH 560 0
DWIDTH 14 0
BBX 12 16 1 0
BITMAP
0F80
0F80
0600
0F80
3FE0
7670
E630
C610
C610
6630
7670
3FE0
0F00
0600
0F80
0F80
ENDCHAR
STARTCHAR 03A7
ENCODING 935
SWIDTH 600 0
DWIDTH 15 0
BBX 12 16 2 0
BITMAP
C030
E070
6060
30C0
39C0
1980
0F00
0600
0F00
0F00
1980
39C0
30C0
6060
E070
C030
ENDCHAR
STARTCHAR 03A8
ENCODING 936
SWIDTH 560 0
DWIDTH 14 0
BBX 12 16 1 0
BITMAP
C610
C610
C610
C610
C630
6630
76E0
3FC0
0F80
0600
0600
0600
0600
0600
0600
0600
ENDCHAR
STARTCHAR 03A9
ENCODING 937
SWIDTH 600 0
DWIDTH 15 0
BBX 14 16 1 0
BITMAP
0FC0
1FE0
3030
6038
6018
C018
C00C
C00C
C00C
C00C
4018
6018
6038
3070
FCFC
FCFC
ENDCHAR
STARTCHAR 03AA
ENCODING 938
SWIDTH 280 0
DWIDTH 7 0
BBX 7 20 0 1
BITMAP
E6
66
00
00
7E
7E
18
18
18
18
18
18
18
18
18
18
18
18
7E
7E
ENDCHAR
STARTCHAR 03AB
ENCODING 939
SWIDTH 600 0
DWIDTH 15 0
BBX 12 20 2 1
BITMAP
1980
1980
0000
0000
C030
E070
6060
30C0
39C0
1980
0F00
0600
0600
0600
0600
0600
0600
0600
0600
0600
ENDCHAR
STARTCHAR 03AC
ENCODING 940
SWIDTH 560 0
DWIDTH 14 0
BBX 12 16 1 0
BITMAP
0380
0300
0600
0000
0000
3F30
7BB0
61E0
C0E0
C0E0
C0C0
C0E0
40E0
61B0
3FB0
1E30
ENDCHAR
STARTCHAR 03AD
ENCODING 941
SWIDTH 360 0
DWIDTH 9 0
BBX 7 16 1 0
BITMAP
0C
08
10
20
00
3C
7E
66
60
78
78
C0
C0
C6
7E
3C
ENDCHAR
STARTCHAR 03AE
ENCODING 942
SWIDTH 480 0
DWIDTH 12 0
BBX 10 21 1 -6
BITMAP
0600
0400
0800
0000
0000
DF00
FB80
E180
E0C0
C0C0
C0C0
C0C0
C0C0
C0C0
C0C0
C0C0
00C0
00C0
00C0
00C0
00C0
ENDCHAR
STARTCHAR 03AF
ENCODING 943
SWIDTH 240 0
DWIDTH 6 0
BBX 5 16 0 0
BITMAP
30
60
40
80
00
60
60
60
60
60
60
60
60
60
78
38
ENDCHAR
STARTCHAR 03B0
ENCODING 944
SWIDTH 480 0
DWIDTH 12 0
BBX 10 18 1 0
BITMAP
0300
0600
1400
3B00
3300
0000
0000
C0C0
C0C0
C0C0
C0C0
C0C0
C0C0
C0C0
C0C0
6180
7F80
1F00
ENDCHAR
STARTCHAR 03B1
ENCODING 945
SWIDTH 560 0
DWIDTH 14 0
BBX 12 11 1 0
BITMAP
3F30
7BB0
61E0
C0E0
C0E0
C0C0
C0E0
40E0
61B0
3FB0
1E30
ENDCHAR
STARTCHAR 03B2
ENCODING 946
SWIDTH 440 0
DWIDTH 11 0
BBX 9 21 1 -6
BITMAP
3E00
7700
E380
C180
C180
C380
C700
C700
C700
C180
C180
C080
C180
E180
FF00
FE00
C000
C000
C000
C000
4000
ENDCHAR
STARTCHAR 03B3
ENCODING 947
SWIDTH 520 0
DWIDTH 13 0
BBX 11 16 1 -5
BITMAP
E060
60C0
30C0
30C0
3180
1980
1B00
0B00
0F00
0E00
0600
0E00
0F00
0F00
0F00
0E00
ENDCHAR
STARTCHAR 03B4
ENCODING 948
SWIDTH 480 0
DWIDTH 12 0
BBX 10 16 1 0
BITMAP
0F80
1F80
18C0
1800
1C00
3E00
7F00
6380
C1C0
C0C0
C0C0
C0C0
40C0
6180
3F80
1E00
ENDCHAR
STARTCHAR 03B5
ENCODING 949
SWIDTH 360 0
DWIDTH 9 0
BBX 7 11 1 0
BITMAP
3C
7E
66
60
78
78
C0
C0
C6
7E
3C
ENDCHAR
STARTCHAR 03B6
ENCODING 950
SWIDTH 400 0
DWIDTH 10 0
BBX 9 21 1 -5
BITMAP
FF00
FF00
7000
6000
6000
C000
C000
C000
C000
C000
C000
6000
6000
3000
3E00
1F00
0300
0180
0300
0F00
0E00
ENDCHAR
STARTCHAR 03B7
ENCODING 951
SWIDTH 480 0
DWIDTH 12 0
BBX 10 16 1 -6
BITMAP
DF00
FB80
E180
E0C0
C0C0
C0C0
C0C0
C0C0
C0C0
C0C0
C0C0
00C0
00C0
00C0
00C0
00C0
ENDCHAR
STARTCHAR 03B8
ENCODING 952
SWIDTH 480 0
DWIDTH 12 0
BBX 10 16 1 0
BITMAP
1E00
3F00
6180
6180
40C0
C0C0
C0C0
FFC0
FFC0
C0C0
C0C0
60C0
6180
7180
3F00
1E00
ENDCHAR
STARTCHAR 03B9
ENCODING 953
SWIDTH 240 0
DWIDTH 6 0
BBX 4 11 1 0
BITMAP
C0
C0
C0
C0
C0
C0
C0
C0
C0
F0
70
ENDCHAR
STARTCHAR 03BA
ENCODING 954
SWIDTH 400 0
DWIDTH 10 0
BBX 8 11 1 0
BITMAP
C6
CC
DC
D8
F0
F8
FC
CC
C6
C7
C3
ENDCHAR
STARTCHAR 03BB
ENCODING 955
SWIDTH 480 0
DWIDTH 12 0
BBX 10 16 1 0
BITMAP
7000
7800
1800
0C00
0C00
0E00
0E00
1E00
1B00
1B00
3300
3180
6180
6180
60C0
C0C0
ENDCHAR
STARTCHAR 03BC
ENCODING 956
SWIDTH 480 0
DWIDTH 12 0
BBX 10 16 1 -6
BITMAP
C0C0
C0C0
C0C0
C0C0
C0C0
C0C0
C0C0
C0C0
E1C0
FFC0
DEC0
C000
C000
C000
C000
4000
ENDCHAR
STARTCHAR 03BD
ENCODING 957
SWIDTH 440 0
DWIDTH 11 0
BBX 9 11 1 0
BITMAP
C700
6380
6180
3180
3180
3300
1B00
1B00
1E00
0E00
0C00
ENDCHAR
STARTCHAR 03BE
ENCODING 958
SWIDTH 400 0
DWIDTH 10 0
BBX 9 21 1 -5
BITMAP
FF00
FF00
6000
6000
6000
6000
3C00
3C00
7000
6000
C000
C000
C000
6000
3E00
1F00
0300
0180
0300
0F00
0E00
ENDCHAR
STARTCHAR 03BF
ENCODING 959
SWIDTH 480 0
DWIDTH 12 0
BBX 10 11 1 0
BITMAP
3F00
7B80
6180
C0C0
C0C0
C0C0
C0C0
40C0
6180
3F80
1E00
ENDCHAR
STARTCHAR 03C0
ENCODING 960
SWIDTH 480 0
DWIDTH 12 0
BBX 10 11 1 0
BITMAP
FFC0
FFC0
3180
3180
3180
3180
3180
3180
6180
E180
C180
ENDCHAR
STARTCHAR 03C1
ENCODING 961
SWIDTH 480 0
DWIDTH 12 0
BBX 10 16 1 -6
BITMAP
3F00
7B80
6180
C0C0
C0C0
C0C0
C0C0
C0C0
E180
FF80
DE00
C000
C000
C000
C000
4000
ENDCHAR
STARTCHAR 03C2
ENCODING 962
SWIDTH 440 0
DWIDTH 11 0
BBX 9 16 1 -5
BITMAP
1F80
3F00
6000
C000
C000
C000
C000
6000
6000
3E00
1F00
0300
0180
0300
0F00
0E00
ENDCHAR
STARTCHAR 03C3
ENCODING 963
SWIDTH 520 0
DWIDTH 13 0
BBX 11 11 1 0
BITMAP
1FE0
3FE0
6180
C0C0
C0C0
C0C0
C0C0
C0C0
6180
3F80
1F00
ENDCHAR
STARTCHAR 03C4
ENCODING 964
SWIDTH 360 0
DWIDTH 9 0
BBX 8 11 1 0
BITMAP
FF
FF
18
18
18
18
18
18
18
1E
1E
ENDCHAR
STARTCHAR 03C5
ENCODING 965
SWIDTH 480 0
DWIDTH 12 0
BBX 10 11 1 0
BITMAP
C0C0
C0C0
C0C0
C0C0
C0C0
C0C0
C0C0
C0C0
6180
7F80
1F00
ENDCHAR
STARTCHAR 03C6
ENCODING 966
SWIDTH 560 0
DWIDTH 14 0
BBX 12 16 1 -6
BITMAP
11E0
3BF0
6330
E210
C610
C610
C630
6630
7660
3FE0
1F80
0600
0600
0600
0600
0200
ENDCHAR
STARTCHAR 03C7
ENCODING 967
SWIDTH 400 0
DWIDTH 10 0
BBX 8 16 1 -5
BITMAP
C3
66
66
36
3C
3C
1C
18
18
1C
3C
3C
66
66
63
C3
ENDCHAR
STARTCHAR 03C8
ENCODING 968
SWIDTH 480 0
DWIDTH 12 0
BBX 10 16 1 -6
BITMAP
CCC0
CCC0
CCC0
CCC0
CCC0
CCC0
CCC0
CCC0
6D80
7F80
1F00
0C00
0C00
0C00
0C00
0400
ENDCHAR
STARTCHAR 03C9
ENCODING 969
SWIDTH 600 0
DWIDTH 15 0
BBX 13 11 1 0
BITMAP
3060
7030
6018
C018
C018
C318
C318
C718
6710
7DF0
3CE0
ENDCHAR
STARTCHAR 03CA
ENCODING 970
SWIDTH 240 0
DWIDTH 6 0
BBX 6 15 -1 1
BITMAP
CC
CC
00
00
30
30
30
30
30
30
30
30
30
3C
1C
ENDCHAR
STARTCHAR 03CB
ENCODING 971
SWIDTH 480 0
DWIDTH 12 0
BBX 10 16 1 0
BITMAP
2000
3380
3300
0000
0000
C0C0
C0C0
C0C0
C0C0
C0C0
C0C0
C0C0
C0C0
6180
7F80
1F00
ENDCHAR
STARTCHAR 03CC
ENCODING 972
SWIDTH 480 0
DWIDTH 12 0
BBX 10 16 1 0
BITMAP
0600
0400
0800
0000
0000
3F00
7B80
6180
C0C0
C0C0
C0C0
C0C0
40C0
6180
3F80
1E00
ENDCHAR
STARTCHAR 03CD
ENCODING 973
SWIDTH 480 0
DWIDTH 12 0
BBX 10 16 1 0
BITMAP
0600
0400
0800
0000
0000
C0C0
C0C0
C0C0
C0C0
C0C0
C0C0
C0C0
C0C0
6180
7F80
1F00
ENDCHAR
STARTCHAR 03CE
ENCODING 974
SWIDTH 600 0
DWIDTH 15 0
BBX 13 16 1 0
BITMAP
0180
0300
0200
0400
0000
3060
7030
6018
C018
C018
C318
C318
C718
6710
7DF0
3CE0
ENDCHAR
STARTCHAR 03CF
ENCODING 975
SWIDTH 520 0
DWIDTH 13 0
BBX 11 20 1 -4
BITMAP
C1C0
C180
C300
C700
C600
CC00
D800
F800
FC00
E600
E600
C300
C180
C1C0
C0C0
C060
01E0
0380
0700
0400
ENDCHAR
STARTCHAR 03D0
ENCODING 976
SWIDTH 440 0
DWIDTH 11 0
BBX 9 16 1 0
BITMAP
3E00
7700
E380
C180
C180
C380
C700
C700
C700
C180
C180
C080
C180
E180
7F00
3E00
ENDCHAR
STARTCHAR 03D1
ENCODING 977
SWIDTH 640 0
DWIDTH 16 0
BBX 14 16 1 0
BITMAP
03C0
07C0
0660
0630
0630
E73C
73BC
31F8
30F0
1030
1830
1830
1820
0C60
0FC0
0780
ENDCHAR
STARTCHAR 03D2
ENCODING 978
SWIDTH 560 0
DWIDTH 14 0
BBX 12 16 1 0
BITMAP
E070
F0F0
1980
0F00
0F00
0600
0600
0600
0600
0600
0600
0600
0600
0600
0600
0600
ENDCHAR
STARTCHAR 03D3
ENCODING 979
SWIDTH 760 0
DWIDTH 19 0
BBX 17 16 1 0
BITMAP
338380
63C780
40EE00
806C00
003800
003800
003800
001800
001000
001000
001000
001000
001000
001000
001000
001000
ENDCHAR
STARTCHAR 03D4
ENCODING 980
SWIDTH 560 0
DWIDTH 14 0
BBX 12 20 1 1
BITMAP
1980
1980
0000
0000
E070
F0F0
1980
0F00
0F00
0600
0600
0600
0600
0600
0600
0600
0600
0600
0600
0600
ENDCHAR
STARTCHAR 03D5
ENCODING 981
SWIDTH 480 0
DWIDTH 12 0
BBX 10 21 1 -6
BITMAP
0C00
0C00
0C00
0C00
0C00
3F00
7F80
6D80
CCC0
CCC0
CCC0
CCC0
4CC0
6D80
3F80
1F00
0C00
0C00
0C00
0C00
0400
ENDCHAR
STARTCHAR 03D6
ENCODING 982
SWIDTH 600 0
DWIDTH 15 0
BBX 13 11 1 0
BITMAP
FFF8
FFF8
6018
C018
C018
C318
C318
C718
6710
7DF0
3CE0
ENDCHAR
STARTCHAR 03D7
ENCODING 983
SWIDTH 640 0
DWIDTH 16 0
BBX 14 16 1 -5
BITMAP
F83C
5C78
0CC0
0DC0
0DC0
0F40
0F40
0E40
0C60
7878
F83C
000C
000C
000C
001C
001C
ENDCHAR
STARTCHAR 03D8
ENCODING 984
SWIDTH 600 0
DWIDTH 15 0
BBX 14 21 1 -5
BITMAP
0FC0
1FE0
3030
6038
6018
C018
C00C
C00C
C00C
C00C
4018
6018
6038
3070
1FE0
0FC0
0300
0300
0300
0300
0300
ENDCHAR
STARTCHAR 03D9
ENCODING 985
SWIDTH 480 0
DWIDTH 12 0
BBX 10 16 1 -6
BITMAP
3F00
7B80
6180
C0C0
C0C0
C0C0
C0C0
40C0
6180
3F80
1F00
0C00
0C00
0C00
0C00
0400
ENDCHAR
STARTCHAR 03DA
ENCODING 986
SWIDTH 560 0
DWIDTH 14 0
BBX 12 21 1 -5
BITMAP
0FC0
3FE0
7030
6030
4000
C000
C000
C000
C000
6000
7000
3C00
0F00
03C0
00E0
0070
3030
3030
1860
1FE0
07C0
ENDCHAR
STARTCHAR 03DB
ENCODING 987
SWIDTH 520 0
DWIDTH 13 0
BBX 9 16 1 -5
BITMAP
3F00
7B80
6180
C000
C000
C000
C000
6000
6000
3E00
1F00
0300
0180
0300
0F00
0E00
ENDCHAR
STARTCHAR 03DC
ENCODING 988
SWIDTH 480 0
DWIDTH 12 0
BBX 10 16 1 0
BITMAP
FFC0
FFC0
C000
C000
C000
FF00
FF00
C000
C000
C000
C000
C000
C000
C000
C000
C000
ENDCHAR
STARTCHAR 03DD
ENCODING 989
SWIDTH 400 0
DWIDTH 10 0
BBX 8 16 1 -6
BITMAP
FF
FF
C0
C0
C0
FF
C0
C0
C0
C0
C0
C0
C0
C0
C0
40
ENDCHAR
STARTCHAR 03DE
ENCODING 990
SWIDTH 480 0
DWIDTH 12 0
BBX 10 16 1 0
BITMAP
F000
3000
1800
1800
1800
3000
3000
3F80
7F80
0300
0300
0300
0600
0600
0380
01C0
ENDCHAR
STARTCHAR 03DF
ENCODING 991
SWIDTH 360 0
DWIDTH 9 0
BBX 8 16 1 0
BITMAP
18
18
18
30
30
60
60
7F
FE
06
0C
0C
0C
18
18
18
ENDCHAR
STARTCHAR 03E0
ENCODING 992
SWIDTH 560 0
DWIDTH 14 0
BBX 13 16 1 0
BITMAP
1F80
3FC0
60E0
C1F0
0330
0E30
1C70
38F8
71D8
6390
4730
0C30
1860
70E0
23C0
0380
ENDCHAR
STARTCHAR 03E1
ENCODING 993
SWIDTH 400 0
DWIDTH 10 0
BBX 7 16 2 -5
BITMAP
F0
F8
0C
1C
3E
76
E6
86
0E
3E
76
64
0C
0C
38
30
ENDCHAR
STARTCHAR 03E2
ENCODING 994
SWIDTH 800 0
DWIDTH 20 0
BBX 18 21 1 -5
BITMAP
C0C0C0
C0C0C0
C0C0C0
C0C0C0
C0C0C0
C0C0C0
C0C0C0
C0C0C0
C0C0C0
C0C0C0
C0C0C0
C0C0C0
40C0C0
61E1C0
3FBFC0
1F1EC0
0000C0
07C0C0
07E180
0C7F00
001E00
ENDCHAR
STARTCHAR 03E3
ENCODING 995
SWIDTH 600 0
DWIDTH 15 0
BBX 14 16 0 -5
BITMAP
618C
618C
618C
618C
618C
618C
618C
618C
638C
3EFC
1E7C
000C
3C0C
7F18
C3F8
01E0
ENDCHAR
STARTCHAR 03E4
ENCODING 996
SWIDTH 440 0
DWIDTH 11 0
BBX 9 16 1 0
BITMAP
1880
3880
6080
C080
C080
C080
C080
C080
6180
3F80
1F80
0080
0080
0080
0080
0080
ENDCHAR
STARTCHAR 03E5
ENCODING 997
SWIDTH 440 0
DWIDTH 11 0
BBX 9 16 1 -6
BITMAP
3880
7880
6080
C080
C080
C080
C080
4080
6180
3F80
1F80
0080
0080
0080
0080
0080
ENDCHAR
STARTCHAR 03E6
ENCODING 998
SWIDTH 440 0
DWIDTH 11 0
BBX 10 16 1 0
BITMAP
C000
C000
C000
C000
C000
FE00
F700
E180
C180
C0C0
C0C0
00C0
0180
0180
0700
0600
ENDCHAR
STARTCHAR 03E7
ENCODING 999
SWIDTH 640 0
DWIDTH 16 0
BBX 13 16 2 0
BITMAP
0780
0F80
0CC0
0C60
0C60
0E78
0778
03F0
01E0
0060
1060
3060
3040
78C0
FF80
CF00
ENDCHAR
STARTCHAR 03E8
ENCODING 1000
SWIDTH 480 0
DWIDTH 12 0
BBX 10 16 1 0
BITMAP
1F00
3F80
6180
6180
0180
0180
0700
1E00
3800
6000
C000
C0C0
C0C0
61C0
7F80
3F00
ENDCHAR
STARTCHAR 03E9
ENCODING 1001
SWIDTH 360 0
DWIDTH 9 0
BBX 7 11 1 0
BITMAP
3C
7E
46
06
1C
78
E0
C0
C6
7E
3C
ENDCHAR
STARTCHAR 03EA
ENCODING 1002
SWIDTH 720 0
DWIDTH 18 0
BBX 16 16 1 0
BITMAP
1818
0C38
0E30
0660
03C0
01C0
01C0
03C0
0760
0670
0C30
1C18
180C
300C
FFFF
FFFF
ENDCHAR
STARTCHAR 03EB
ENCODING 1003
SWIDTH 520 0
DWIDTH 13 0
BBX 11 11 1 0
BITMAP
3980
1B00
0F00
0600
0F00
1B00
1980
31C0
60C0
FFE0
FFE0
ENDCHAR
STARTCHAR 03EC
ENCODING 1004
SWIDTH 480 0
DWIDTH 12 0
BBX 11 18 1 0
BITMAP
0060
0060
1FC0
3F80
6000
6000
C000
FF00
FB80
E180
C0C0
C0C0
C0C0
C0C0
40C0
6180
3F80
1E00
ENDCHAR
STARTCHAR 03ED
ENCODING 1005
SWIDTH 480 0
DWIDTH 12 0
BBX 10 16 1 0
BITMAP
0180
0780
3F00
7000
6000
FF00
FB80
E180
C0C0
C0C0
C0C0
C0C0
40C0
6180
3F80
1E00
ENDCHAR
STARTCHAR 03EE
ENCODING 1006
SWIDTH 480 0
DWIDTH 12 0
BBX 10 16 1 0
BITMAP
0C00
0C00
FFC0
FFC0
0C00
0C00
0C00
0C00
0C00
0C00
0C00
0C00
0C00
0C00
0C00
0C00
ENDCHAR
STARTCHAR 03EF
ENCODING 1007
SWIDTH 360 0
DWIDTH 9 0
BBX 8 16 1 0
BITMAP
18
18
18
18
18
FF
FF
18
18
18
18
18
18
18
18
18
ENDCHAR
STARTCHAR 03F0
ENCODING 1008
SWIDTH 640 0
DWIDTH 16 0
BBX 14 11 1 0
BITMAP
F83C
5C78
0CC0
0DC0
0DC0
0F40
0F40
0E40
0C60
7878
F83C
ENDCHAR
STARTCHAR 03F1
ENCODING 1009
SWIDTH 480 0
DWIDTH 12 0
BBX 10 16 1 -5
BITMAP
3F00
7B80
6180
C0C0
C0C0
C0C0
C0C0
C0C0
E180
FF80
DE00
C000
C000
E180
7F80
3F00
ENDCHAR
STARTCHAR 03F2
ENCODING 1010
SWIDTH 440 0
DWIDTH 11 0
BBX 9 11 1 0
BITMAP
3F00
7B80
6180
C000
C000
C000
C000
4000
6180
3F80
1E00
ENDCHAR
STARTCHAR 03F3
ENCODING 1011
SWIDTH 160 0
DWIDTH 4 0
BBX 5 20 -2 -4
BITMAP
18
18
00
00
18
18
18
18
18
18
18
18
18
18
18
18
18
18
F8
F0
ENDCHAR
STARTCHAR 03F4
ENCODING 1012
SWIDTH 600 0
DWIDTH 15 0
BBX 14 16 1 0
BITMAP
0FC0
1FE0
3030
6038
6018
C018
C00C
FFFC
FFFC
C00C
4018
6018
6038
3070
1FE0
0FC0
ENDCHAR
STARTCHAR 03F5
ENCODING 1013
SWIDTH 440 0
DWIDTH 11 0
BBX 9 11 1 0
BITMAP
3F00
7B80
6180
C000
FC00
FC00
C000
6000
6180
3F80
1E00
ENDCHAR
STARTCHAR 03F6
ENCODING 1014
SWIDTH 440 0
DWIDTH 11 0
BBX 9 11 1 0
BITMAP
3E00
7700
C180
0180
1F80
1F80
0180
4180
E380
7F00
3E00
ENDCHAR
STARTCHAR 03F7
ENCODING 1015
SWIDTH 480 0
DWIDTH 12 0
BBX 10 16 1 0
BITMAP
C000
C000
C000
C000
FF00
FF80
C0C0
C0C0
C0C0
C1C0
FF80
FF00
C000
C000
C000
C000
ENDCHAR
STARTCHAR 03F8
ENCODING 1016
SWIDTH 480 0
DWIDTH 12 0
BBX 10 21 1 -6
BITMAP
C000
C000
C000
C000
C000
FF00
FB80
E180
C0C0
C0C0
C0C0
C0C0
C0C0
E180
FF80
DE00
C000
C000
C000
C000
4000
ENDCHAR
STARTCHAR 03F9
ENCODING 1017
SWIDTH 560 0
DWIDTH 14 0
BBX 13 16 1 0
BITMAP
0FC0
1FE0
3030
6030
6000
C000
C000
C000
C000
C000
4000
6000
6038
3070
1FE0
0FC0
ENDCHAR
STARTCHAR 03FA
ENCODING 1018
SWIDTH 600 0
DWIDTH 15 0
BBX 14 16 1 0
BITMAP
E01C
F03C
F03C
D86C
DCEC
CCCC
C78C
C30C
C30C
C00C
C00C
C00C
C00C
C00C
C00C
C00C
ENDCHAR
STARTCHAR 03FB
ENCODING 1019
SWIDTH 480 0
DWIDTH 12 0
BBX 10 16 1 -6
BITMAP
C0C0
E0C0
E1C0
F1C0
F1C0
F340
DB40
DB40
DE40
CE40
CC40
C000
C000
C000
C000
4000
ENDCHAR
STARTCHAR 03FC
ENCODING 1020
SWIDTH 480 0
DWIDTH 12 0
BBX 12 16 -1 -6
BITMAP
0FC0
1EE0
1860
3030
3030
3030
3030
3030
3860
3FE0
3780
3000
FC00
FC00
3000
1000
ENDCHAR
STARTCHAR 03FD
ENCODING 1021
SWIDTH 560 0
DWIDTH 14 0
BBX 13 16 1 0
BITMAP
1F80
3FC0
60E0
C070
0030
0030
0010
0018
0018
0010
0030
0030
C060
60E0
3FC0
1F80
ENDCHAR
STARTCHAR 03FE
ENCODING 1022
SWIDTH 560 0
DWIDTH 14 0
BBX 13 16 1 0
BITMAP
0FC0
1FE0
3030
6030
6000
C000
C000
C300
C300
C000
4000
6000
6038
3070
1FE0
0FC0
ENDCHAR
STARTCHAR 03FF
ENCODING 1023
SWIDTH 560 0
DWIDTH 14 0
BBX 13 16 1 0
BITMAP
1F80
3FC0
60E0
C070
0030
0030
0010
0618
0618
0010
0030
0030
C060
60E0
3FC0
1F80
ENDCHAR
STARTCHAR 0400
ENCODING 1024
SWIDTH 480 0
DWIDTH 12 0
BBX 10 21 1 0
BITMAP
1800
0C00
0400
0200
0000
FFC0
FFC0
C000
C000
C000
C000
C000
FF80
FF80
C000
C000
C000
C000
C000
FFC0
FFC0
ENDCHAR
STARTCHAR 0401
ENCODING 1025
SWIDTH 480 0
DWIDTH 12 0
BBX 10 21 1 0
BITMAP
1000
3B80
3380
0000
0000
FFC0
FFC0
C000
C000
C000
C000
C000
FF80
FF80
C000
C000
C000
C000
C000
FFC0
FFC0
ENDCHAR
STARTCHAR 0402
ENCODING 1026
SWIDTH 640 0
DWIDTH 16 0
BBX 14 16 1 0
BITMAP
FFC0
FFC0
0C00
0C00
0C00
0FF0
0F38
0E18
0C0C
0C0C
0C0C
0C0C
0C0C
0C18
0C70
0C60
ENDCHAR
STARTCHAR 0403
ENCODING 1027
SWIDTH 480 0
DWIDTH 12 0
BBX 10 21 1 0
BITMAP
0300
0600
0400
0800
0000
FFC0
FFC0
C000
C000
C000
C000
C000
C000
C000
C000
C000
C000
C000
C000
C000
C000
ENDCHAR
STARTCHAR 0404
ENCODING 1028
SWIDTH 560 0
DWIDTH 14 0
BBX 13 16 1 0
BITMAP
0FC0
1FE0
3030
6030
6000
C000
C000
FF80
FF80
C000
4000
6000
6038
3070
1FE0
0FC0
ENDCHAR
STARTCHAR 0405
ENCODING 1029
SWIDTH 480 0
DWIDTH 12 0
BBX 10 16 1 0
BITMAP
3F00
3F80
6180
6080
6000
6000
3800
1E00
0780
0180
00C0
C0C0
C0C0
61C0
7F80
3F00
ENDCHAR
STARTCHAR 0406
ENCODING 1030
SWIDTH 280 0
DWIDTH 7 0
BBX 6 16 1 0
BITMAP
FC
FC
30
30
30
30
30
30
30
30
30
30
30
30
FC
FC
ENDCHAR
STARTCHAR 0407
ENCODING 1031
SWIDTH 280 0
DWIDTH 7 0
BBX 7 20 0 1
BITMAP
E6
66
00
00
7E
7E
18
18
18
18
18
18
18
18
18
18
18
18
7E
7E
ENDCHAR
STARTCHAR 0408
ENCODING 1032
SWIDTH 360 0
DWIDTH 9 0
BBX 7 16 1 0
BITMAP
06
06
06
06
06
06
06
06
06
06
06
06
06
C6
7E
7C
ENDCHAR
STARTCHAR 0409
ENCODING 1033
SWIDTH 840 0
DWIDTH 21 0
BBX 20 16 1 0
BITMAP
3FE000
3FE000
306000
306000
306000
306000
307E00
307FC0
3060E0
306060
306030
306030
306060
606060
E07FC0
C07F80
ENDCHAR
STARTCHAR 040A
ENCODING 1034
SWIDTH 840 0
DWIDTH 21 0
BBX 19 16 1 0
BITMAP
C04000
C04000
C04000
C04000
C04000
C04000
C07C00
FFFF80
FFC1C0
C040E0
C04060
C04060
C04060
C040C0
C07FC0
C07F00
ENDCHAR
STARTCHAR 040B
ENCODING 1035
SWIDTH 640 0
DWIDTH 16 0
BBX 14 16 1 0
BITMAP
FFC0
FFC0
0C00
0C00
0C00
0DF0
0FB8
0E0C
0E0C
0C0C
0C0C
0C0C
0C0C
0C0C
0C0C
0C0C
ENDCHAR
STARTCHAR 040C
ENCODING 1036
SWIDTH 520 0
DWIDTH 13 0
BBX 11 21 1 0
BITMAP
0300
0600
0400
0800
0000
C1C0
C3C0
C300
C600
C600
C600
CE00
FC00
FC00
CE00
C600
C300
C180
C180
C0C0
C060
ENDCHAR
STARTCHAR 040D
ENCODING 1037
SWIDTH 480 0
DWIDTH 12 0
BBX 10 21 1 0
BITMAP
1800
0C00
0400
0200
0000
C040
C040
C040
C0C0
C1C0
C3C0
C740
CE40
DC40
F840
F040
E040
C040
C040
C040
C040
ENDCHAR
STARTCHAR 040E
ENCODING 1038
SWIDTH 560 0
DWIDTH 14 0
BBX 11 21 2 0
BITMAP
1080
1980
0F00
0000
0000
6060
60C0
30C0
30C0
3180
1980
1B00
0B00
0F00
0E00
0600
0600
0C00
8C00
F800
F800
ENDCHAR
STARTCHAR 040F
ENCODING 1039
SWIDTH 480 0
DWIDTH 12 0
BBX 10 19 1 -3
BITMAP
C040
C040
C040
C040
C040
C040
C040
C040
C040
C040
C040
C040
C040
C040
FFC0
FFC0
0C00
0C00
0C00
ENDCHAR
STARTCHAR 0410
ENCODING 1040
SWIDTH 640 0
DWIDTH 16 0
BBX 14 16 1 0
BITMAP
0300
0780
0780
0780
0CC0
0CC0
0CC0
1860
1FE0
1FF0
3030
3030
6018
6018
6018
C00C
ENDCHAR
STARTCHAR 0411
ENCODING 1041
SWIDTH 480 0
DWIDTH 12 0
BBX 10 16 1 0
BITMAP
FF80
FF80
C000
C000
C000
C000
FC00
FF80
C1C0
C0C0
C040
C040
C0C0
C0C0
FF80
FF00
ENDCHAR
STARTCHAR 0412
ENCODING 1042
SWIDTH 480 0
DWIDTH 12 0
BBX 10 16 1 0
BITMAP
FF00
FF80
C1C0
C0C0
C0C0
C0C0
FF80
FF80
C1C0
C0C0
C040
C040
C0C0
C0C0
FF80
FF00
ENDCHAR
STARTCHAR 0413
ENCODING 1043
SWIDTH 480 0
DWIDTH 12 0
BBX 10 16 1 0
BITMAP
FFC0
FFC0
C000
C000
C000
C000
C000
C000
C000
C000
C000
C000
C000
C000
C000
C000
ENDCHAR
STARTCHAR 0414
ENCODING 1044
SWIDTH 680 0
DWIDTH 17 0
BBX 15 19 1 -3
BITMAP
0FF8
0FF8
0C18
0C18
0C18
0C18
0C18
0C18
0C18
0C18
0C18
0C18
0818
1818
FFFE
FFFE
C006
C006
C006
ENDCHAR
STARTCHAR 0415
ENCODING 1045
SWIDTH 480 0
DWIDTH 12 0
BBX 10 16 1 0
BITMAP
FFC0
FFC0
C000
C000
C000
C000
C000
FF80
FF80
C000
C000
C000
C000
C000
FFC0
FFC0
ENDCHAR
STARTCHAR 0416
ENCODING 1046
SWIDTH 880 0
DWIDTH 22 0
BBX 19 16 2 0
BITMAP
E0C1C0
70C3C0
18C300
18C600
18C600
08C600
0CC600
0FDC00
0FFC00
0CC600
18C700
38C300
30C180
60C1C0
E0C0C0
C0C060
ENDCHAR
STARTCHAR 0417
ENCODING 1047
SWIDTH 520 0
DWIDTH 13 0
BBX 11 16 1 0
BITMAP
1F80
3FC0
60C0
6060
0060
00C0
0FC0
0F80
01C0
0060
0060
C060
C060
60E0
7FC0
1F80
ENDCHAR
STARTCHAR 0418
ENCODING 1048
SWIDTH 480 0
DWIDTH 12 0
BBX 10 16 1 0
BITMAP
C040
C040
C040
C0C0
C1C0
C3C0
C740
CE40
DC40
F840
F040
E040
C040
C040
C040
C040
ENDCHAR
STARTCHAR 0419
ENCODING 1049
SWIDTH 480 0
DWIDTH 12 0
BBX 10 21 1 0
BITMAP
2180
3100
1F00
0000
0000
C040
C040
C040
C0C0
C1C0
C3C0
C740
CE40
DC40
F840
F040
E040
C040
C040
C040
C040
ENDCHAR
STARTCHAR 041A
ENCODING 1050
SWIDTH 520 0
DWIDTH 13 0
BBX 11 16 1 0
BITMAP
C1C0
C3C0
C300
C600
C600
C600
CE00
FC00
FC00
CE00
C600
C300
C180
C180
C0C0
C060
ENDCHAR
STARTCHAR 041B
ENCODING 1051
SWIDTH 520 0
DWIDTH 13 0
BBX 11 16 1 0
BITMAP
3FE0
3FE0
3060
3060
3060
3060
3060
3060
3060
3060
3060
3060
3060
6060
E060
C060
ENDCHAR
STARTCHAR 041C
ENCODING 1052
SWIDTH 640 0
DWIDTH 16 0
BBX 14 16 1 0
BITMAP
C00C
E01C
E01C
E01C
F03C
F03C
D83C
D86C
D86C
CCCC
CCCC
CCCC
C78C
C78C
C38C
C30C
ENDCHAR
STARTCHAR 041D
ENCODING 1053
SWIDTH 480 0
DWIDTH 12 0
BBX 10 16 1 0
BITMAP
C040
C040
C040
C040
C040
C040
C040
FFC0
FFC0
C040
C040
C040
C040
C040
C040
C040
ENDCHAR
STARTCHAR 041E
ENCODING 1054
SWIDTH 600 0
DWIDTH 15 0
BBX 14 16 1 0
BITMAP
0FC0
1FE0
3030
6038
6018
C018
C00C
C00C
C00C
C00C
4018
6018
6038
3070
1FE0
0FC0
ENDCHAR
STARTCHAR 041F
ENCODING 1055
SWIDTH 480 0
DWIDTH 12 0
BBX 10 16 1 0
BITMAP
FFC0
FFC0
C040
C040
C040
C040
C040
C040
C040
C040
C040
C040
C040
C040
C040
C040
ENDCHAR
STARTCHAR 0420
ENCODING 1056
SWIDTH 480 0
DWIDTH 12 0
BBX 10 16 1 0
BITMAP
FE00
FF80
C180
C0C0
C0C0
C0C0
C180
FF80
FE00
C000
C000
C000
C000
C000
C000
C000
ENDCHAR
STARTCHAR 0421
ENCODING 1057
SWIDTH 560 0
DWIDTH 14 0
BBX 13 16 1 0
BITMAP
0FC0
1FE0
3030
6030
6000
C000
C000
C000
C000
C000
4000
6000
6038
3070
1FE0
0FC0
ENDCHAR
STARTCHAR 0422
ENCODING 1058
SWIDTH 480 0
DWIDTH 12 0
BBX 10 16 1 0
BITMAP
FFC0
FFC0
0C00
0C00
0C00
0C00
0C00
0C00
0C00
0C00
0C00
0C00
0C00
0C00
0C00
0C00
ENDCHAR
STARTCHAR 0423
ENCODING 1059
SWIDTH 560 0
DWIDTH 14 0
BBX 11 16 2 0
BITMAP
6060
60C0
30C0
30C0
3180
1980
1B00
0B00
0F00
0E00
0600
0600
0C00
8C00
F800
F800
ENDCHAR
STARTCHAR 0424
ENCODING 1060
SWIDTH 600 0
DWIDTH 15 0
BBX 13 16 1 0
BITMAP
0300
0300
0300
3BE0
7FF0
6738
C718
C318
C318
C718
6738
7FF0
3BE0
0300
0300
0300
ENDCHAR
STARTCHAR 0425
ENCODING 1061
SWIDTH 600 0
DWIDTH 15 0
BBX 12 16 2 0
BITMAP
C030
E070
6060
30C0
39C0
1980
0F00
0600
0F00
0F00
1980
39C0
30C0
6060
E070
C030
ENDCHAR
STARTCHAR 0426
ENCODING 1062
SWIDTH 560 0
DWIDTH 14 0
BBX 12 19 1 -3
BITMAP
C040
C040
C040
C040
C040
C040
C040
C040
C040
C040
C040
C040
C040
C040
FFF0
FFF0
0030
0030
0030
ENDCHAR
STARTCHAR 0427
ENCODING 1063
SWIDTH 520 0
DWIDTH 13 0
BBX 11 16 1 0
BITMAP
C060
C060
C060
C060
C060
C060
6060
7060
3FE0
0FE0
0060
0060
0060
0060
0060
0060
ENDCHAR
STARTCHAR 0428
ENCODING 1064
SWIDTH 720 0
DWIDTH 18 0
BBX 16 16 1 0
BITMAP
C181
C181
C181
C181
C181
C181
C181
C181
C181
C181
C181
C181
C181
C181
FFFF
FFFF
ENDCHAR
STARTCHAR 0429
ENCODING 1065
SWIDTH 800 0
DWIDTH 20 0
BBX 18 19 1 -3
BITMAP
C18100
C18100
C18100
C18100
C18100
C18100
C18100
C18100
C18100
C18100
C18100
C18100
C18100
C18100
FFFFC0
FFFFC0
0000C0
0000C0
0000C0
ENDCHAR
STARTCHAR 042A
ENCODING 1066
SWIDTH 640 0
DWIDTH 16 0
BBX 14 16 1 0
BITMAP
FC00
FC00
0C00
0C00
0C00
0C00
0FC0
0FF0
0C38
0C0C
0C0C
0C0C
0C0C
0C1C
0FF8
0FF0
ENDCHAR
STARTCHAR 042B
ENCODING 1067
SWIDTH 600 0
DWIDTH 15 0
BBX 14 16 1 0
BITMAP
C00C
C00C
C00C
C00C
C00C
C00C
FC0C
FF8C
C1CC
C0CC
C04C
C04C
C0CC
C0CC
FF8C
FF0C
ENDCHAR
STARTCHAR 042C
ENCODING 1068
SWIDTH 480 0
DWIDTH 12 0
BBX 10 16 1 0
BITMAP
C000
C000
C000
C000
C000
C000
FC00
FF80
C1C0
C0C0
C040
C040
C0C0
C0C0
FF80
FF00
ENDCHAR
STARTCHAR 042D
ENCODING 1069
SWIDTH 560 0
DWIDTH 14 0
BBX 13 16 1 0
BITMAP
1F80
3FC0
60E0
C070
0030
0030
0010
0FF8
0FF8
0010
0030
0030
C060
60E0
3FC0
1F80
ENDCHAR
STARTCHAR 042E
ENCODING 1070
SWIDTH 760 0
DWIDTH 19 0
BBX 17 16 1 0
BITMAP
C0FC00
C3DE00
C30700
C60300
CC0180
CC0180
CC0180
FC0180
FC0180
CC0180
CC0180
C40180
C60300
C30700
C3FE00
C0F800
ENDCHAR
STARTCHAR 042F
ENCODING 1071
SWIDTH 520 0
DWIDTH 13 0
BBX 11 16 1 0
BITMAP
0FE0
1FE0
3060
3060
2060
3060
3060
1FE0
0FE0
0C60
1C60
1860
3060
3060
6060
E060
ENDCHAR
STARTCHAR 0430
ENCODING 1072
SWIDTH 400 0
DWIDTH 10 0
BBX 8 11 1 0
BITMAP
3E
3F
03
03
3F
7F
E3
C3
C3
7F
3F
ENDCHAR
STARTCHAR 0431
ENCODING 1073
SWIDTH 480 0
DWIDTH 12 0
BBX 10 16 1 0
BITMAP
0180
0780
3F00
7000
6000
FF00
FB80
E180
C0C0
C0C0
C0C0
C0C0
40C0
6180
3F80
1E00
ENDCHAR
STARTCHAR 0432
ENCODING 1074
SWIDTH 400 0
DWIDTH 10 0
BBX 8 11 1 0
BITMAP
FE
FE
C3
C7
FE
FF
C3
C3
C3
FF
FC
ENDCHAR
STARTCHAR 0433
ENCODING 1075
SWIDTH 360 0
DWIDTH 9 0
BBX 8 11 1 0
BITMAP
FF
FF
C0
C0
C0
C0
C0
C0
C0
C0
C0
ENDCHAR
STARTCHAR 0434
ENCODING 1076
SWIDTH 560 0
DWIDTH 14 0
BBX 12 14 1 -3
BITMAP
0FE0
0FE0
0C60
0C60
0C60
0C60
0C60
0860
1860
FFF0
FFF0
C010
C010
C010
ENDCHAR
STARTCHAR 0435
ENCODING 1077
SWIDTH 480 0
DWIDTH 12 0
BBX 10 11 1 0
BITMAP
3F00
7B80
6180
C0C0
FFC0
FFC0
C000
6000
6180
3F80
1E00
ENDCHAR
STARTCHAR 0436
ENCODING 1078
SWIDTH 680 0
DWIDTH 17 0
BBX 16 11 1 0
BITMAP
718C
399C
1998
1990
1DB0
1FF0
1BD8
319C
718C
6186
C183
ENDCHAR
STARTCHAR 0437
ENCODING 1079
SWIDTH 360 0
DWIDTH 9 0
BBX 8 11 1 0
BITMAP
3C
7E
66
06
1C
1E
06
03
C6
7E
3C
ENDCHAR
STARTCHAR 0438
ENCODING 1080
SWIDTH 400 0
DWIDTH 10 0
BBX 9 11 1 0
BITMAP
C180
C180
C380
C780
CF80
DD80
F980
F180
E180
C180
C180
ENDCHAR
STARTCHAR 0439
ENCODING 1081
SWIDTH 400 0
DWIDTH 10 0
BBX 9 16 1 0
BITMAP
6300
6300
3E00
0000
0000
C180
C180
C380
C780
CF80
DD80
F980
F180
E180
C180
C180
ENDCHAR
STARTCHAR 043A
ENCODING 1082
SWIDTH 400 0
DWIDTH 10 0
BBX 9 11 1 0
BITMAP
C700
CE00
CC00
CC00
D800
FC00
EC00
C600
C700
C300
C180
ENDCHAR
STARTCHAR 043B
ENCODING 1083
SWIDTH 480 0
DWIDTH 12 0
BBX 10 11 1 0
BITMAP
3FC0
3FC0
30C0
30C0
30C0
30C0
30C0
30C0
60C0
E0C0
C0C0
ENDCHAR
STARTCHAR 043C
ENCODING 1084
SWIDTH 480 0
DWIDTH 12 0
BBX 10 11 1 0
BITMAP
C0C0
E0C0
E1C0
F1C0
F1C0
F340
DB40
DB40
DE40
CE40
CC40
ENDCHAR
STARTCHAR 043D
ENCODING 1085
SWIDTH 400 0
DWIDTH 10 0
BBX 9 11 1 0
BITMAP
C180
C180
C180
C180
FF80
FF80
C180
C180
C180
C180
C180
ENDCHAR
STARTCHAR 043E
ENCODING 1086
SWIDTH 480 0
DWIDTH 12 0
BBX 10 11 1 0
BITMAP
3F00
7B80
6180
C0C0
C0C0
C0C0
C0C0
40C0
6180
3F80
1E00
ENDCHAR
STARTCHAR 043F
ENCODING 1087
SWIDTH 400 0
DWIDTH 10 0
BBX 9 11 1 0
BITMAP
FF80
FF80
C180
C180
C180
C180
C180
C180
C180
C180
C180
ENDCHAR
STARTCHAR 0440
ENCODING 1088
SWIDTH 480 0
DWIDTH 12 0
BBX 10 16 1 -6
BITMAP
FF00
FB80
E180
C0C0
C0C0
C0C0
C0C0
C0C0
E180
FF80
DE00
C000
C000
C000
C000
4000
ENDCHAR
STARTCHAR 0441
ENCODING 1089
SWIDTH 440 0
DWIDTH 11 0
BBX 9 11 1 0
BITMAP
3F00
7B80
6180
C000
C000
C000
C000
4000
6180
3F80
1E00
ENDCHAR
STARTCHAR 0442
ENCODING 1090
SWIDTH 360 0
DWIDTH 9 0
BBX 8 11 1 0
BITMAP
FF
FF
18
18
18
18
18
18
18
18
18
ENDCHAR
STARTCHAR 0443
ENCODING 1091
SWIDTH 480 0
DWIDTH 12 0
BBX 10 16 1 -5
BITMAP
C0C0
60C0
6180
3180
3180
3300
1B00
1B00
1E00
0E00
0C00
0C00
0C00
1800
7800
7000
ENDCHAR
STARTCHAR 0444
ENCODING 1092
SWIDTH 600 0
DWIDTH 15 0
BBX 13 21 1 -6
BITMAP
0300
0300
0300
0300
0300
3FE0
7FB0
6718
C718
C318
C318
C318
C718
6710
7FF0
3FE0
0300
0300
0300
0300
0300
ENDCHAR
STARTCHAR 0445
ENCODING 1093
SWIDTH 480 0
DWIDTH 12 0
BBX 9 11 2 0
BITMAP
C180
E300
6600
3E00
1C00
1800
3C00
3600
6700
E300
C180
ENDCHAR
STARTCHAR 0446
ENCODING 1094
SWIDTH 480 0
DWIDTH 12 0
BBX 11 14 1 -3
BITMAP
C180
C180
C180
C180
C180
C180
C180
C180
C180
FFE0
FFE0
0060
0060
0060
ENDCHAR
STARTCHAR 0447
ENCODING 1095
SWIDTH 400 0
DWIDTH 10 0
BBX 8 11 1 0
BITMAP
C3
C3
C3
63
77
3F
03
03
03
03
03
ENDCHAR
STARTCHAR 0448
ENCODING 1096
SWIDTH 560 0
DWIDTH 14 0
BBX 12 11 1 0
BITMAP
C630
C630
C630
C630
C630
C630
C630
C630
C630
FFF0
FFF0
ENDCHAR
STARTCHAR 0449
ENCODING 1097
SWIDTH 600 0
DWIDTH 15 0
BBX 14 14 1 -3
BITMAP
C630
C630
C630
C630
C630
C630
C630
C630
C630
FFFC
FFFC
000C
000C
000C
ENDCHAR
STARTCHAR 044A
ENCODING 1098
SWIDTH 520 0
DWIDTH 13 0
BBX 11 11 1 0
BITMAP
FC00
FC00
0C00
0C00
0FC0
0FE0
0C60
0C60
0C60
0FE0
0FC0
ENDCHAR
STARTCHAR 044B
ENCODING 1099
SWIDTH 480 0
DWIDTH 12 0
BBX 11 11 1 0
BITMAP
C060
C060
C060
C060
FC60
FE60
C660
C360
C660
FE60
FC60
ENDCHAR
STARTCHAR 044C
ENCODING 1100
SWIDTH 360 0
DWIDTH 9 0
BBX 8 11 1 0
BITMAP
C0
C0
C0
C0
FC
FE
C6
C3
C6
FE
FC
ENDCHAR
STARTCHAR 044D
ENCODING 1101
SWIDTH 440 0
DWIDTH 11 0
BBX 9 11 1 0
BITMAP
3E00
7700
C180
0180
1F80
1F80
0180
4180
E380
7F00
3E00
ENDCHAR
STARTCHAR 044E
ENCODING 1102
SWIDTH 600 0
DWIDTH 15 0
BBX 14 11 1 0
BITMAP
C3E0
C770
CE18
CC18
FC0C
FC0C
CC0C
CC18
C618
C7F0
C3E0
ENDCHAR
STARTCHAR 044F
ENCODING 1103
SWIDTH 400 0
DWIDTH 10 0
BBX 8 11 1 0
BITMAP
1F
3F
63
63
33
3F
1F
33
33
63
E3
ENDCHAR
STARTCHAR 0450
ENCODING 1104
SWIDTH 480 0
DWIDTH 12 0
BBX 10 16 1 0
BITMAP
1800
0800
0400
0200
0000
3F00
7B80
6180
C0C0
FFC0
FFC0
C000
6000
6180
3F80
1E00
ENDCHAR
STARTCHAR 0451
ENCODING 1105
SWIDTH 480 0
DWIDTH 12 0
BBX 10 16 1 0
BITMAP
2000
3380
3300
0000
0000
3F00
7B80
6180
C0C0
FFC0
FFC0
C000
6000
6180
3F80
1E00
ENDCHAR
STARTCHAR 0452
ENCODING 1106
SWIDTH 560 0
DWIDTH 14 0
BBX 12 21 1 -5
BITMAP
1000
1000
FE00
FE00
1000
17E0
1EE0
1C30
1830
1830
1030
1030
1030
1030
1030
1030
0030
0030
0030
01F0
01E0
ENDCHAR
STARTCHAR 0453
ENCODING 1107
SWIDTH 360 0
DWIDTH 9 0
BBX 8 16 1 0
BITMAP
0C
08
10
20
00
FF
FF
C0
C0
C0
C0
C0
C0
C0
C0
C0
ENDCHAR
STARTCHAR 0454
ENCODING 1108
SWIDTH 440 0
DWIDTH 11 0
BBX 9 11 1 0
BITMAP
3F00
7B80
6180
C000
FC00
FC00
C000
6000
6180
3F80
1E00
ENDCHAR
STARTCHAR 0455
ENCODING 1109
SWIDTH 360 0
DWIDTH 9 0
BBX 8 11 1 0
BITMAP
7C
6E
46
60
78
1E
06
03
C6
7E
3C
ENDCHAR
STARTCHAR 0456
ENCODING 1110
SWIDTH 160 0
DWIDTH 4 0
BBX 2 15 1 1
BITMAP
C0
C0
00
00
C0
C0
C0
C0
C0
C0
C0
C0
C0
C0
C0
ENDCHAR
STARTCHAR 0457
ENCODING 1111
SWIDTH 160 0
DWIDTH 4 0
BBX 7 16 -1 0
BITMAP
04
CE
CC
00
00
30
30
30
30
30
30
30
30
30
30
30
ENDCHAR
STARTCHAR 0458
ENCODING 1112
SWIDTH 160 0
DWIDTH 4 0
BBX 5 20 -2 -4
BITMAP
18
18
00
00
18
18
18
18
18
18
18
18
18
18
18
18
18
18
F8
F0
ENDCHAR
STARTCHAR 0459
ENCODING 1113
SWIDTH 680 0
DWIDTH 17 0
BBX 15 11 1 0
BITMAP
3FC0
3FC0
30C0
30C0
30FC
30FE
30C6
30C2
60C6
E0FE
C0FC
ENDCHAR
STARTCHAR 045A
ENCODING 1114
SWIDTH 640 0
DWIDTH 16 0
BBX 14 11 1 0
BITMAP
C180
C180
C180
C180
FFF8
FFFC
C18C
C18C
C18C
C1FC
C1F8
ENDCHAR
STARTCHAR 045B
ENCODING 1115
SWIDTH 560 0
DWIDTH 14 0
BBX 12 16 1 0
BITMAP
3000
3000
FC00
FC00
3000
3FC0
3EE0
3860
3030
3030
3030
3030
3030
3030
3030
3030
ENDCHAR
STARTCHAR 045C
ENCODING 1116
SWIDTH 400 0
DWIDTH 10 0
BBX 9 16 1 0
BITMAP
0E00
0800
1000
0000
0000
C700
CE00
CC00
CC00
D800
FC00
EC00
C600
C700
C300
C180
ENDCHAR
STARTCHAR 045D
ENCODING 1117
SWIDTH 400 0
DWIDTH 10 0
BBX 9 16 1 0
BITMAP
3000
1800
0800
0400
0000
C180
C180
C380
C780
CF80
DD80
F980
F180
E180
C180
C180
ENDCHAR
STARTCHAR 045E
ENCODING 1118
SWIDTH 480 0
DWIDTH 12 0
BBX 10 21 1 -5
BITMAP
2180
3300
1E00
0000
0000
C0C0
60C0
6180
3180
3180
3300
1B00
1B00
1E00
0E00
0C00
0C00
0C00
1800
7800
7000
ENDCHAR
STARTCHAR 045F
ENCODING 1119
SWIDTH 400 0
DWIDTH 10 0
BBX 9 14 1 -3
BITMAP
C180
C180
C180
C180
C180
C180
C180
C180
C180
FF80
FF80
0800
0800
0800
ENDCHAR
STARTCHAR 0460
ENCODING 1120
SWIDTH 920 0
DWIDTH 23 0
BBX 21 16 1 0
BITMAP
C06018
C06018
C06018
C06018
C06018
C06018
C06018
C06018
606018
606030
607030
307060
38D860
1DCCC0
0F8F80
070300
ENDCHAR
STARTCHAR 0461
ENCODING 1121
SWIDTH 720 0
DWIDTH 18 0
BBX 16 11 1 0
BITMAP
C303
C303
C303
C303
C303
4183
6186
61C6
33CC
1E78
0C30
ENDCHAR
STARTCHAR 0462
ENCODING 1122
SWIDTH 640 0
DWIDTH 16 0
BBX 15 16 1 0
BITMAP
0C00
0C00
FFC0
FFC0
0C00
0C00
0FC0
0FF8
0C1C
0C0C
0C06
0C06
0C06
0C0C
0FF8
0FF0
ENDCHAR
STARTCHAR 0463
ENCODING 1123
SWIDTH 480 0
DWIDTH 12 0
BBX 10 16 1 0
BITMAP
1800
1800
1800
1800
1800
FF00
FF00
1800
1800
1F80
1FC0
18C0
18C0
18C0
1FC0
1F80
ENDCHAR
STARTCHAR 0464
ENCODING 1124
SWIDTH 720 0
DWIDTH 18 0
BBX 16 16 1 0
BITMAP
C1F8
C3DE
C707
C603
CC00
CC00
CC00
FFF0
FFF0
CC00
CC00
CC00
C603
C706
C3FE
C0F8
ENDCHAR
STARTCHAR 0465
ENCODING 1125
SWIDTH 600 0
DWIDTH 15 0
BBX 13 11 1 0
BITMAP
C3E0
C770
CE18
CC10
FFC0
FFC0
CC00
CC10
C618
C7F0
C3E0
ENDCHAR
STARTCHAR 0466
ENCODING 1126
SWIDTH 640 0
DWIDTH 16 0
BBX 14 16 1 0
BITMAP
0300
0780
0780
0780
0CC0
0CC0
0CC0
1860
1FE0
1FF0
3330
3330
6318
6318
6318
C30C
ENDCHAR
STARTCHAR 0467
ENCODING 1127
SWIDTH 480 0
DWIDTH 12 0
BBX 10 11 1 0
BITMAP
0E00
0E00
1E00
1B00
1B00
3300
3F80
7F80
6D80
6CC0
CCC0
ENDCHAR
STARTCHAR 0468
ENCODING 1128
SWIDTH 760 0
DWIDTH 19 0
BBX 17 16 1 0
BITMAP
C07000
C07000
C07000
C0D800
C0D800
C18800
C18C00
FF8C00
FFFE00
C3FE00
C32600
C62300
C62300
C42300
CC2180
CC2180
ENDCHAR
STARTCHAR 0469
ENCODING 1129
SWIDTH 600 0
DWIDTH 15 0
BBX 13 11 1 0
BITMAP
C180
C3C0
C3C0
C3C0
FE60
FE60
C7E0
CFF0
CDB0
D990
D998
ENDCHAR
STARTCHAR 046A
ENCODING 1130
SWIDTH 560 0
DWIDTH 14 0
BBX 13 16 1 0
BITMAP
FFF8
7FF0
7060
30E0
18C0
1D80
0F00
0F80
3FC0
7660
6630
C630
C610
C610
C610
C610
ENDCHAR
STARTCHAR 046B
ENCODING 1131
SWIDTH 480 0
DWIDTH 12 0
BBX 10 11 1 0
BITMAP
7FC0
7F80
3300
1F00
1E00
3F00
7F80
6DC0
CCC0
CCC0
CCC0
ENDCHAR
STARTCHAR 046C
ENCODING 1132
SWIDTH 720 0
DWIDTH 18 0
BBX 16 16 1 0
BITMAP
CFFF
CFFF
C606
C30C
C39C
C198
C0F0
FFF8
FFFC
C76E
CE67
CC63
CC63
CC63
CC63
CC63
ENDCHAR
STARTCHAR 046D
ENCODING 1133
SWIDTH 640 0
DWIDTH 16 0
BBX 14 11 1 0
BITMAP
CFF8
C7F8
C330
C3E0
FFE0
FFF0
C7F8
CCD8
CCCC
CCCC
CCCC
ENDCHAR
STARTCHAR 046E
ENCODING 1134
SWIDTH 520 0
DWIDTH 13 0
BBX 11 24 1 -5
BITMAP
3180
1B00
0F00
1F80
3FC0
60C0
6060
0060
00C0
0FC0
0F80
01C0
0060
0060
0060
0060
00E0
1FC0
7F00
E000
C000
E040
7FC0
1F80
ENDCHAR
STARTCHAR 046F
ENCODING 1135
SWIDTH 360 0
DWIDTH 9 0
BBX 8 19 1 -5
BITMAP
66
7C
3C
3C
7E
66
06
1C
1E
06
03
06
3E
7C
E0
C0
C6
7E
3C
ENDCHAR
STARTCHAR 0470
ENCODING 1136
SWIDTH 640 0
DWIDTH 16 0
BBX 15 16 1 0
BITMAP
C30E
630E
6318
3318
3318
3318
1B38
1B70
1FE0
0300
0300
0300
0300
0300
0300
0300
ENDCHAR
STARTCHAR 0471
ENCODING 1137
SWIDTH 680 0
DWIDTH 17 0
BBX 15 21 1 -6
BITMAP
0300
0300
0300
0300
0300
C30E
630C
6318
3318
3318
3318
1B18
1B18
1B30
0FF0
0FC0
0300
0300
0300
0300
0100
ENDCHAR
STARTCHAR 0472
ENCODING 1138
SWIDTH 600 0
DWIDTH 15 0
BBX 14 16 1 0
BITMAP
0FC0
1FE0
3030
6038
6018
C018
C00C
FFFC
FFFC
C00C
4018
6018
6038
3070
1FE0
0FC0
ENDCHAR
STARTCHAR 0473
ENCODING 1139
SWIDTH 480 0
DWIDTH 12 0
BBX 10 11 1 0
BITMAP
3F00
7B80
6180
C0C0
FFC0
FFC0
C0C0
60C0
6180
3F80
1E00
ENDCHAR
STARTCHAR 0474
ENCODING 1140
SWIDTH 720 0
DWIDTH 18 0
BBX 17 16 1 0
BITMAP
C00F80
601D80
601800
201800
303000
303000
183000
186000
186000
0CC000
0CC000
0CC000
078000
078000
038000
030000
ENDCHAR
STARTCHAR 0475
ENCODING 1141
SWIDTH 560 0
DWIDTH 14 0
BBX 14 11 1 0
BITMAP
C0F8
60DC
6180
3180
3180
3300
1B00
1B00
1E00
0E00
0C00
ENDCHAR
STARTCHAR 0476
ENCODING 1142
SWIDTH 720 0
DWIDTH 18 0
BBX 17 21 1 0
BITMAP
0CC000
064000
022000
010000
000000
C00F80
601D80
601800
201800
303000
303000
183000
186000
186000
0CC000
0CC000
0CC000
078000
078000
038000
030000
ENDCHAR
STARTCHAR 0477
ENCODING 1143
SWIDTH 560 0
DWIDTH 14 0
BBX 14 16 1 0
BITMAP
3B00
1980
0480
0040
0000
C0F8
60DC
6180
3180
3180
3300
1B00
1B00
1E00
0E00
0C00
ENDCHAR
STARTCHAR 0478
ENCODING 1144
SWIDTH 1080 0
DWIDTH 27 0
BBX 25 21 1 -5
BITMAP
0FC00000
1FE00000
30300000
60380000
60180000
C0198180
C00D8300
C00CC300
C00CC300
C00C6600
40186600
60186600
60383C00
30703C00
1FE03800
0FC01800
00001800
00003000
00003000
0000F000
0000E000
ENDCHAR
STARTCHAR 0479
ENCODING 1145
SWIDTH 760 0
DWIDTH 19 0
BBX 17 16 1 -5
BITMAP
3CC180
7EC180
666180
C66300
C26300
C33300
C23600
C63600
661E00
7E1C00
3C1C00
001800
001800
001800
007000
00E000
ENDCHAR
STARTCHAR 047A
ENCODING 1146
SWIDTH 800 0
DWIDTH 20 0
BBX 19 18 1 -1
BITMAP
00E000
07F800
0FFE00
380700
300180
6000C0
6000C0
C00040
C00060
C00060
C000C0
6000C0
6001C0
300180
1C4700
0FFE00
03F800
00E000
ENDCHAR
STARTCHAR 047B
ENCODING 1147
SWIDTH 560 0
DWIDTH 14 0
BBX 12 13 1 -1
BITMAP
0700
1FC0
3FE0
6070
E030
C030
C010
C030
6030
7270
3FE0
1F80
0700
ENDCHAR
STARTCHAR 047C
ENCODING 1148
SWIDTH 1080 0
DWIDTH 27 0
BBX 25 21 1 0
BITMAP
003C0000
007E0000
00678000
00418000
001C0000
0E1C1C00
1E0C1E00
30040700
60040300
60080180
C0100180
C0000180
C0000180
C00C0180
C00C0180
401C0180
601C0180
603E0300
30730700
1FE3FE00
0FC0F800
ENDCHAR
STARTCHAR 047D
ENCODING 1149
SWIDTH 800 0
DWIDTH 20 0
BBX 18 19 1 0
BITMAP
01C000
03F000
063800
061C00
00C400
01E000
00A000
002000
384700
788380
600180
C000C0
C000C0
C0C0C0
C0C0C0
40C0C0
61E180
3FBF80
1F1E00
ENDCHAR
STARTCHAR 047E
ENCODING 1150
SWIDTH 920 0
DWIDTH 23 0
BBX 21 21 1 0
BITMAP
1FFFE0
1FFFE0
103060
103060
003000
C03018
C00018
C00018
C00018
C06018
C06018
C06018
C06018
606018
606030
607030
307060
38D860
1DCCC0
0F8F80
070300
ENDCHAR
STARTCHAR 047F
ENCODING 1151
SWIDTH 720 0
DWIDTH 18 0
BBX 16 16 1 0
BITMAP
3FFC
3FFC
3184
3184
0180
C183
C003
C303
C303
C303
4183
6186
61C6
33CC
1E78
0C30
ENDCHAR
STARTCHAR 0480
ENCODING 1152
SWIDTH 560 0
DWIDTH 14 0
BBX 12 21 1 -5
BITMAP
0FC0
1FE0
3030
6030
6000
C000
C000
C000
C000
C000
4000
6000
6000
3000
1F00
0F00
0300
0300
0300
0300
0300
ENDCHAR
STARTCHAR 0481
ENCODING 1153
SWIDTH 440 0
DWIDTH 11 0
BBX 9 16 1 -6
BITMAP
3F00
7B80
6180
C000
C000
C000
C000
4000
6000
3C00
1C00
0C00
0C00
0C00
0C00
0400
ENDCHAR
STARTCHAR 0482
ENCODING 1154
SWIDTH 600 0
DWIDTH 15 0
BBX 13 16 1 -5
BITMAP
0060
00C0
18C0
1F80
07C0
01F8
0318
0300
0300
F600
7E00
0FC0
0DE0
0C20
1800
1800
ENDCHAR
STARTCHAR 0483
ENCODING 1155
SWIDTH 0 0
DWIDTH 0 0
BBX 8 5 -4 12
BITMAP
03
3F
FF
C0
C0
ENDCHAR
STARTCHAR 0484
ENCODING 1156
SWIDTH 0 0
DWIDTH 0 0
BBX 5 5 0 12
BITMAP
F0
38
18
08
10
ENDCHAR
STARTCHAR 0485
ENCODING 1157
SWIDTH 0 0
DWIDTH 0 0
BBX 2 5 -1 12
BITMAP
C0
C0
80
80
40
ENDCHAR
STARTCHAR 0486
ENCODING 1158
SWIDTH 0 0
DWIDTH 0 0
BBX 2 5 -1 12
BITMAP
C0
C0
40
40
80
ENDCHAR
STARTCHAR 0487
ENCODING 1159
SWIDTH 0 0
DWIDTH 0 0
BBX 8 4 -4 12
BITMAP
78
FE
C7
01
ENDCHAR
STARTCHAR 0488
ENCODING 1160
SWIDTH 840 0
DWIDTH 21 0
BBX 20 19 1 -3
BITMAP
026400
076E00
120480
180180
000000
600060
600060
000000
000000
C00030
C00030
000000
600060
600060
000000
180180
180180
034C00
036C00
ENDCHAR
STARTCHAR 0489
ENCODING 1161
SWIDTH 1040 0
DWIDTH 26 0
BBX 23 23 2 -5
BITMAP
002000
002000
043180
061100
020100
400000
50003C
300030
000000
000000
000000
20001C
C00012
000000
000000
100030
100028
600008
020100
030180
023080
081080
001000
ENDCHAR
STARTCHAR 048A
ENCODING 1162
SWIDTH 480 0
DWIDTH 12 0
BBX 11 25 1 -5
BITMAP
2180
3100
1F00
0000
0000
C040
C040
C040
C0C0
C1C0
C3C0
C740
CE40
DC40
F840
F040
E040
C040
C040
C040
C040
0060
0060
0040
0040
ENDCHAR
STARTCHAR 048B
ENCODING 1163
SWIDTH 400 0
DWIDTH 10 0
BBX 9 21 1 -5
BITMAP
6300
6300
3E00
0000
0000
C180
C180
C380
C780
CF80
DD80
F980
F180
E180
C180
C180
0080
0080
0100
0100
0100
ENDCHAR
STARTCHAR 048C
ENCODING 1164
SWIDTH 560 0
DWIDTH 14 0
BBX 12 16 1 0
BITMAP
3000
3000
FC00
FC00
3000
3000
3E00
3FC0
30E0
3030
3030
3030
3030
3070
3FE0
3FC0
ENDCHAR
STARTCHAR 048D
ENCODING 1165
SWIDTH 440 0
DWIDTH 11 0
BBX 9 14 1 0
BITMAP
3000
3000
3000
F800
F800
3000
3000
3F00
3F00
3180
3180
3180
3F00
3E00
ENDCHAR
STARTCHAR 048E
ENCODING 1166
SWIDTH 480 0
DWIDTH 12 0
BBX 10 16 1 0
BITMAP
FE00
FF80
C180
C0C0
C0C0
C6C0
C380
FF80
FEC0
C040
C000
C000
C000
C000
C000
C000
ENDCHAR
STARTCHAR 048F
ENCODING 1167
SWIDTH 480 0
DWIDTH 12 0
BBX 10 16 1 -6
BITMAP
FF00
FB80
E180
C0C0
C0C0
C0C0
C0C0
C6C0
E380
FF80
DFC0
C040
C000
C000
C000
4000
ENDCHAR
STARTCHAR 0490
ENCODING 1168
SWIDTH 480 0
DWIDTH 12 0
BBX 10 19 1 0
BITMAP
0040
0040
0040
FFC0
FFC0
C000
C000
C000
C000
C000
C000
C000
C000
C000
C000
C000
C000
C000
C000
ENDCHAR
STARTCHAR 0491
ENCODING 1169
SWIDTH 360 0
DWIDTH 9 0
BBX 8 14 1 0
BITMAP
03
03
03
FF
FF
C0
C0
C0
C0
C0
C0
C0
C0
C0
ENDCHAR
STARTCHAR 0492
ENCODING 1170
SWIDTH 560 0
DWIDTH 14 0
BBX 12 16 1 0
BITMAP
3FF0
3FF0
3000
3000
3000
3000
3000
FC00
FC00
3000
3000
3000
3000
3000
3000
3000
ENDCHAR
STARTCHAR 0493
ENCODING 1171
SWIDTH 440 0
DWIDTH 11 0
BBX 9 11 1 0
BITMAP
3F80
3F80
3000
3000
FC00
FC00
3000
3000
3000
3000
3000
ENDCHAR
STARTCHAR 0494
ENCODING 1172
SWIDTH 480 0
DWIDTH 12 0
BBX 10 21 1 -5
BITMAP
FFC0
FFC0
C000
C000
C000
DF00
FB80
E180
E0C0
C0C0
C0C0
C0C0
C0C0
C0C0
C0C0
C0C0
00C0
00C0
00C0
0780
0780
ENDCHAR
STARTCHAR 0495
ENCODING 1173
SWIDTH 360 0
DWIDTH 9 0
BBX 8 16 1 -5
BITMAP
FF
FF
C0
D8
FC
E6
C6
C6
C6
C6
C6
06
06
06
3C
3C
ENDCHAR
STARTCHAR 0496
ENCODING 1174
SWIDTH 880 0
DWIDTH 22 0
BBX 19 19 2 -3
BITMAP
E0C1C0
70C3C0
18C300
18C600
18C600
08C600
0CC600
0FDC00
0FFC00
0CC600
18C700
38C300
30C180
60C1C0
E0C0E0
C0C060
000020
000020
000020
ENDCHAR
STARTCHAR 0497
ENCODING 1175
SWIDTH 680 0
DWIDTH 17 0
BBX 16 14 1 -3
BITMAP
718C
399C
1998
1990
1DB0
1FF0
1BD8
319C
718C
6187
C183
0003
0003
0003
ENDCHAR
STARTCHAR 0498
ENCODING 1176
SWIDTH 520 0
DWIDTH 13 0
BBX 11 19 1 -3
BITMAP
1F80
3FC0
60C0
6060
0060
00C0
0FC0
0F80
01C0
0060
0060
C060
C060
60E0
7FC0
1F80
0600
0600
0600
ENDCHAR
STARTCHAR 0499
ENCODING 1177
SWIDTH 360 0
DWIDTH 9 0
BBX 8 14 1 -3
BITMAP
3C
7E
66
06
1C
1E
06
03
C6
7E
3C
18
18
18
ENDCHAR
STARTCHAR 049A
ENCODING 1178
SWIDTH 520 0
DWIDTH 13 0
BBX 11 19 1 -3
BITMAP
C1C0
C3C0
C300
C600
C600
C600
CE00
FC00
FC00
CE00
C600
C300
C180
C180
C0E0
C060
0060
0060
0060
ENDCHAR
STARTCHAR 049B
ENCODING 1179
SWIDTH 400 0
DWIDTH 10 0
BBX 9 14 1 -3
BITMAP
C700
CE00
CC00
CC00
D800
FC00
EC00
C600
C700
C380
C180
0080
0080
0080
ENDCHAR
STARTCHAR 049C
ENCODING 1180
SWIDTH 520 0
DWIDTH 13 0
BBX 11 16 1 0
BITMAP
C1C0
C3C0
C300
C600
C600
F600
FE00
FC00
FC00
FE00
F600
C300
C180
C180
C0C0
C060
ENDCHAR
STARTCHAR 049D
ENCODING 1181
SWIDTH 400 0
DWIDTH 10 0
BBX 9 11 1 0
BITMAP
C700
CE00
FC00
FC00
F800
FC00
FC00
F600
C700
C300
C180
ENDCHAR
STARTCHAR 049E
ENCODING 1182
SWIDTH 520 0
DWIDTH 13 0
BBX 13 16 -1 0
BITMAP
3070
30F0
FEC0
FF80
3180
3180
3380
3F00
3F00
3380
3180
30C0
3060
3060
3030
3018
ENDCHAR
STARTCHAR 049F
ENCODING 1183
SWIDTH 400 0
DWIDTH 10 0
BBX 11 15 -1 0
BITMAP
3000
3000
FE00
FE00
31C0
3380
3300
3300
3600
3F00
3B00
3180
31C0
30C0
3060
ENDCHAR
STARTCHAR 04A0
ENCODING 1184
SWIDTH 680 0
DWIDTH 17 0
BBX 15 16 1 0
BITMAP
FC1C
FC3C
0C60
0C60
0C60
0C60
0CC0
0FC0
0FC0
0CC0
0C60
0C70
0C30
0C18
0C0C
0C0E
ENDCHAR
STARTCHAR 04A1
ENCODING 1185
SWIDTH 560 0
DWIDTH 14 0
BBX 13 11 1 0
BITMAP
FC60
FCE0
0CC0
0D80
0D80
0F80
0EC0
0CE0
0C60
0C30
0C38
ENDCHAR
STARTCHAR 04A2
ENCODING 1186
SWIDTH 560 0
DWIDTH 14 0
BBX 12 19 1 -3
BITMAP
C040
C040
C040
C040
C040
C040
C040
FFC0
FFC0
C040
C040
C040
C040
C040
C070
C070
0030
0030
0030
ENDCHAR
STARTCHAR 04A3
ENCODING 1187
SWIDTH 480 0
DWIDTH 12 0
BBX 11 14 1 -3
BITMAP
C180
C180
C180
C180
FF80
FF80
C180
C180
C180
C1E0
C1E0
0060
0060
0060
ENDCHAR
STARTCHAR 04A4
ENCODING 1188
SWIDTH 840 0
DWIDTH 21 0
BBX 19 16 1 0
BITMAP
C07FE0
C07FE0
C04000
C04000
C04000
C04000
C04000
FFC000
FFC000
C04000
C04000
C04000
C04000
C04000
C04000
C04000
ENDCHAR
STARTCHAR 04A5
ENCODING 1189
SWIDTH 640 0
DWIDTH 16 0
BBX 14 11 1 0
BITMAP
C1FC
C1FC
C180
C180
FF80
FF80
C180
C180
C180
C180
C180
ENDCHAR
STARTCHAR 04A6
ENCODING 1190
SWIDTH 800 0
DWIDTH 20 0
BBX 18 21 1 -5
BITMAP
FFC000
FFC000
C04000
C04000
C04000
C07C00
C04E00
C04300
C04180
C04180
C040C0
C040C0
C040C0
C040C0
C040C0
C04080
000180
030380
038700
01FE00
00FC00
ENDCHAR
STARTCHAR 04A7
ENCODING 1191
SWIDTH 640 0
DWIDTH 16 0
BBX 14 16 1 -5
BITMAP
FF80
FF80
C180
C180
C1C0
C1F0
C1B8
C18C
C18C
C18C
C18C
000C
020C
0718
03F8
01F0
ENDCHAR
STARTCHAR 04A8
ENCODING 1192
SWIDTH 720 0
DWIDTH 18 0
BBX 16 16 1 0
BITMAP
0E78
1EF8
318C
618C
6106
C306
C306
C306
C306
C106
418C
618C
60DC
30F8
1FFF
0FFE
ENDCHAR
STARTCHAR 04A9
ENCODING 1193
SWIDTH 600 0
DWIDTH 15 0
BBX 13 11 1 0
BITMAP
3BC0
7BE0
6660
C660
C620
C620
C660
4660
67E0
3FF8
1FF0
ENDCHAR
STARTCHAR 04AA
ENCODING 1194
SWIDTH 560 0
DWIDTH 14 0
BBX 13 19 1 -3
BITMAP
0FC0
1FE0
3030
6030
6000
C000
C000
C000
C000
C000
4000
6000
6038
3070
1FE0
0FC0
0300
0300
0300
ENDCHAR
STARTCHAR 04AB
ENCODING 1195
SWIDTH 440 0
DWIDTH 11 0
BBX 9 14 1 -3
BITMAP
3F00
7B80
6180
C000
C000
C000
C000
4000
6180
3F80
1F00
0C00
0C00
0C00
ENDCHAR
STARTCHAR 04AC
ENCODING 1196
SWIDTH 480 0
DWIDTH 12 0
BBX 10 19 1 -3
BITMAP
FFC0
FFC0
0C00
0C00
0C00
0C00
0C00
0C00
0C00
0C00
0C00
0C00
0C00
0C00
0F00
0F00
0300
0300
0300
ENDCHAR
STARTCHAR 04AD
ENCODING 1197
SWIDTH 360 0
DWIDTH 9 0
BBX 8 14 1 -3
BITMAP
FF
FF
18
18
18
18
18
18
18
1E
1E
06
06
06
ENDCHAR
STARTCHAR 04AE
ENCODING 1198
SWIDTH 600 0
DWIDTH 15 0
BBX 12 16 2 0
BITMAP
C030
E070
6060
30C0
39C0
1980
0F00
0600
0600
0600
0600
0600
0600
0600
0600
0600
ENDCHAR
STARTCHAR 04AF
ENCODING 1199
SWIDTH 480 0
DWIDTH 12 0
BBX 10 16 1 -6
BITMAP
C0C0
60C0
6180
3180
3180
3300
1B00
1B00
1E00
0E00
0C00
0C00
0C00
0C00
0C00
0400
ENDCHAR
STARTCHAR 04B0
ENCODING 1200
SWIDTH 600 0
DWIDTH 15 0
BBX 12 16 2 0
BITMAP
C030
E070
6060
30C0
39C0
1980
0F00
0600
0600
3FC0
3FC0
0600
0600
0600
0600
0600
ENDCHAR
STARTCHAR 04B1
ENCODING 1201
SWIDTH 480 0
DWIDTH 12 0
BBX 10 16 1 -6
BITMAP
C0C0
60C0
6180
3180
3180
3300
1B00
1B00
1E00
0E00
0C00
7FC0
7FC0
0C00
0C00
0400
ENDCHAR
STARTCHAR 04B2
ENCODING 1202
SWIDTH 640 0
DWIDTH 16 0
BBX 13 19 2 -3
BITMAP
C030
E070
6060
30C0
39C0
1980
0F00
0600
0F00
0F00
1980
39C0
30C0
6060
E078
C038
0018
0018
0018
ENDCHAR
STARTCHAR 04B3
ENCODING 1203
SWIDTH 520 0
DWIDTH 13 0
BBX 10 14 2 -3
BITMAP
C180
E300
6600
3E00
1C00
1800
3C00
3600
6700
E3C0
C1C0
00C0
00C0
00C0
ENDCHAR
STARTCHAR 04B4
ENCODING 1204
SWIDTH 720 0
DWIDTH 18 0
BBX 17 19 1 -3
BITMAP
FFC600
FFC600
0C0600
0C0600
0C0600
0C0600
0C0600
0C0600
0C0600
0C0600
0C0600
0C0600
0C0600
0C0600
0FFF80
0FFF80
000180
000180
000180
ENDCHAR
STARTCHAR 04B5
ENCODING 1205
SWIDTH 600 0
DWIDTH 15 0
BBX 13 14 1 -3
BITMAP
FF30
FF30
1830
1830
1830
1830
1830
1830
1830
1FF8
1FF8
0008
0008
0008
ENDCHAR
STARTCHAR 04B6
ENCODING 1206
SWIDTH 600 0
DWIDTH 15 0
BBX 13 19 1 -3
BITMAP
C060
C060
C060
C060
C060
6060
70E0
3FE0
0FE0
0060
0060
0060
0060
0060
0078
0078
0018
0018
0018
ENDCHAR
STARTCHAR 04B7
ENCODING 1207
SWIDTH 480 0
DWIDTH 12 0
BBX 10 14 1 -3
BITMAP
C300
C300
C300
6300
7700
3F00
0300
0300
0300
03C0
03C0
00C0
00C0
00C0
ENDCHAR
STARTCHAR 04B8
ENCODING 1208
SWIDTH 520 0
DWIDTH 13 0
BBX 11 16 1 0
BITMAP
C060
C060
C060
C060
C060
C060
6660
7660
3FE0
0FE0
0660
0660
0060
0060
0060
0060
ENDCHAR
STARTCHAR 04B9
ENCODING 1209
SWIDTH 400 0
DWIDTH 10 0
BBX 8 11 1 0
BITMAP
C3
C3
CB
4B
7F
3F
0B
0B
0B
03
03
ENDCHAR
STARTCHAR 04BA
ENCODING 1210
SWIDTH 520 0
DWIDTH 13 0
BBX 11 16 1 0
BITMAP
C000
C000
C000
C000
C000
C000
FF00
FF80
C0C0
C060
C060
C060
C060
C060
C060
C060
ENDCHAR
STARTCHAR 04BB
ENCODING 1211
SWIDTH 480 0
DWIDTH 12 0
BBX 10 16 1 0
BITMAP
C000
C000
C000
C000
C000
DF00
FB80
E180
E0C0
C0C0
C0C0
C0C0
C0C0
C0C0
C0C0
C0C0
ENDCHAR
STARTCHAR 04BC
ENCODING 1212
SWIDTH 800 0
DWIDTH 20 0
BBX 19 16 1 0
BITMAP
007E00
00FF00
018380
030180
C300C0
C600C0
C60040
7FFFE0
3FFFE0
060000
060000
030000
030000
018380
00FF00
007E00
ENDCHAR
STARTCHAR 04BD
ENCODING 1213
SWIDTH 640 0
DWIDTH 16 0
BBX 14 11 1 0
BITMAP
41F0
C3B8
C61C
E60C
7FFC
3FFC
0400
0608
061C
03F8
01F0
ENDCHAR
STARTCHAR 04BE
ENCODING 1214
SWIDTH 800 0
DWIDTH 20 0
BBX 19 19 1 -3
BITMAP
007E00
00FF00
018380
030180
C300C0
C600C0
C60040
7FFFE0
3FFFE0
060000
060000
030000
030000
018380
00FF00
007E00
001800
001800
001800
ENDCHAR
STARTCHAR 04BF
ENCODING 1215
SWIDTH 640 0
DWIDTH 16 0
BBX 14 14 1 -3
BITMAP
41F0
C3B8
C61C
E60C
7FFC
3FFC
0400
0608
061C
03F8
01F0
00C0
00C0
00C0
ENDCHAR
STARTCHAR 04C0
ENCODING 1216
SWIDTH 280 0
DWIDTH 7 0
BBX 6 16 1 0
BITMAP
FC
FC
30
30
30
30
30
30
30
30
30
30
30
30
FC
FC
ENDCHAR
STARTCHAR 04C1
ENCODING 1217
SWIDTH 880 0
DWIDTH 22 0
BBX 19 21 2 0
BITMAP
021800
031000
01F000
000000
000000
E0C1C0
70C3C0
18C300
18C600
18C600
08C600
0CC600
0FDC00
0FFC00
0CC600
18C700
38C300
30C180
60C1C0
E0C0C0
C0C060
ENDCHAR
STARTCHAR 04C2
ENCODING 1218
SWIDTH 680 0
DWIDTH 17 0
BBX 16 16 1 0
BITMAP
0C20
0660
03C0
0000
0000
718C
399C
1998
1990
1DB0
1FF0
1BD8
319C
718C
6186
C183
ENDCHAR
STARTCHAR 04C3
ENCODING 1219
SWIDTH 480 0
DWIDTH 12 0
BBX 12 21 -1 -5
BITMAP
3070
30F0
30C0
3180
3180
3180
33C0
3FC0
3E60
3060
3030
3030
3030
3030
3030
3030
0060
C060
E0C0
7F80
1F00
ENDCHAR
STARTCHAR 04C4
ENCODING 1220
SWIDTH 360 0
DWIDTH 9 0
BBX 9 16 0 -5
BITMAP
6380
6700
6600
6600
6C00
7E00
7E00
6300
6300
6100
6180
0100
8300
C700
FE00
7C00
ENDCHAR
STARTCHAR 04C5
ENCODING 1221
SWIDTH 520 0
DWIDTH 13 0
BBX 12 21 1 -5
BITMAP
3FE0
3FE0
3060
3060
3060
3060
3060
3060
3060
3060
3060
3060
3060
6060
E060
C060
0030
0020
0020
0040
0040
ENDCHAR
STARTCHAR 04C6
ENCODING 1222
SWIDTH 480 0
DWIDTH 12 0
BBX 10 16 1 -5
BITMAP
3FC0
3FC0
30C0
30C0
30C0
30C0
30C0
30C0
60C0
E0C0
C0C0
0040
0040
00C0
0080
0080
ENDCHAR
STARTCHAR 04C7
ENCODING 1223
SWIDTH 480 0
DWIDTH 12 0
BBX 10 21 1 -5
BITMAP
C040
C040
C040
C040
C040
C040
C040
FFC0
FFC0
C040
C040
C040
C040
C040
C040
C040
0040
0040
00C0
03C0
0780
ENDCHAR
STARTCHAR 04C8
ENCODING 1224
SWIDTH 400 0
DWIDTH 10 0
BBX 9 16 1 -5
BITMAP
C180
C180
C180
C180
FF80
FF80
C180
C180
C180
C180
C180
0180
0180
0180
0F00
1E00
ENDCHAR
STARTCHAR 04C9
ENCODING 1225
SWIDTH 480 0
DWIDTH 12 0
BBX 11 20 1 -5
BITMAP
C040
C040
C040
C040
C040
C040
C040
FFC0
FFC0
C040
C040
C040
C040
C040
C040
C040
0060
0060
0040
0040
ENDCHAR
STARTCHAR 04CA
ENCODING 1226
SWIDTH 400 0
DWIDTH 10 0
BBX 9 15 1 -5
BITMAP
C180
C180
C180
C180
FF80
FF80
C180
C180
C180
C180
C180
0080
0180
0100
0100
ENDCHAR
STARTCHAR 04CB
ENCODING 1227
SWIDTH 600 0
DWIDTH 15 0
BBX 11 19 1 -3
BITMAP
C060
C060
C060
C060
C060
6060
70E0
3FE0
0FE0
0060
0060
0060
0060
0060
00E0
00E0
0080
0080
0080
ENDCHAR
STARTCHAR 04CC
ENCODING 1228
SWIDTH 400 0
DWIDTH 10 0
BBX 8 14 1 -3
BITMAP
C3
C3
C3
63
77
3F
03
03
03
0F
0F
0C
0C
0C
ENDCHAR
STARTCHAR 04CD
ENCODING 1229
SWIDTH 640 0
DWIDTH 16 0
BBX 14 21 1 -5
BITMAP
C00C
E01C
E01C
E01C
F03C
F03C
D83C
D86C
D86C
CCCC
CCCC
CCCC
C78C
C78C
C38C
C30C
0004
0004
0008
0008
0008
ENDCHAR
STARTCHAR 04CE
ENCODING 1230
SWIDTH 480 0
DWIDTH 12 0
BBX 11 15 1 -5
BITMAP
C0C0
E0C0
E1C0
F1C0
F1C0
F340
DB40
DB40
DE40
CE40
CC40
0060
0040
0040
0080
ENDCHAR
STARTCHAR 04CF
ENCODING 1231
SWIDTH 160 0
DWIDTH 4 0
BBX 2 16 1 0
BITMAP
C0
C0
C0
C0
C0
C0
C0
C0
C0
C0
C0
C0
C0
C0
C0
C0
ENDCHAR
STARTCHAR 04D0
ENCODING 1232
SWIDTH 640 0
DWIDTH 16 0
BBX 14 21 1 0
BITMAP
0840
0CC0
0780
0000
0000
0300
0780
0780
0780
0CC0
0CC0
0CC0
1860
1FE0
1FF0
3030
3030
6018
6018
6018
C00C
ENDCHAR
STARTCHAR 04D1
ENCODING 1233
SWIDTH 400 0
DWIDTH 10 0
BBX 8 16 1 0
BITMAP
42
66
3C
00
00
3E
3F
03
03
3F
7F
E3
C3
C3
7F
3F
ENDCHAR
STARTCHAR 04D2
ENCODING 1234
SWIDTH 640 0
DWIDTH 16 0
BBX 14 20 1 1
BITMAP
0CC0
0CC0
0000
0000
0300
0780
0780
0780
0CC0
0CC0
0CC0
1860
1FE0
1FF0
3030
3030
6018
6018
6018
C00C
ENDCHAR
STARTCHAR 04D3
ENCODING 1235
SWIDTH 400 0
DWIDTH 10 0
BBX 8 15 1 1
BITMAP
66
66
00
00
3E
3F
03
03
3F
7F
E3
C3
C3
7F
3F
ENDCHAR
STARTCHAR 04D4
ENCODING 1236
SWIDTH 720 0
DWIDTH 18 0
BBX 16 16 1 0
BITMAP
03FF
07FF
06C0
06C0
0CC0
0CC0
0CC0
1FFE
1FFE
18C0
30C0
30C0
60C0
60C0
60FF
C0FF
ENDCHAR
STARTCHAR 04D5
ENCODING 1237
SWIDTH 720 0
DWIDTH 18 0
BBX 16 11 1 0
BITMAP
3EFC
3FCE
0386
0303
3FFF
7FFF
E300
C300
C386
7FFC
3C78
ENDCHAR
STARTCHAR 04D6
ENCODING 1238
SWIDTH 480 0
DWIDTH 12 0
BBX 10 21 1 0
BITMAP
2180
3100
1F00
0000
0000
FFC0
FFC0
C000
C000
C000
C000
C000
FF80
FF80
C000
C000
C000
C000
C000
FFC0
FFC0
ENDCHAR
STARTCHAR 04D7
ENCODING 1239
SWIDTH 480 0
DWIDTH 12 0
BBX 10 16 1 0
BITMAP
2100
3300
1E00
0000
0000
3F00
7B80
6180
C0C0
FFC0
FFC0
C000
6000
6180
3F80
1E00
ENDCHAR
STARTCHAR 04D8
ENCODING 1240
SWIDTH 600 0
DWIDTH 15 0
BBX 14 16 1 0
BITMAP
0FC0
1FE0
3030
0038
0018
0018
000C
FFFC
FFFC
C00C
4018
6018
6038
3070
1FE0
0FC0
ENDCHAR
STARTCHAR 04D9
ENCODING 1241
SWIDTH 480 0
DWIDTH 12 0
BBX 10 11 1 0
BITMAP
3F00
7B80
6180
00C0
00C0
FFC0
FFC0
40C0
6180
3F80
1E00
ENDCHAR
STARTCHAR 04DA
ENCODING 1242
SWIDTH 600 0
DWIDTH 15 0
BBX 14 20 1 1
BITMAP
0CC0
0CC0
0000
0000
0FC0
1FE0
3030
0038
0018
0018
000C
FFFC
FFFC
C00C
4018
6018
6038
3070
1FE0
0FC0
ENDCHAR
STARTCHAR 04DB
ENCODING 1243
SWIDTH 480 0
DWIDTH 12 0
BBX 10 16 1 0
BITMAP
2000
3380
3300
0000
0000
3F00
7B80
6180
00C0
00C0
FFC0
FFC0
40C0
6180
3F80
1E00
ENDCHAR
STARTCHAR 04DC
ENCODING 1244
SWIDTH 880 0
DWIDTH 22 0
BBX 19 20 2 1
BITMAP
03B800
033800
000000
000000
E0C1C0
70C3C0
18C300
18C600
18C600
08C600
0CC600
0FDC00
0FFC00
0CC600
18C700
38C300
30C180
60C1C0
E0C0C0
C0C060
ENDCHAR
STARTCHAR 04DD
ENCODING 1245
SWIDTH 680 0
DWIDTH 17 0
BBX 16 16 1 0
BITMAP
0420
0E60
0660
0000
0000
718C
399C
1998
1990
1DB0
1FF0
1BD8
319C
718C
6186
C183
ENDCHAR
STARTCHAR 04DE
ENCODING 1246
SWIDTH 520 0
DWIDTH 13 0
BBX 11 20 1 1
BITMAP
3300
3300
0000
0000
3F00
7F80
E0C0
C0C0
00C0
00C0
0F80
0F00
03C0
00C0
0060
8060
C0C0
C0C0
7F80
3F00
ENDCHAR
STARTCHAR 04DF
ENCODING 1247
SWIDTH 360 0
DWIDTH 9 0
BBX 8 16 1 0
BITMAP
40
E6
66
00
00
3C
7E
66
06
1C
1E
06
03
C6
7E
3C
ENDCHAR
STARTCHAR 04E0
ENCODING 1248
SWIDTH 520 0
DWIDTH 13 0
BBX 11 16 1 0
BITMAP
FFE0
FFE0
00E0
00C0
0180
0380
0380
07C0
00E0
0060
0060
0060
C060
60E0
3FC0
1F80
ENDCHAR
STARTCHAR 04E1
ENCODING 1249
SWIDTH 400 0
DWIDTH 10 0
BBX 9 16 1 -5
BITMAP
FF80
FF80
0300
0600
0E00
0C00
1E00
0700
0300
0180
0180
0180
0300
4300
FE00
3C00
ENDCHAR
STARTCHAR 04E2
ENCODING 1250
SWIDTH 480 0
DWIDTH 12 0
BBX 10 20 1 0
BITMAP
3F80
3F80
0000
0000
C040
C040
C040
C0C0
C1C0
C3C0
C740
CE40
DC40
F840
F040
E040
C040
C040
C040
C040
ENDCHAR
STARTCHAR 04E3
ENCODING 1251
SWIDTH 400 0
DWIDTH 10 0
BBX 9 15 1 0
BITMAP
7F00
7F00
0000
0000
C180
C180
C380
C780
CF80
DD80
F980
F180
E180
C180
C180
ENDCHAR
STARTCHAR 04E4
ENCODING 1252
SWIDTH 480 0
DWIDTH 12 0
BBX 10 21 1 0
BITMAP
1000
3B80
3380
0000
0000
C040
C040
C040
C0C0
C1C0
C3C0
C740
CE40
DC40
F840
F040
E040
C040
C040
C040
C040
ENDCHAR
STARTCHAR 04E5
ENCODING 1253
SWIDTH 400 0
DWIDTH 10 0
BBX 9 16 1 0
BITMAP
2200
7700
6300
0000
0000
C180
C180
C380
C780
CF80
DD80
F980
F180
E180
C180
C180
ENDCHAR
STARTCHAR 04E6
ENCODING 1254
SWIDTH 600 0
DWIDTH 15 0
BBX 14 20 1 1
BITMAP
0CC0
0CC0
0000
0000
0FC0
1FE0
3030
6038
6018
C018
C00C
C00C
C00C
C00C
4018
6018
6038
3070
1FE0
0FC0
ENDCHAR
STARTCHAR 04E7
ENCODING 1255
SWIDTH 480 0
DWIDTH 12 0
BBX 10 16 1 0
BITMAP
2000
3380
3300
0000
0000
3F00
7B80
6180
C0C0
C0C0
C0C0
C0C0
40C0
6180
3F80
1E00
ENDCHAR
STARTCHAR 04E8
ENCODING 1256
SWIDTH 600 0
DWIDTH 15 0
BBX 14 16 1 0
BITMAP
0FC0
1FE0
3030
6038
6018
C018
C00C
FFFC
FFFC
C00C
4018
6018
6038
3070
1FE0
0FC0
ENDCHAR
STARTCHAR 04E9
ENCODING 1257
SWIDTH 480 0
DWIDTH 12 0
BBX 10 11 1 0
BITMAP
3F00
7B80
6180
C0C0
FFC0
FFC0
C0C0
60C0
6180
3F80
1E00
ENDCHAR
STARTCHAR 04EA
ENCODING 1258
SWIDTH 600 0
DWIDTH 15 0
BBX 14 20 1 1
BITMAP
0CC0
0CC0
0000
0000
0FC0
1FE0
3030
6038
6018
C018
C00C
FFFC
FFFC
C00C
4018
6018
6038
3070
1FE0
0FC0
ENDCHAR
STARTCHAR 04EB
ENCODING 1259
SWIDTH 480 0
DWIDTH 12 0
BBX 10 16 1 0
BITMAP
2000
3380
3300
0000
0000
3F00
7B80
6180
C0C0
FFC0
FFC0
C0C0
60C0
6180
3F80
1E00
ENDCHAR
STARTCHAR 04EC
ENCODING 1260
SWIDTH 560 0
DWIDTH 14 0
BBX 13 21 1 0
BITMAP
0880
1DC0
19C0
0000
0000
1F80
3FC0
60E0
C070
0030
0030
0010
0FF8
0FF8
0010
0030
0030
C060
60E0
3FC0
1F80
ENDCHAR
STARTCHAR 04ED
ENCODING 1261
SWIDTH 440 0
DWIDTH 11 0
BBX 9 16 1 0
BITMAP
2000
7300
3300
0000
0000
3E00
7700
C180
0180
1F80
1F80
0180
4180
E380
7F00
3E00
ENDCHAR
STARTCHAR 04EE
ENCODING 1262
SWIDTH 560 0
DWIDTH 14 0
BBX 11 20 2 0
BITMAP
1F80
1F80
0000
0000
6060
60C0
30C0
30C0
3180
1980
1B00
0B00
0F00
0E00
0600
0600
0C00
8C00
F800
F800
ENDCHAR
STARTCHAR 04EF
ENCODING 1263
SWIDTH 480 0
DWIDTH 12 0
BBX 10 20 1 -5
BITMAP
3F00
3F00
0000
0000
C0C0
60C0
6180
3180
3180
3300
1B00
1B00
1E00
0E00
0C00
0C00
0C00
1800
7800
7000
ENDCHAR
STARTCHAR 04F0
ENCODING 1264
SWIDTH 560 0
DWIDTH 14 0
BBX 11 20 2 1
BITMAP
1980
1980
0000
0000
6060
60C0
30C0
30C0
3180
1980
1B00
0B00
0F00
0E00
0600
0600
0C00
8C00
F800
F800
ENDCHAR
STARTCHAR 04F1
ENCODING 1265
SWIDTH 480 0
DWIDTH 12 0
BBX 10 21 1 -5
BITMAP
1100
3B80
3380
0000
0000
C0C0
60C0
6180
3180
3180
3300
1B00
1B00
1E00
0E00
0C00
0C00
0C00
1800
7800
7000
ENDCHAR
STARTCHAR 04F2
ENCODING 1266
SWIDTH 560 0
DWIDTH 14 0
BBX 11 21 2 0
BITMAP
06C0
0C80
1900
1000
0000
6060
60C0
30C0
30C0
3180
1980
1B00
0B00
0F00
0E00
0600
0600
0C00
8C00
F800
F800
ENDCHAR
STARTCHAR 04F3
ENCODING 1267
SWIDTH 480 0
DWIDTH 12 0
BBX 10 21 1 -5
BITMAP
0CC0
0980
1100
0200
0000
C0C0
60C0
6180
3180
3180
3300
1B00
1B00
1E00
0E00
0C00
0C00
0C00
1800
7800
7000
ENDCHAR
STARTCHAR 04F4
ENCODING 1268
SWIDTH 520 0
DWIDTH 13 0
BBX 11 21 1 0
BITMAP
1000
3B80
3980
0000
0000
C060
C060
C060
C060
C060
C060
6060
7060
3FE0
0FE0
0060
0060
0060
0060
0060
0060
ENDCHAR
STARTCHAR 04F5
ENCODING 1269
SWIDTH 400 0
DWIDTH 10 0
BBX 8 16 1 0
BITMAP
02
67
66
00
00
C3
C3
C3
63
77
3F
03
03
03
03
03
ENDCHAR
STARTCHAR 04F6
ENCODING 1270
SWIDTH 480 0
DWIDTH 12 0
BBX 10 19 1 -3
BITMAP
FFC0
FFC0
C000
C000
C000
C000
C000
C000
C000
C000
C000
C000
C000
C000
F000
F000
3000
3000
3000
ENDCHAR
STARTCHAR 04F7
ENCODING 1271
SWIDTH 360 0
DWIDTH 9 0
BBX 8 14 1 -3
BITMAP
FF
FF
C0
C0
C0
C0
C0
C0
C0
F0
F0
30
30
30
ENDCHAR
STARTCHAR 04F8
ENCODING 1272
SWIDTH 600 0
DWIDTH 15 0
BBX 14 20 1 1
BITMAP
0CC0
0CC0
0000
0000
C00C
C00C
C00C
C00C
C00C
C00C
FC0C
FF8C
C1CC
C0CC
C04C
C04C
C0CC
C0CC
FF8C
FF0C
ENDCHAR
STARTCHAR 04F9
ENCODING 1273
SWIDTH 480 0
DWIDTH 12 0
BBX 11 16 1 0
BITMAP
1100
3B80
3380
0000
0000
C060
C060
C060
C060
FC60
FE60
C660
C360
C660
FE60
FC60
ENDCHAR
STARTCHAR 04FA
ENCODING 1274
SWIDTH 560 0
DWIDTH 14 0
BBX 12 21 1 -5
BITMAP
3FF0
3FF0
3000
3000
3000
3000
3000
FC00
FC00
3000
3000
3000
3000
3000
3C00
3C00
0C00
0C00
0C00
7800
F000
ENDCHAR
STARTCHAR 04FB
ENCODING 1275
SWIDTH 440 0
DWIDTH 11 0
BBX 9 16 1 -5
BITMAP
3F80
3F80
3000
3000
FC00
FC00
3000
3000
3000
3C00
3C00
0C00
0C00
0C00
7800
F000
ENDCHAR
STARTCHAR 04FC
ENCODING 1276
SWIDTH 600 0
DWIDTH 15 0
BBX 13 21 2 -5
BITMAP
C030
E070
6060
30C0
39C0
1980
0F00
0600
0F00
0F00
1980
39C0
30C0
6060
E070
C030
0018
0018
0018
0078
0060
ENDCHAR
STARTCHAR 04FD
ENCODING 1277
SWIDTH 480 0
DWIDTH 12 0
BBX 10 16 2 -5
BITMAP
C180
E300
6600
3E00
1C00
1800
3C00
3600
6700
E300
C180
01C0
00C0
00C0
0380
0300
ENDCHAR
STARTCHAR 04FE
ENCODING 1278
SWIDTH 600 0
DWIDTH 15 0
BBX 12 16 2 0
BITMAP
C030
E070
6060
30C0
39C0
1980
0F00
FFF0
FFF0
0F00
1980
39C0
30C0
6060
E070
C030
ENDCHAR
STARTCHAR 04FF
ENCODING 1279
SWIDTH 480 0
DWIDTH 12 0
BBX 10 11 1 0
BITMAP
60C0
7180
3300
1F00
FFC0
FFC0
1E00
1B00
3380
7180
60C0
ENDCHAR
STARTCHAR 0500
ENCODING 1280
SWIDTH 480 0
DWIDTH 12 0
BBX 11 16 1 0
BITMAP
0060
0060
0060
0060
0060
1FE0
3BE0
60E0
E060
C060
C060
C060
6060
60E0
3FE0
1F60
ENDCHAR
STARTCHAR 0501
ENCODING 1281
SWIDTH 480 0
DWIDTH 12 0
BBX 10 16 1 0
BITMAP
00C0
00C0
00C0
00C0
00C0
3FC0
7BC0
61C0
C0C0
C0C0
C0C0
C0C0
40C0
61C0
3FC0
1FC0
ENDCHAR
STARTCHAR 0502
ENCODING 1282
SWIDTH 760 0
DWIDTH 19 0
BBX 17 16 1 0
BITMAP
006000
006000
006000
006000
006000
1FE000
3BE000
60E000
C06F80
C06F80
C06200
C06200
606200
60E600
3FFE00
1F3C00
ENDCHAR
STARTCHAR 0503
ENCODING 1283
SWIDTH 720 0
DWIDTH 18 0
BBX 17 16 1 0
BITMAP
00C000
00C000
00C000
00C000
00C000
3FC000
7BC000
61C000
C0DF80
C0DF80
C0C600
C0C600
40C600
61C600
3FFC00
1E3C00
ENDCHAR
STARTCHAR 0504
ENCODING 1284
SWIDTH 760 0
DWIDTH 19 0
BBX 17 16 1 0
BITMAP
3F0000
7F8000
E0C000
C0C000
00C000
00C000
0F8000
0F0000
03CF80
00CF80
006200
006200
006200
006600
007E00
003C00
ENDCHAR
STARTCHAR 0505
ENCODING 1285
SWIDTH 600 0
DWIDTH 15 0
BBX 14 11 1 0
BITMAP
7C00
EC00
C400
0CFC
1CFC
1C30
0630
0630
0630
03E0
03E0
ENDCHAR
STARTCHAR 0506
ENCODING 1286
SWIDTH 560 0
DWIDTH 14 0
BBX 12 19 1 -3
BITMAP
3F00
7F80
E0C0
C0C0
00C0
00C0
0F80
0F00
03C0
00C0
0060
0060
0060
0060
0070
0070
0010
0010
0010
ENDCHAR
STARTCHAR 0507
ENCODING 1287
SWIDTH 440 0
DWIDTH 11 0
BBX 9 14 1 -3
BITMAP
7C00
EC00
C400
0C00
1C00
1C00
0600
0600
0600
0780
0780
0180
0180
0180
ENDCHAR
STARTCHAR 0508
ENCODING 1288
SWIDTH 800 0
DWIDTH 20 0
BBX 18 16 1 0
BITMAP
3FE000
3FE000
306000
306000
306000
306000
306000
306000
306FC0
306FC0
306300
306300
306300
602300
E03F00
C01E00
ENDCHAR
STARTCHAR 0509
ENCODING 1289
SWIDTH 720 0
DWIDTH 18 0
BBX 17 11 1 0
BITMAP
3FC000
3FC000
30C000
30DF80
30DF80
30C600
30C600
30C600
60C600
E07C00
C03C00
ENDCHAR
STARTCHAR 050A
ENCODING 1290
SWIDTH 760 0
DWIDTH 19 0
BBX 17 16 1 0
BITMAP
C04000
C04000
C04000
C04000
C04000
C04000
C04000
FFC000
FFCF80
C04F80
C04200
C04200
C04600
C06600
C07E00
C03C00
ENDCHAR
STARTCHAR 050B
ENCODING 1291
SWIDTH 680 0
DWIDTH 17 0
BBX 15 11 1 0
BITMAP
C180
C180
C180
C1BE
FFBE
FF8C
C18C
C18C
C198
C0F8
C0F0
ENDCHAR
STARTCHAR 050C
ENCODING 1292
SWIDTH 640 0
DWIDTH 16 0
BBX 14 16 1 0
BITMAP
0FC0
1FE0
3030
6030
6000
C000
C000
C07C
C07C
C018
4018
6018
6038
3070
1FE0
0FC0
ENDCHAR
STARTCHAR 050D
ENCODING 1293
SWIDTH 520 0
DWIDTH 13 0
BBX 11 11 1 0
BITMAP
3F00
7B80
6180
C000
C000
C3E0
C3E0
4080
6180
3F80
1E00
ENDCHAR
STARTCHAR 050E
ENCODING 1294
SWIDTH 600 0
DWIDTH 15 0
BBX 13 16 1 0
BITMAP
FFC0
FFC0
0C00
0C00
0C00
0C00
0C00
0C00
0DF8
0DF8
0C60
0C60
0C60
0660
07E0
03C0
ENDCHAR
STARTCHAR 050F
ENCODING 1295
SWIDTH 520 0
DWIDTH 13 0
BBX 12 11 1 0
BITMAP
FF00
FF00
1800
1BF0
1BF0
18C0
18C0
18C0
18C0
0F80
0F00
ENDCHAR
STARTCHAR 0510
ENCODING 1296
SWIDTH 480 0
DWIDTH 12 0
BBX 11 16 1 0
BITMAP
3F00
7F80
E0C0
C0C0
C000
E000
7C00
3C00
7000
C000
C000
8060
C0C0
C0C0
7F80
3F00
ENDCHAR
STARTCHAR 0511
ENCODING 1297
SWIDTH 360 0
DWIDTH 9 0
BBX 7 11 1 0
BITMAP
3C
7E
66
60
78
78
C0
C0
C6
7E
3C
ENDCHAR
STARTCHAR 0512
ENCODING 1298
SWIDTH 520 0
DWIDTH 13 0
BBX 11 21 1 -5
BITMAP
3FE0
3FE0
3060
3060
3060
3060
3060
3060
3060
3060
3060
3060
3060
6060
E060
C060
0060
0060
0060
03E0
03C0
ENDCHAR
STARTCHAR 0513
ENCODING 1299
SWIDTH 480 0
DWIDTH 12 0
BBX 10 16 1 -5
BITMAP
3FC0
3FC0
30C0
30C0
30C0
30C0
30C0
30C0
60C0
E0C0
C0C0
00C0
00C0
00C0
0780
0780
ENDCHAR
STARTCHAR 0514
ENCODING 1300
SWIDTH 840 0
DWIDTH 21 0
BBX 19 16 1 0
BITMAP
3F8060
3FC0E0
30C0C0
306180
307380
303300
301E00
300C00
301E00
301E00
303300
307380
306180
60C0C0
E1C0E0
C18060
ENDCHAR
STARTCHAR 0515
ENCODING 1301
SWIDTH 680 0
DWIDTH 17 0
BBX 15 11 1 0
BITMAP
3F06
3F8C
31DC
30D8
3070
3070
3070
30D8
619C
E38C
C306
ENDCHAR
STARTCHAR 0516
ENCODING 1302
SWIDTH 640 0
DWIDTH 16 0
BBX 14 16 1 0
BITMAP
FE0C
FF98
C1B0
C0F0
C0E0
C0C0
C1C0
FF80
FF80
C1C0
C0C0
C060
C030
C038
C018
C00C
ENDCHAR
STARTCHAR 0517
ENCODING 1303
SWIDTH 640 0
DWIDTH 16 0
BBX 14 16 1 -6
BITMAP
FF1C
FB98
E1B0
C0F0
C0E0
C0C0
C0E0
C0F0
E1B8
FF98
DE0C
C000
C000
C000
C000
4000
ENDCHAR
STARTCHAR 0518
ENCODING 1304
SWIDTH 840 0
DWIDTH 21 0
BBX 20 16 1 0
BITMAP
0FFFF0
3FFFF0
306000
206000
206000
306000
3FE000
1FFFC0
067FC0
0C6000
1C6000
186000
306000
306000
607FF0
E07FF0
ENDCHAR
STARTCHAR 0519
ENCODING 1305
SWIDTH 720 0
DWIDTH 18 0
BBX 16 11 1 0
BITMAP
1F7C
3FEE
6386
6303
3FFF
1FFF
1B00
3180
3186
60FE
E07C
ENDCHAR
STARTCHAR 051A
ENCODING 1306
SWIDTH 600 0
DWIDTH 15 0
BBX 16 18 1 -2
BITMAP
0FC0
1FE0
3030
6038
6018
C018
C00C
C00C
C00C
C00C
4318
6FD8
64F8
3070
1FE0
0FF2
003F
000C
ENDCHAR
STARTCHAR 051B
ENCODING 1307
SWIDTH 480 0
DWIDTH 12 0
BBX 10 16 1 -6
BITMAP
3FC0
7BC0
61C0
C0C0
C0C0
C0C0
C0C0
40C0
61C0
3FC0
1FC0
00C0
00C0
00C0
00C0
00C0
ENDCHAR
STARTCHAR 051C
ENCODING 1308
SWIDTH 840 0
DWIDTH 21 0
BBX 19 16 1 0
BITMAP
C06060
60E060
60E060
60F040
60F0C0
31B0C0
3198C0
319980
111980
1B1980
1B0D80
1B0F00
0E0F00
0E0700
0E0700
0E0600
ENDCHAR
STARTCHAR 051D
ENCODING 1309
SWIDTH 640 0
DWIDTH 16 0
BBX 14 11 1 0
BITMAP
C30C
638C
6788
6798
6698
36D8
3CF0
3CF0
1C70
1C70
1860
ENDCHAR
STARTCHAR 051E
ENCODING 1310
SWIDTH 520 0
DWIDTH 13 0
BBX 11 16 1 0
BITMAP
CDC0
C7C0
C300
C780
C680
C600
CE00
FC00
FC00
CE00
C600
C300
C180
C180
C0C0
C060
ENDCHAR
STARTCHAR 051F
ENCODING 1311
SWIDTH 400 0
DWIDTH 10 0
BBX 9 11 1 0
BITMAP
DF00
DE00
CE00
CF00
DA00
FC00
EC00
C600
C700
C300
C180
ENDCHAR
STARTCHAR 0520
ENCODING 1312
SWIDTH 800 0
DWIDTH 20 0
BBX 19 21 1 -5
BITMAP
3FE000
3FE000
306000
306000
306000
307E00
306F00
306180
3061C0
3060C0
3060C0
306040
306060
606060
E06040
C060C0
0000C0
030180
018380
00FF00
007C00
ENDCHAR
STARTCHAR 0521
ENCODING 1313
SWIDTH 680 0
DWIDTH 17 0
BBX 15 16 1 -5
BITMAP
3FC0
3FC0
30C0
30C0
30F0
30F8
30CC
30C6
60C6
E0C2
C0C2
0006
0106
018E
01FC
00F8
ENDCHAR
STARTCHAR 0522
ENCODING 1314
SWIDTH 800 0
DWIDTH 20 0
BBX 18 21 1 -5
BITMAP
C04000
C04000
C04000
C04000
C04000
C07C00
C04E00
FFC300
FFC180
C04180
C040C0
C040C0
C040C0
C040C0
C040C0
C04080
000180
030380
038700
01FE00
00FC00
ENDCHAR
STARTCHAR 0523
ENCODING 1315
SWIDTH 640 0
DWIDTH 16 0
BBX 14 16 1 -5
BITMAP
C180
C180
C180
C180
FFC0
FFF0
C1B8
C18C
C18C
C18C
C18C
000C
020C
0718
03F8
01F0
ENDCHAR
STARTCHAR 0524
ENCODING 1316
SWIDTH 560 0
DWIDTH 14 0
BBX 12 19 1 -3
BITMAP
FFC0
FFC0
C040
C040
C040
C040
C040
C040
C040
C040
C040
C040
C040
C040
C070
C070
0030
0030
0030
ENDCHAR
STARTCHAR 0525
ENCODING 1317
SWIDTH 480 0
DWIDTH 12 0
BBX 11 14 1 -3
BITMAP
FF80
FF80
C180
C180
C180
C180
C180
C180
C180
C1E0
C1E0
0060
0060
0060
ENDCHAR
STARTCHAR 0526
ENCODING 1318
SWIDTH 600 0
DWIDTH 15 0
BBX 13 19 1 -3
BITMAP
C000
C000
C000
C000
C000
C000
FF00
FF80
C0C0
C060
C060
C060
C060
C060
C078
C078
0018
0018
0018
ENDCHAR
STARTCHAR 0527
ENCODING 1319
SWIDTH 560 0
DWIDTH 14 0
BBX 12 19 1 -3
BITMAP
C000
C000
C000
C000
C000
DF00
FB80
E180
E0C0
C0C0
C0C0
C0C0
C0C0
C0C0
C0F0
C0F0
0030
0030
0030
ENDCHAR
STARTCHAR 0528
ENCODING 1320
SWIDTH 480 0
DWIDTH 12 0
BBX 13 21 -2 -5
BITMAP
1808
1808
1808
1808
1808
1808
1808
1FF8
1FF8
1808
1808
1808
1808
1808
1808
1808
1800
1800
1800
F800
F000
ENDCHAR
STARTCHAR 0529
ENCODING 1321
SWIDTH 400 0
DWIDTH 10 0
BBX 12 16 -2 -5
BITMAP
1830
1830
1830
1830
1FF0
1FF0
1830
1830
1830
1830
1830
1800
1800
1800
F800
F000
ENDCHAR
STARTCHAR 052A
ENCODING 1322
SWIDTH 1160 0
DWIDTH 29 0
BBX 27 19 1 -3
BITMAP
0FF8C1C0
0FF8C3C0
0C18C700
0C18C600
0C18C600
0C18C600
0C18CC00
0C18FC00
0C1FFC00
0C18CE00
0C18C600
0C18C300
0818C380
1818C180
FFFEC0C0
FFFEC0E0
C0060000
C0060000
C0060000
ENDCHAR
STARTCHAR 052B
ENCODING 1323
SWIDTH 1000 0
DWIDTH 25 0
BBX 22 14 1 -3
BITMAP
0FE238
0FE230
0C6260
0C6260
0C6260
0C7FE0
0C7FF0
086230
186218
FFF20C
FFF20C
C01000
C01000
C01000
ENDCHAR
STARTCHAR 052C
ENCODING 1324
SWIDTH 680 0
DWIDTH 17 0
BBX 15 19 1 -3
BITMAP
3038
3038
3078
30F8
30D8
3198
1B18
1F18
0FF8
0FF8
1C18
1818
3018
7018
FFFE
FFFE
C006
C006
C006
ENDCHAR
STARTCHAR 052D
ENCODING 1325
SWIDTH 560 0
DWIDTH 14 0
BBX 12 14 1 -3
BITMAP
18E0
19E0
1BE0
1B60
1FE0
0FE0
0C60
1860
3060
FFF0
FFF0
C010
C010
C010
ENDCHAR
STARTCHAR 052E
ENCODING 1326
SWIDTH 600 0
DWIDTH 15 0
BBX 13 19 1 -3
BITMAP
3FE0
3FE0
3060
3060
3060
3060
3060
3060
3060
3060
3060
3060
3060
6060
E078
C078
0018
0018
0018
ENDCHAR
STARTCHAR 052F
ENCODING 1327
SWIDTH 560 0
DWIDTH 14 0
BBX 12 14 1 -3
BITMAP
3FC0
3FC0
30C0
30C0
30C0
30C0
30C0
30C0
60C0
E0F0
C0F0
0030
0030
0030
ENDCHAR
STARTCHAR 0531
ENCODING 1329
SWIDTH 720 0
DWIDTH 18 0
BBX 17 16 1 0
BITMAP
C01000
C01000
C01000
C01000
C01000
C01000
C01000
C01000
C01000
C01E00
C01F00
C03300
603180
706180
3FE180
1F8180
ENDCHAR
STARTCHAR 0532
ENCODING 1330
SWIDTH 400 0
DWIDTH 10 0
BBX 9 16 1 0
BITMAP
3E00
7F00
6300
C180
C000
C000
C000
FF80
FF80
C000
C000
C000
C000
C000
C000
C000
ENDCHAR
STARTCHAR 0533
ENCODING 1331
SWIDTH 640 0
DWIDTH 16 0
BBX 14 16 1 0
BITMAP
3FC0
7FC0
60C0
C0C0
C0C0
E0C0
7FFC
3FFC
00C0
00C0
00C0
00C0
00C0
00C0
00C0
00C0
ENDCHAR
STARTCHAR 0534
ENCODING 1332
SWIDTH 600 0
DWIDTH 15 0
BBX 13 16 1 0
BITMAP
3E00
7F00
6300
C180
0180
01E0
01F0
0198
0198
0180
0180
0180
0180
0180
0180
0180
ENDCHAR
STARTCHAR 0535
ENCODING 1333
SWIDTH 560 0
DWIDTH 14 0
BBX 12 16 1 0
BITMAP
C000
C000
C000
C000
C000
FFF0
FFF0
C000
C000
C000
C010
C030
6030
7060
3FE0
1F80
ENDCHAR
STARTCHAR 0536
ENCODING 1334
SWIDTH 560 0
DWIDTH 14 0
BBX 12 16 1 0
BITMAP
0F80
3FC0
3060
2060
6060
2060
3060
3DE0
1FE0
0060
00C0
C0C0
C180
C300
FFF0
FFF0
ENDCHAR
STARTCHAR 0537
ENCODING 1335
SWIDTH 480 0
DWIDTH 12 0
BBX 10 16 1 0
BITMAP
C000
C000
C000
C000
C000
FFC0
FFC0
C000
C000
C000
C000
C000
C000
C000
FFC0
FFC0
ENDCHAR
STARTCHAR 0538
ENCODING 1336
SWIDTH 400 0
DWIDTH 10 0
BBX 9 16 1 0
BITMAP
3E00
7F00
6300
C180
C000
C000
C000
C000
C000
C000
C000
C000
C000
C000
FF80
FF80
ENDCHAR
STARTCHAR 0539
ENCODING 1337
SWIDTH 480 0
DWIDTH 12 0
BBX 11 16 1 0
BITMAP
3E00
7F00
6300
C180
C180
CFE0
DFE0
D980
DF80
CF00
C000
C000
C000
C000
C000
C000
ENDCHAR
STARTCHAR 053A
ENCODING 1338
SWIDTH 520 0
DWIDTH 13 0
BBX 12 16 1 0
BITMAP
00C0
00C0
00C0
00C0
00C0
00C0
00C0
1FF0
7FF0
60C0
C0C0
C0C0
C0C0
60C0
7FC0
1FC0
ENDCHAR
STARTCHAR 053B
ENCODING 1339
SWIDTH 400 0
DWIDTH 10 0
BBX 9 16 1 0
BITMAP
C000
C000
C000
C000
C000
FC00
EE00
C600
C600
C380
C380
C000
C000
C000
C000
C000
ENDCHAR
STARTCHAR 053C
ENCODING 1340
SWIDTH 480 0
DWIDTH 12 0
BBX 10 16 1 0
BITMAP
C000
C000
C000
C000
C000
C000
C000
C000
C000
C000
C000
C000
C000
C000
FFC0
FFC0
ENDCHAR
STARTCHAR 053D
ENCODING 1341
SWIDTH 640 0
DWIDTH 16 0
BBX 14 16 1 0
BITMAP
C000
C000
C000
C000
C000
FE0C
F70C
E30C
C10C
C18C
C18C
C18C
C1F8
C0F0
C000
C000
ENDCHAR
STARTCHAR 053E
ENCODING 1342
SWIDTH 800 0
DWIDTH 20 0
BBX 19 16 1 0
BITMAP
C00000
C00000
FFFFC0
7FFFE0
0E0E60
1C0600
180300
180300
180300
180300
180300
180300
1C0600
0E0E00
07FC00
03F000
ENDCHAR
STARTCHAR 053F
ENCODING 1343
SWIDTH 520 0
DWIDTH 13 0
BBX 11 16 1 0
BITMAP
C000
C000
C060
C060
C060
C060
6060
7060
3FE0
0FE0
0060
0060
0060
0060
0060
0060
ENDCHAR
STARTCHAR 0540
ENCODING 1344
SWIDTH 520 0
DWIDTH 13 0
BBX 10 19 2 -3
BITMAP
0C00
1800
1800
3000
7000
1C00
0F00
0600
0E00
0C00
1800
3800
3000
6000
FFC0
FFC0
00C0
00C0
0080
ENDCHAR
STARTCHAR 0541
ENCODING 1345
SWIDTH 520 0
DWIDTH 13 0
BBX 11 16 1 0
BITMAP
3F00
7F80
61C0
C0C0
C0C0
C0C0
61C0
7BC0
3FC0
0180
0180
0380
7B00
FE60
FFE0
7FC0
ENDCHAR
STARTCHAR 0542
ENCODING 1346
SWIDTH 600 0
DWIDTH 15 0
BBX 13 16 1 0
BITMAP
3E00
7F00
6300
C180
0180
0180
0180
0180
0180
0180
0180
0180
0180
0180
01F8
01F8
ENDCHAR
STARTCHAR 0543
ENCODING 1347
SWIDTH 520 0
DWIDTH 13 0
BBX 11 16 1 0
BITMAP
8FC0
DFE0
7020
7000
7800
CC00
C600
C300
C180
C0C0
C060
C060
C060
C060
FFE0
FFE0
ENDCHAR
STARTCHAR 0544
ENCODING 1348
SWIDTH 720 0
DWIDTH 18 0
BBX 17 16 1 0
BITMAP
C01E00
C01F00
C01300
C01180
C01180
C01180
C01000
C01000
C01000
C01000
C01000
C03000
603000
706000
3FE000
1F8000
ENDCHAR
STARTCHAR 0545
ENCODING 1349
SWIDTH 560 0
DWIDTH 14 0
BBX 12 16 1 0
BITMAP
1FC0
3DE0
6060
6030
0030
0060
7FE0
7FC0
00E0
0030
0030
C010
C030
6070
3FE0
1FC0
ENDCHAR
STARTCHAR 0546
ENCODING 1350
SWIDTH 720 0
DWIDTH 18 0
BBX 17 16 1 0
BITMAP
FC0000
FC0000
0C0000
0C0000
0C0000
0C0000
0C0000
0C0000
0C0000
0C0000
040180
060180
060300
070700
03FE00
00FC00
ENDCHAR
STARTCHAR 0547
ENCODING 1351
SWIDTH 600 0
DWIDTH 15 0
BBX 14 16 1 0
BITMAP
7C00
7F30
DFF0
39E0
3000
3000
2000
6000
6000
2000
3000
3000
180C
1C18
0FF0
07E0
ENDCHAR
STARTCHAR 0548
ENCODING 1352
SWIDTH 560 0
DWIDTH 14 0
BBX 12 16 1 0
BITMAP
1F80
3FE0
7060
6030
C030
C010
C010
C010
C010
C010
C010
C010
C010
C010
C010
C010
ENDCHAR
STARTCHAR 0549
ENCODING 1353
SWIDTH 560 0
DWIDTH 14 0
BBX 12 16 1 0
BITMAP
0F80
3FC0
3060
2060
6060
2060
3060
3DE0
1FE0
0060
00C0
00C0
F980
3F80
07F0
0070
ENDCHAR
STARTCHAR 054A
ENCODING 1354
SWIDTH 560 0
DWIDTH 14 0
BBX 12 16 1 0
BITMAP
1F80
3FE0
7660
6630
C630
C610
0610
0610
0610
0610
0610
0010
0010
0010
0010
0010
ENDCHAR
STARTCHAR 054B
ENCODING 1355
SWIDTH 560 0
DWIDTH 14 0
BBX 12 16 1 0
BITMAP
0F80
3FC0
3060
2060
6060
6060
7860
7E60
0760
03E0
01C0
C1C0
C180
C300
FFF0
FFF0
ENDCHAR
STARTCHAR 054C
ENCODING 1356
SWIDTH 720 0
DWIDTH 18 0
BBX 17 16 1 0
BITMAP
1F8000
3FE000
707000
603000
C03000
C01E00
C01F00
C01300
C01180
C01180
C01180
C01000
C01000
C01000
C01000
C01000
ENDCHAR
STARTCHAR 054D
ENCODING 1357
SWIDTH 560 0
DWIDTH 14 0
BBX 12 16 1 0
BITMAP
C010
C010
C010
C010
C010
C010
C010
C010
C010
C010
C010
C030
6030
7060
3FE0
1F80
ENDCHAR
STARTCHAR 054E
ENCODING 1358
SWIDTH 800 0
DWIDTH 20 0
BBX 18 16 1 0
BITMAP
00C000
00C000
00C000
00C000
00C000
C0C000
C0C000
61C000
63C000
3FC000
08C000
00C000
00C000
00C000
00FFC0
00FFC0
ENDCHAR
STARTCHAR 054F
ENCODING 1359
SWIDTH 480 0
DWIDTH 12 0
BBX 10 16 1 0
BITMAP
3F00
3F80
6180
6080
6000
6000
3800
1E00
0780
0180
00C0
C0C0
C0C0
61C0
7F80
3F00
ENDCHAR
STARTCHAR 0550
ENCODING 1360
SWIDTH 400 0
DWIDTH 10 0
BBX 9 16 1 0
BITMAP
3E00
7700
C380
C180
C000
C000
C000
C000
C000
C000
C000
C000
C000
C000
C000
C000
ENDCHAR
STARTCHAR 0551
ENCODING 1361
SWIDTH 560 0
DWIDTH 14 0
BBX 12 16 1 0
BITMAP
1FC0
3DE0
6060
6030
6030
6060
FFE0
FFC0
00E0
0030
0030
C010
C030
6070
3FE0
1FC0
ENDCHAR
STARTCHAR 0552
ENCODING 1362
SWIDTH 480 0
DWIDTH 12 0
BBX 10 16 1 0
BITMAP
C000
C000
C000
C000
C000
FFC0
FFC0
C000
C000
C000
C000
C000
C000
C000
C000
C000
ENDCHAR
STARTCHAR 0553
ENCODING 1363
SWIDTH 560 0
DWIDTH 14 0
BBX 12 16 1 0
BITMAP
0600
0600
0600
0F80
3FE0
7670
E630
C610
C610
6630
7670
3FE0
0F00
0600
0600
0600
ENDCHAR
STARTCHAR 0554
ENCODING 1364
SWIDTH 520 0
DWIDTH 13 0
BBX 12 16 1 0
BITMAP
0FC0
1FE0
3860
3030
3030
3030
3860
3FE0
3FC0
3000
3000
3000
FFF0
FFF0
3000
3000
ENDCHAR
STARTCHAR 0555
ENCODING 1365
SWIDTH 600 0
DWIDTH 15 0
BBX 14 16 1 0
BITMAP
0FC0
1FE0
3030
6038
6018
C018
C00C
C00C
C00C
C00C
4018
6018
6038
3070
1FE0
0FC0
ENDCHAR
STARTCHAR 0556
ENCODING 1366
SWIDTH 600 0
DWIDTH 15 0
BBX 14 16 1 0
BITMAP
0F00
1F00
3300
3300
1F00
0FC0
03F0
0338
0318
030C
C30C
C30C
6318
7338
3FF0
0FC0
ENDCHAR
STARTCHAR 0559
ENCODING 1369
SWIDTH 200 0
DWIDTH 5 0
BBX 3 6 1 10
BITMAP
20
C0
80
80
E0
E0
ENDCHAR
STARTCHAR 055A
ENCODING 1370
SWIDTH 200 0
DWIDTH 5 0
BBX 4 6 1 10
BITMAP
E0
E0
30
20
20
C0
ENDCHAR
STARTCHAR 055B
ENCODING 1371
SWIDTH 240 0
DWIDTH 6 0
BBX 4 4 1 12
BITMAP
30
60
40
80
ENDCHAR
STARTCHAR 055C
ENCODING 1372
SWIDTH 400 0
DWIDTH 10 0
BBX 9 3 1 13
BITMAP
7080
F980
8F00
ENDCHAR
STARTCHAR 055D
ENCODING 1373
SWIDTH 240 0
DWIDTH 6 0
BBX 3 3 2 12
BITMAP
C0
40
20
ENDCHAR
STARTCHAR 055E
ENCODING 1374
SWIDTH 440 0
DWIDTH 11 0
BBX 9 6 1 10
BITMAP
1F00
7B80
6080
C080
C780
0F00
ENDCHAR
STARTCHAR 055F
ENCODING 1375
SWIDTH 360 0
DWIDTH 9 0
BBX 8 4 1 12
BITMAP
C0
C0
FF
7F
ENDCHAR
STARTCHAR 0560
ENCODING 1376
SWIDTH 600 0
DWIDTH 15 0
BBX 13 11 1 0
BITMAP
FCF0
F7B0
E718
C318
C318
C318
C318
C318
C318
C318
C318
ENDCHAR
STARTCHAR 0561
ENCODING 1377
SWIDTH 600 0
DWIDTH 15 0
BBX 13 11 1 0
BITMAP
C318
C318
C318
C318
C318
C318
C318
C718
4738
7FF8
39F8
ENDCHAR
STARTCHAR 0562
ENCODING 1378
SWIDTH 480 0
DWIDTH 12 0
BBX 10 16 1 -6
BITMAP
DF00
FB80
E180
E0C0
C0C0
C0C0
C0C0
C000
C000
FFC0
FFC0
C000
C000
C000
C000
4000
ENDCHAR
STARTCHAR 0563
ENCODING 1379
SWIDTH 640 0
DWIDTH 16 0
BBX 14 16 1 -6
BITMAP
3FC0
7BC0
61C0
C0C0
C0C0
C0C0
C0C0
40C0
61C0
3FFC
1FFC
00C0
00C0
00C0
00C0
00C0
ENDCHAR
STARTCHAR 0564
ENCODING 1380
SWIDTH 600 0
DWIDTH 15 0
BBX 14 16 1 -6
BITMAP
DF00
FB80
E180
E0C0
C0C0
C0C0
C0C0
C0C0
C0C0
C0FC
C0FC
00C0
00C0
00C0
00C0
00C0
ENDCHAR
STARTCHAR 0565
ENCODING 1381
SWIDTH 480 0
DWIDTH 12 0
BBX 10 16 1 0
BITMAP
C000
C000
FFC0
FFC0
C000
C000
C000
C0C0
C0C0
C0C0
C0C0
C0C0
C0C0
61C0
7FC0
3EC0
ENDCHAR
STARTCHAR 0566
ENCODING 1382
SWIDTH 480 0
DWIDTH 12 0
BBX 15 16 1 -5
BITMAP
3FC0
7BC0
61C0
C0C0
C0C0
C0C0
C0C0
40C0
61C0
3FC0
1FC0
00C0
00C0
00C0
00FE
00FE
ENDCHAR
STARTCHAR 0567
ENCODING 1383
SWIDTH 360 0
DWIDTH 9 0
BBX 7 16 1 0
BITMAP
C0
C0
C0
C0
C0
FC
FC
C0
C0
C0
C0
C0
C0
C0
FE
FE
ENDCHAR
STARTCHAR 0568
ENCODING 1384
SWIDTH 480 0
DWIDTH 12 0
BBX 10 16 1 -5
BITMAP
DF00
FB80
E180
E0C0
C0C0
C0C0
C0C0
C0C0
C0C0
C0C0
C0C0
C000
C000
C000
FFC0
FFC0
ENDCHAR
STARTCHAR 0569
ENCODING 1385
SWIDTH 560 0
DWIDTH 14 0
BBX 12 16 1 -6
BITMAP
DF00
FB80
E180
E0C0
C0C0
C0C0
C7F0
C6C0
CCC0
C7C0
C780
C000
C000
C000
C000
4000
ENDCHAR
STARTCHAR 056A
ENCODING 1386
SWIDTH 520 0
DWIDTH 13 0
BBX 11 16 1 0
BITMAP
0080
0080
0080
0080
0080
3FE0
7880
6080
C080
C080
C080
C080
4080
6180
3F80
1E00
ENDCHAR
STARTCHAR 056B
ENCODING 1387
SWIDTH 480 0
DWIDTH 12 0
BBX 10 21 1 -6
BITMAP
C000
C000
C000
C000
C000
DF00
FB80
E180
E0C0
C0C0
C0C0
C0C0
C0C0
C0C0
C0C0
C0C0
C000
C000
C000
C000
4000
ENDCHAR
STARTCHAR 056C
ENCODING 1388
SWIDTH 360 0
DWIDTH 9 0
BBX 7 16 1 -5
BITMAP
C0
C0
C0
C0
C0
C0
C0
C0
C0
C0
C0
C0
C0
C0
FE
FE
ENDCHAR
STARTCHAR 056D
ENCODING 1389
SWIDTH 560 0
DWIDTH 14 0
BBX 12 21 1 -6
BITMAP
C000
C000
C000
C000
C000
FC30
EE30
C630
C630
C630
C630
C630
C630
C630
C3F0
C1F0
C000
C000
C000
C000
4000
ENDCHAR
STARTCHAR 056E
ENCODING 1390
SWIDTH 480 0
DWIDTH 12 0
BBX 10 16 1 0
BITMAP
1800
3800
3800
1C00
0E00
3FC0
7B80
6180
C0C0
C0C0
C0C0
C0C0
40C0
6180
3F80
1E00
ENDCHAR
STARTCHAR 056F
ENCODING 1391
SWIDTH 480 0
DWIDTH 12 0
BBX 10 21 1 -6
BITMAP
C000
C000
C000
C000
C000
C0C0
C0C0
C0C0
C0C0
C0C0
C0C0
C0C0
C0C0
61C0
7FC0
3EC0
00C0
00C0
00C0
00C0
00C0
ENDCHAR
STARTCHAR 0570
ENCODING 1392
SWIDTH 480 0
DWIDTH 12 0
BBX 10 16 1 0
BITMAP
C000
C000
C000
C000
C000
DF00
FB80
E180
E0C0
C0C0
C0C0
C0C0
C0C0
C0C0
C0C0
C0C0
ENDCHAR
STARTCHAR 0571
ENCODING 1393
SWIDTH 520 0
DWIDTH 13 0
BBX 11 16 1 0
BITMAP
3000
7000
3000
1800
1C00
3800
7000
7E00
FF00
C180
C180
C180
40C0
61C0
3FC0
1E60
ENDCHAR
STARTCHAR 0572
ENCODING 1394
SWIDTH 480 0
DWIDTH 12 0
BBX 15 16 1 -5
BITMAP
DF00
FB80
E180
E0C0
C0C0
C0C0
C0C0
C0C0
C0C0
C0C0
C0C0
00C0
00C0
00C0
00FE
00FE
ENDCHAR
STARTCHAR 0573
ENCODING 1395
SWIDTH 600 0
DWIDTH 15 0
BBX 13 16 1 0
BITMAP
03E0
07F0
0C30
0810
1800
1800
3000
3F80
3FC0
F060
3060
3060
3030
1870
1FF0
0798
ENDCHAR
STARTCHAR 0574
ENCODING 1396
SWIDTH 480 0
DWIDTH 12 0
BBX 12 16 1 0
BITMAP
01E0
03F0
0330
0200
0300
C380
C1C0
C0C0
C0C0
C0C0
C0C0
C0C0
C0C0
61C0
7FC0
3EC0
ENDCHAR
STARTCHAR 0575
ENCODING 1397
SWIDTH 160 0
DWIDTH 4 0
BBX 5 16 -2 -5
BITMAP
18
18
18
18
18
18
18
18
18
18
18
18
18
18
F8
F0
ENDCHAR
STARTCHAR 0576
ENCODING 1398
SWIDTH 600 0
DWIDTH 15 0
BBX 14 16 1 0
BITMAP
FC00
FC00
0C00
0C00
0C00
0C0C
0C0C
0C0C
0C0C
0C0C
0C0C
0C0C
0C1C
0E3C
07FC
03EC
ENDCHAR
STARTCHAR 0577
ENCODING 1399
SWIDTH 400 0
DWIDTH 10 0
BBX 9 16 1 -5
BITMAP
3E00
7700
C180
C180
0180
0300
0300
0600
1C00
3800
7000
6000
C000
C000
FF80
7F80
ENDCHAR
ENDFONT
